<svg width="27" height="25" viewBox="0 0 27 25" fill="none" xmlns="http://www.w3.org/2000/svg">
<ellipse cx="22.283" cy="4.60988" rx="2.1221" ry="1.9222" stroke="url(#paint0_linear)" stroke-width="1.5" stroke-linecap="round" stroke-linejoin="round"/>
<path fill-rule="evenodd" clip-rule="evenodd" d="M16.6846 3.52979H8.66107C5.33644 3.52979 3.27496 5.66251 3.27496 8.67395V16.7563C3.27496 19.7678 5.29602 21.8913 8.66107 21.8913H18.16C21.4846 21.8913 23.5461 19.7678 23.5461 16.7563V9.71743" fill="url(#paint1_linear)"/>
<path d="M16.6846 3.52979H8.66107C5.33644 3.52979 3.27496 5.66251 3.27496 8.67395V16.7563C3.27496 19.7678 5.29602 21.8913 8.66107 21.8913H18.16C21.4846 21.8913 23.5461 19.7678 23.5461 16.7563V9.71743" stroke="url(#paint2_linear)" stroke-width="1.5" stroke-linecap="round" stroke-linejoin="round"/>
<path d="M8.20636 15.1911L11.5108 11.3009L15.28 13.9829L18.5137 10.2025" stroke="white" stroke-width="1.5" stroke-linecap="round" stroke-linejoin="round"/>
<defs>
<linearGradient id="paint0_linear" x1="22.283" y1="2.68768" x2="22.283" y2="6.53208" gradientUnits="userSpaceOnUse">
<stop stop-color="#FA8781"/>
<stop offset="1" stop-color="#EF8347"/>
</linearGradient>
<linearGradient id="paint1_linear" x1="13.4105" y1="3.52979" x2="13.4105" y2="21.8913" gradientUnits="userSpaceOnUse">
<stop stop-color="#FA8781"/>
<stop offset="1" stop-color="#EE8344"/>
</linearGradient>
<linearGradient id="paint2_linear" x1="13.4105" y1="3.52979" x2="13.4105" y2="21.8913" gradientUnits="userSpaceOnUse">
<stop stop-color="#FA8781"/>
<stop offset="1" stop-color="#EF8347"/>
</linearGradient>
</defs>
</svg>
