<svg width="50" height="50" viewBox="0 0 50 50" fill="none" xmlns="http://www.w3.org/2000/svg">
<path d="M40.1682 0.892857C40.1682 0.399746 39.7684 0 39.2753 0H35.7039C35.2108 0 34.811 0.399746 34.811 0.892857V4.52857L40.1682 8.29821V0.892857Z" fill="#FFFEFE"/>
<path d="M29.0277 27.6169C29.9795 27.7848 30.992 26.7125 31.2438 25.2821C31.378 24.5828 31.2877 23.8591 30.9858 23.2142C30.7917 22.7757 30.4063 22.4512 29.9411 22.3348C29.8763 22.3234 29.8105 22.3177 29.7447 22.3178C28.8518 22.3178 27.959 23.3375 27.7242 24.6696C27.4768 26.1035 28.0742 27.4517 29.0277 27.6169Z" fill="#FFFEFE"/>
<path d="M20.9823 27.617C21.4476 27.5002 21.833 27.1754 22.027 26.7366C22.6171 25.4132 22.349 23.8643 21.3484 22.8161C21.0605 22.5231 20.6744 22.3469 20.2645 22.3215C20.1989 22.3215 20.1335 22.3271 20.0689 22.3384C19.6043 22.4541 19.2187 22.7771 19.0234 23.2143C18.7222 23.8581 18.6319 24.5805 18.7654 25.2786C19.0136 26.7134 20.0323 27.7866 20.9823 27.617Z" fill="#FFFEFE"/>
<path d="M15.421 30.3571C15.322 30.3569 15.2235 30.3717 15.129 30.4009C14.797 30.5179 14.5348 30.7774 14.4145 31.1082C14.0774 32.0312 14.3992 33.0657 15.2004 33.6346C15.4818 33.8514 15.8511 33.9177 16.1903 33.8123C16.5295 33.707 16.7962 33.4431 16.9052 33.105C17.076 32.6573 17.088 32.1646 16.9391 31.7092C16.7653 30.9855 16.1599 30.4463 15.421 30.3571Z" fill="#FFFEFE"/>
<path d="M33.7914 33.8132C34.1314 33.9046 34.4944 33.8391 34.7809 33.6346C35.5821 33.0657 35.9039 32.0312 35.5668 31.1082C35.4465 30.7774 35.1843 30.5179 34.8523 30.4009C34.1584 30.1866 33.3342 30.784 33.0439 31.7092C32.8951 32.1647 32.9071 32.6574 33.0779 33.105C33.1975 33.4361 33.4594 33.696 33.7914 33.8132Z" fill="#FFFEFE"/>
<path d="M20.4099 36.2893C19.6822 37.1545 19.4575 38.3362 19.8171 39.408C20.0769 39.9389 20.6435 40.2478 21.2305 40.1786C21.768 40.1562 22.2955 40.0256 22.7814 39.7946C23.4754 39.4775 24.2266 39.3044 24.9894 39.2857C25.7522 39.3044 26.5034 39.4775 27.1974 39.7946C27.6833 40.0256 28.2108 40.1562 28.7483 40.1786C29.3353 40.2478 29.9019 39.9389 30.1617 39.408C30.5213 38.3362 30.2966 37.1545 29.5689 36.2893C29.0754 35.6559 28.642 34.978 28.2742 34.2643C27.2296 32.3884 26.4876 31.25 24.9894 31.25C23.4912 31.25 22.7492 32.3884 21.7046 34.2643C21.3368 34.978 20.9034 35.6559 20.4099 36.2893Z" fill="#FFFEFE"/>
<path d="M49.6099 17.1272L25.5028 0.16291C25.1941 -0.0526757 24.7837 -0.0526757 24.4751 0.16291L0.367958 17.1272C-0.0264532 17.4139 -0.117928 17.964 0.162474 18.3629C0.442877 18.7618 0.991448 18.862 1.39474 18.5879L24.4751 2.34684C24.7835 2.12952 25.1953 2.12952 25.5037 2.34684L48.5831 18.5879C48.7768 18.7244 49.0168 18.7783 49.2502 18.7378C49.4837 18.6973 49.6915 18.5656 49.8278 18.3718C50.1113 17.9685 50.0141 17.4117 49.6108 17.1281L49.6099 17.1272Z" fill="#FFFEFE"/>
<path d="M5.34644 17.9911V49.1072C5.34644 49.6003 5.74618 50.0001 6.23929 50.0001H43.7393C44.2324 50.0001 44.6322 49.6003 44.6322 49.1072V17.9911L24.9893 4.16791L5.34644 17.9911ZM42.8464 26.9643C42.8464 34.059 38.2438 43.8697 25.2705 48.1715C25.0879 48.2321 24.8906 48.2321 24.708 48.1715C11.7348 43.867 7.13215 34.0563 7.13215 26.9643C7.13215 20.3572 11.25 15.1786 16.5072 15.1786C19.6801 15.1948 22.7222 16.4453 24.9893 18.6652C27.2564 16.4453 30.2985 15.1948 33.4714 15.1786C38.7286 15.1786 42.8464 20.3572 42.8464 26.9643Z" fill="#FFFEFE"/>
<path d="M24.2876 20.5295C22.3122 18.2981 19.4871 17.0036 16.5073 16.9643C12.251 16.9643 8.91797 21.3554 8.91797 26.9643C8.91797 33.4134 13.1349 42.3339 24.9894 46.3822C36.8439 42.3313 41.0608 33.4107 41.0608 26.9643C41.0608 21.3554 37.7278 16.9643 33.4715 16.9643C30.4917 17.0036 27.6666 18.2981 25.6912 20.5295C25.522 20.7442 25.2637 20.8695 24.9903 20.8697C24.7163 20.8701 24.4572 20.7447 24.2876 20.5295ZM17.4331 22.4045C17.853 21.4421 18.7281 20.7549 19.7625 20.5752C20.797 20.3955 21.8526 20.7472 22.5724 21.5116C24.1515 23.1041 24.5687 25.513 23.6171 27.5438C23.1737 28.4877 22.3092 29.1657 21.2867 29.3714C21.1242 29.3995 20.9596 29.4135 20.7948 29.4134C19.0314 29.4134 17.3903 27.8063 17.0064 25.5813C16.8055 24.506 16.9551 23.3946 17.4331 22.4107V22.4045ZM16.7189 35.5161C16.4498 35.6001 16.1695 35.6428 15.8876 35.6429C15.2968 35.6373 14.7203 35.4598 14.2287 35.1322C12.704 34.0942 12.0976 32.1413 12.7662 30.4223C13.0855 29.5992 13.7595 28.9644 14.6001 28.6947C16.4007 28.2746 18.2039 29.3819 18.6439 31.1777C18.9193 32.0317 18.8877 32.9552 18.5546 33.7884C18.235 34.613 17.5595 35.2488 16.7171 35.5179L16.7189 35.5161ZM35.3796 28.6947C36.2202 28.9644 36.8942 29.5992 37.2135 30.4223C37.8821 32.1413 37.2757 34.0942 35.751 35.1322C35.2593 35.4598 34.6829 35.6373 34.0921 35.6429C33.8102 35.6428 33.5299 35.6001 33.2608 35.5161C32.4198 35.2467 31.7454 34.6118 31.426 33.7884C31.0929 32.9552 31.0613 32.0317 31.3367 31.1777C31.777 29.3823 33.5804 28.2758 35.3805 28.6964L35.3796 28.6947ZM25.9653 24.3688C26.3849 21.9429 28.3099 20.2473 30.2457 20.5786C31.27 20.7846 32.1357 21.4645 32.5787 22.4107C33.058 23.3978 33.2076 24.5126 33.0055 25.5911C32.6207 27.8107 30.9805 29.4232 29.2162 29.4232C29.0516 29.4234 28.8873 29.4093 28.7251 29.3813C26.7823 29.0402 25.5457 26.7938 25.9653 24.3688ZM29.834 33.3929C30.148 34.0059 30.5165 34.5895 30.9349 35.1366C32.1058 36.5339 32.4296 38.4551 31.7814 40.1589C31.2366 41.3261 30.034 42.0419 28.7483 41.9643C27.9855 41.9456 27.2343 41.7725 26.5403 41.4554C26.0544 41.2244 25.5269 41.0939 24.9894 41.0714C24.4519 41.0939 23.9244 41.2244 23.4385 41.4554C22.7445 41.7725 21.9933 41.9456 21.2305 41.9643C19.9445 42.0435 18.7407 41.3287 18.1948 40.1616C17.5465 38.4578 17.8703 36.5366 19.0412 35.1393C19.4607 34.5915 19.8301 34.007 20.1448 33.3929C21.1206 31.6438 22.334 29.4643 24.9894 29.4643C27.6448 29.4643 28.8581 31.6438 29.834 33.3929Z" fill="#FFFEFE"/>
</svg>
