<svg width="16" height="16" viewBox="0 0 16 16" fill="none" xmlns="http://www.w3.org/2000/svg">
<path d="M13.1875 7.06462H9.75V4.06462H8.625C8.97323 3.59975 9.16033 3.03398 9.15794 2.45315C9.15794 1.5894 8.74922 0.777808 8.09128 0.335151L7.81216 0.147339L7.53306 0.335151C6.875 0.77787 6.46641 1.58943 6.46641 2.45315C6.46406 3.03399 6.65122 3.59974 6.9995 4.06459H5.75V7.06459H2.8125C2.33196 7.06513 1.87126 7.25627 1.53147 7.59606C1.19168 7.93585 1.00055 8.39655 1 8.87709V14.5C1.0003 14.7652 1.10575 15.0193 1.29322 15.2068C1.48069 15.3943 1.73487 15.4997 2 15.5H14C14.2651 15.4997 14.5193 15.3943 14.7068 15.2068C14.8942 15.0193 14.9997 14.7652 15 14.5V8.87712C14.9995 8.39658 14.8083 7.93588 14.4685 7.59609C14.1287 7.2563 13.668 7.06517 13.1875 7.06462V7.06462ZM7.81216 1.42321C8.03059 1.69459 8.15794 2.06278 8.15794 2.45318C8.15794 2.84359 8.03059 3.21181 7.81216 3.48315C7.59375 3.21181 7.46641 2.84359 7.46641 2.45315C7.46641 2.06271 7.59375 1.69459 7.81216 1.42321ZM6.75 5.06462H8.75V7.06462H6.75V5.06462ZM2 8.87712C2.00025 8.66171 2.08593 8.45519 2.23825 8.30287C2.39057 8.15055 2.59709 8.06487 2.8125 8.06462H13.1875C13.4029 8.06487 13.6094 8.15055 13.7618 8.30287C13.9141 8.45519 13.9998 8.66171 14 8.87712V9.8639L13.325 10.1617C13.193 10.2198 13.0503 10.2498 12.9061 10.2498C12.7619 10.2498 12.6192 10.2198 12.4872 10.1617L11.3125 9.6434L10.1375 10.1617C10.0055 10.2198 9.86283 10.2498 9.71859 10.2498C9.57436 10.2498 9.4317 10.2198 9.29969 10.1617L8.125 9.64337L6.95 10.1617C6.81798 10.2198 6.67533 10.2498 6.53109 10.2498C6.38686 10.2498 6.2442 10.2198 6.11219 10.1617L4.9375 9.6434L3.76272 10.1617C3.6307 10.2198 3.48805 10.2498 3.34381 10.2498C3.19958 10.2498 3.05692 10.2198 2.92491 10.1617L2 9.75368V8.87712ZM14 14.5H2V10.8467L2.52119 11.0766C2.78042 11.1907 3.06054 11.2496 3.34375 11.2496C3.62696 11.2496 3.90708 11.1907 4.16631 11.0766L4.9375 10.7364L5.70872 11.0766C5.96794 11.1907 6.24806 11.2496 6.53127 11.2496C6.81448 11.2496 7.09459 11.1907 7.35381 11.0766L8.125 10.7364L8.89616 11.0766C9.15537 11.1907 9.43548 11.2496 9.71869 11.2496C10.0019 11.2496 10.282 11.1907 10.5412 11.0766L11.3125 10.7364L12.0837 11.0767C12.3429 11.1907 12.623 11.2496 12.9062 11.2496C13.1894 11.2496 13.4695 11.1907 13.7287 11.0767L14.0004 10.9568L14.0006 14.5H14Z" fill="#737373"/>
</svg>
