<svg width="26" height="26" viewBox="0 0 26 26" fill="none" xmlns="http://www.w3.org/2000/svg">
<path d="M25.4211 10.7961L22.3793 10.0496C22.2117 9.51641 21.9984 8.99844 21.7395 8.4957L23.2934 5.90586C23.4762 5.60117 23.4305 5.22031 23.1867 4.97656L21.0234 2.81328C20.7797 2.56953 20.3988 2.52383 20.0941 2.70664L17.5043 4.26055C17.0016 4.00156 16.4836 3.78828 15.9504 3.6207L15.2191 0.578906C15.1277 0.24375 14.823 0 14.4727 0H11.4258C11.0754 0 10.7707 0.24375 10.6793 0.578906L9.94805 3.6207C9.41484 3.78828 8.89688 4.00156 8.39414 4.26055L5.8043 2.70664C5.49961 2.52383 5.11875 2.56953 4.875 2.81328L2.71172 4.97656C2.46797 5.22031 2.42227 5.60117 2.60508 5.90586L4.15898 8.4957C3.9 8.99844 3.68672 9.51641 3.51914 10.0496L0.578906 10.7961C0.24375 10.8723 0 11.177 0 11.5273V14.5742C0 14.9246 0.24375 15.2293 0.578906 15.3055L3.51914 16.052C3.68672 16.5852 3.9 17.1031 4.15898 17.6059L2.60508 20.1957C2.42227 20.5004 2.46797 20.8813 2.71172 21.125L4.875 23.2883C5.11875 23.532 5.49961 23.5777 5.8043 23.3949L8.39414 21.841C8.89688 22.1 9.41484 22.3133 9.94805 22.4809L10.6793 25.4211C10.7707 25.7563 11.0754 26 11.4258 26H14.4727C14.823 26 15.1277 25.7563 15.2191 25.4211L15.9504 22.4809C16.4836 22.3133 17.0016 22.1 17.5043 21.841L20.0941 23.3949C20.3988 23.5777 20.7797 23.532 21.0234 23.2883L23.1867 21.125C23.4305 20.8813 23.4762 20.5004 23.2934 20.1957L21.7395 17.6059C21.9984 17.1031 22.2117 16.5852 22.3793 16.052L25.4211 15.3055C25.7563 15.2293 26 14.9246 26 14.5742V11.5273C26 11.177 25.7563 10.8723 25.4211 10.7961ZM12.9492 16.8594C10.8469 16.8594 9.14062 15.1531 9.14062 13.0508C9.14062 10.9484 10.8469 9.24219 12.9492 9.24219C15.0516 9.24219 16.7578 10.9484 16.7578 13.0508C16.7578 15.1531 15.0516 16.8594 12.9492 16.8594Z" fill="url(#paint0_linear)"/>
<defs>
<linearGradient id="paint0_linear" x1="13" y1="0" x2="13" y2="26" gradientUnits="userSpaceOnUse">
<stop stop-color="#FC8889"/>
<stop offset="1" stop-color="#EC823A"/>
</linearGradient>
</defs>
</svg>
