<svg width="26" height="26" viewBox="0 0 26 26" fill="none" xmlns="http://www.w3.org/2000/svg">
<path d="M25.4179 10.7871L22.3769 10.0492C22.2071 9.51417 21.9931 8.99651 21.7373 8.5022L23.2975 5.90205C23.4773 5.60234 23.4301 5.21869 23.1829 4.97154L21.0285 2.81709C20.7814 2.56994 20.3977 2.52271 20.0981 2.70253L17.4977 4.26263C17.0033 4.00679 16.4856 3.79275 15.9508 3.62304L15.2129 0.582105C15.13 0.2405 14.8242 0 14.4727 0H11.4258C11.0743 0 10.7685 0.2405 10.6855 0.582105L9.94759 3.62304C9.41286 3.79275 8.8951 4.00684 8.40074 4.26263L5.80044 2.70253C5.50078 2.52271 5.11718 2.56994 4.86997 2.81709L2.71553 4.97148C2.46837 5.21864 2.42115 5.60229 2.60097 5.902L4.16112 8.50215C3.90482 8.99747 3.69037 9.5163 3.52046 10.0525L0.577027 10.7883C0.23791 10.8731 0 11.1778 0 11.5273V14.5742C0 14.9237 0.23791 15.2284 0.576977 15.3132L3.52041 16.0491C3.69043 16.5853 3.90472 17.104 4.16102 17.5993L2.60091 20.1995C2.4211 20.4992 2.46832 20.8828 2.71548 21.13L4.86992 23.2845C5.11702 23.5316 5.50068 23.5789 5.80044 23.399L8.40059 21.8389C8.89591 22.0952 9.41479 22.3096 9.95089 22.4796L10.6868 25.423C10.7716 25.7621 11.0763 26 11.4258 26H14.4727C14.8222 26 15.1269 25.7621 15.2116 25.423L15.9475 22.4796C16.4836 22.3096 17.0025 22.0952 17.4978 21.8389L20.0979 23.399C20.3976 23.5789 20.7813 23.5316 21.0285 23.2845L23.1829 21.13C23.4301 20.8828 23.4773 20.4992 23.2975 20.1995L21.7374 17.5993C21.9931 17.1051 22.2071 16.5874 22.3769 16.0525L25.4179 15.3145C25.7595 15.2316 26 14.9257 26 14.5742V11.5273C26 11.1758 25.7595 10.87 25.4179 10.7871ZM24.4766 13.9753L21.59 14.6758C21.3191 14.7415 21.1058 14.9498 21.0337 15.2191C20.8435 15.9299 20.5631 16.6083 20.2003 17.2354C20.0616 17.4751 20.0639 17.7712 20.2064 18.0087L21.6852 20.4733L20.3718 21.7867L17.9073 20.308C17.6698 20.1654 17.3736 20.1631 17.1339 20.3018C16.5066 20.6647 15.8282 20.9451 15.1175 21.1354C14.8501 21.2069 14.6425 21.4179 14.5754 21.6864L13.8779 24.4766H12.0205L11.323 21.6864C11.2559 21.4179 11.0484 21.2069 10.781 21.1354C10.0702 20.9451 9.39179 20.6647 8.76449 20.3018C8.5248 20.1632 8.22869 20.1654 7.99114 20.308L5.52663 21.7867L4.21327 20.4733L5.69202 18.0087C5.83456 17.7712 5.8369 17.475 5.69816 17.2354C5.33533 16.6083 5.05492 15.9299 4.86469 15.2191C4.79314 14.9517 4.58214 14.7442 4.31356 14.6771L1.52344 13.9795V12.122L4.31356 11.4245C4.58209 11.3574 4.79309 11.1499 4.86469 10.8825C5.05492 10.1716 5.33538 9.49325 5.69821 8.86605C5.83685 8.62631 5.83451 8.33021 5.69202 8.0927L4.21327 5.62814L5.52663 4.31478L7.99129 5.79353C8.2287 5.93602 8.52485 5.93836 8.76459 5.79968C9.39214 5.43664 10.0706 5.15623 10.7809 4.96615C11.0502 4.89414 11.2585 4.68081 11.3243 4.40995L12.0247 1.52344H13.8737L14.5742 4.41005C14.6399 4.68086 14.8483 4.8942 15.1175 4.96625C15.8279 5.15633 16.5063 5.43674 17.1338 5.79978C17.3735 5.93846 17.6697 5.93612 17.9071 5.79363L20.3718 4.31488L21.6852 5.62824L20.2064 8.0928C20.0639 8.33031 20.0615 8.62641 20.2002 8.86615C20.5631 9.49335 20.8435 10.1717 21.0337 10.8826C21.1058 11.1518 21.3191 11.3602 21.59 11.4259L24.4766 12.1263V13.9753Z" fill="#ADB4BD"/>
<path d="M12.9492 7.71875C10.0091 7.71875 7.61719 10.1107 7.61719 13.0508C7.61719 15.9909 10.0091 18.3828 12.9492 18.3828C15.8893 18.3828 18.2812 15.9909 18.2812 13.0508C18.2812 10.1107 15.8893 7.71875 12.9492 7.71875ZM12.9492 16.8594C10.8492 16.8594 9.14062 15.1508 9.14062 13.0508C9.14062 10.9507 10.8492 9.24219 12.9492 9.24219C15.0493 9.24219 16.7578 10.9507 16.7578 13.0508C16.7578 15.1508 15.0493 16.8594 12.9492 16.8594Z" fill="#ADB4BD"/>
</svg>
