<svg width="48" height="48" viewBox="0 0 48 48" fill="none" xmlns="http://www.w3.org/2000/svg">
<path d="M10.421 8.21049H14.2105C14.385 8.21049 14.5263 8.06905 14.5263 7.89473V0.31576C14.5263 0.141318 14.385 0 14.2105 0H10.421C10.2466 0 10.1053 0.141439 10.1053 0.31576V7.89473C10.1053 8.06917 10.2466 8.21049 10.421 8.21049Z" fill="black"/>
<path d="M44.4632 5.68414H39.7895V7.70515C39.7895 8.90521 38.9053 10.1051 37.7053 10.1051H33.979C32.6931 10.014 31.6702 8.99104 31.579 7.70515V5.68414H16.4211V7.70515C16.3299 8.99104 15.307 10.014 14.0211 10.1051H10.2947C9.09466 10.1051 8.21048 8.90509 8.21048 7.70515V5.68414H3.53682C1.92212 5.7186 0.631153 7.03761 0.631516 8.65267V16.4211H47.3684V8.65267C47.3688 7.03761 46.0779 5.7186 44.4632 5.68414Z" fill="black"/>
<path d="M33.7895 8.21049H37.5789C37.7534 8.21049 37.8947 8.06905 37.8947 7.89473V0.31576C37.8947 0.141318 37.7533 0 37.5789 0H33.7895C33.615 0 33.4737 0.141439 33.4737 0.31576V7.89473C33.4737 8.06917 33.615 8.21049 33.7895 8.21049Z" fill="black"/>
<path d="M0.631516 45.1579C0.665848 46.7377 1.95657 48.0004 3.53682 48H44.4632C46.0433 48.0004 47.334 46.7377 47.3685 45.1579V18.3158H0.631516V45.1579ZM12.379 29.9369C12.4798 29.5919 12.7793 29.3423 13.1368 29.3054L19.642 28.2949L22.5473 22.4212C22.8083 21.9677 23.3876 21.8118 23.8411 22.0728C23.9859 22.1562 24.1061 22.2763 24.1895 22.4212L27.0948 28.2949L33.6 29.3054C33.9575 29.3423 34.2572 29.592 34.3579 29.9369C34.4725 30.2748 34.3729 30.6483 34.1052 30.8843L29.4316 35.4316L30.5684 41.9369C30.6123 42.2786 30.4671 42.6172 30.1894 42.8211C30.0234 42.9403 29.8253 43.0063 29.621 43.0105C29.463 43.0255 29.3051 42.9804 29.1789 42.8842L23.3684 39.8525L17.5579 42.8842C17.2412 43.0771 16.8377 43.052 16.5474 42.8211C16.2697 42.6171 16.1247 42.2785 16.1684 41.9369L17.3053 35.4316L12.6316 30.8843C12.364 30.6483 12.2643 30.2747 12.379 29.9369Z" fill="black"/>
</svg>
