<svg width="19" height="19" viewBox="0 0 19 19" fill="none" xmlns="http://www.w3.org/2000/svg">
<path d="M9.51041 8.63416C8.1061 8.63416 7.42599 9.40258 6.9155 9.8748C6.13673 10.5953 6.13673 11.724 6.9155 12.4444C7.62652 13.1022 8.72131 13.1712 9.51041 12.7259C10.2861 13.1637 11.3845 13.1112 12.1053 12.4444C12.8841 11.7239 12.8841 10.5952 12.1053 9.87468C11.6048 9.41178 10.9228 8.63416 9.51041 8.63416ZM11.1001 11.703C10.8221 11.9601 10.4066 11.9596 10.1291 11.703C9.97086 11.5566 9.7453 11.4726 9.51036 11.4726C9.27542 11.4726 9.04991 11.5566 8.89174 11.703C8.61372 11.9602 8.19824 11.9596 7.92076 11.703C7.6024 11.4085 7.6024 10.9109 7.92071 10.6164C8.38983 10.1825 8.74683 9.74747 9.51045 9.74747C10.2657 9.74747 10.6168 10.1693 11.1001 10.6164C11.4185 10.9109 11.4185 11.4085 11.1001 11.703Z" fill="#BC8F5B"/>
<path d="M5.34259 9.69507C5.71473 9.69507 6.01642 9.44585 6.01642 9.13843C6.01642 8.831 5.71473 8.58179 5.34259 8.58179C4.97044 8.58179 4.66876 8.831 4.66876 9.13843C4.66876 9.44585 4.97044 9.69507 5.34259 9.69507Z" fill="#BC8F5B"/>
<path d="M13.6573 9.69507C14.0295 9.69507 14.3312 9.44585 14.3312 9.13843C14.3312 8.831 14.0295 8.58179 13.6573 8.58179C13.2852 8.58179 12.9835 8.831 12.9835 9.13843C12.9835 9.44585 13.2852 9.69507 13.6573 9.69507Z" fill="#BC8F5B"/>
<path d="M11.2031 7.66095C11.5753 7.66095 11.877 7.41173 11.877 7.10431C11.877 6.79689 11.5753 6.54767 11.2031 6.54767C10.831 6.54767 10.5293 6.79689 10.5293 7.10431C10.5293 7.41173 10.831 7.66095 11.2031 7.66095Z" fill="#BC8F5B"/>
<path d="M7.81775 7.66095C8.18989 7.66095 8.49158 7.41173 8.49158 7.10431C8.49158 6.79689 8.18989 6.54767 7.81775 6.54767C7.4456 6.54767 7.14392 6.79689 7.14392 7.10431C7.14392 7.41173 7.4456 7.66095 7.81775 7.66095Z" fill="#BC8F5B"/>
<path d="M16.7282 0H2.27178C1.89964 0 1.59795 0.249227 1.59795 0.556641V3.24421C0.246159 6.83061 0.246159 12.1694 1.59795 15.7558V18.4434C1.59795 18.7508 1.89964 19 2.27178 19H16.7282C17.1003 19 17.402 18.7508 17.402 18.4434V15.7558C18.7538 12.1694 18.7538 6.83061 17.402 3.24418V0.556641C17.402 0.249227 17.1003 0 16.7282 0V0ZM7.382 16.2279V17.8867H5.84136V16.2279H7.382ZM8.72966 16.2279H10.2703V17.8867H8.72966V16.2279ZM11.618 16.2279H13.1586V17.8867H11.618V16.2279ZM2.77279 15.1146C1.66219 11.8743 1.66219 7.12571 2.77279 3.88543H16.2271C17.3377 7.12567 17.3377 11.8743 16.2271 15.1146H2.77279ZM11.618 2.77214V1.11328H13.1586V2.77214H11.618ZM10.2703 2.77214H8.72966V1.11328H10.2703V2.77214ZM7.382 2.77214H5.84136V1.11328H7.382V2.77214ZM16.0544 2.77214H14.5063V1.11328H16.0544V2.77214ZM4.4937 1.11328V2.77214H2.94565V1.11328H4.4937ZM2.94561 16.2279H4.49366V17.8867H2.94561V16.2279ZM14.5063 17.8867V16.2279H16.0543V17.8867H14.5063Z" fill="#BC8F5B"/>
</svg>
