<svg width="20" height="20" viewBox="0 0 20 20" fill="none" xmlns="http://www.w3.org/2000/svg">
<path d="M17.3585 0.146131C17.7814 -0.197541 18.4138 0.103474 18.4138 0.648435V9.3207L11.2943 5.11371L17.3585 0.146131Z" fill="#FFC850"/>
<path d="M17.7668 8.93824L13.4319 6.37675L17.0437 2.30484C17.2962 2.02015 17.7668 2.19875 17.7668 2.57933V8.93824Z" fill="#EBAF4B"/>
<path d="M2.64133 0.146131C2.21832 -0.197541 1.58594 0.103474 1.58594 0.648435V9.3207L8.70547 5.11371L2.64133 0.146131Z" fill="#FFC850"/>
<path d="M2.23328 8.93824L6.56816 6.37675L2.95636 2.30484C2.70382 2.02015 2.23328 2.19875 2.23328 2.57933V8.93824Z" fill="#EBAF4B"/>
<path d="M10 20C15.0045 20 19.0614 16.1605 19.0614 11.4242C19.0614 6.68796 15.0045 2.84845 10 2.84845C4.99562 2.84845 0.938721 6.68796 0.938721 11.4242C0.938721 16.1605 4.99562 20 10 20Z" fill="#FFDC64"/>
<path d="M11.2945 16.7639V17.4111C11.2945 18.126 10.7149 18.7055 10 18.7055C9.2851 18.7055 8.70557 18.126 8.70557 17.4111V16.7639L10 16.1166L11.2945 16.7639Z" fill="#FF8087"/>
<path d="M10.7145 13.4321H9.28529C8.97674 13.4321 8.80588 13.7898 8.99986 14.0298L9.71451 14.9139C9.86139 15.0956 10.1384 15.0956 10.2853 14.9139L11 14.0298C11.1939 13.7898 11.0231 13.4321 10.7145 13.4321Z" fill="#5D5360"/>
<path d="M18.7372 17.0874C18.687 17.0874 18.6359 17.0758 18.5882 17.051C16.6315 16.0335 13.569 15.4289 13.5382 15.4229C13.3628 15.3888 13.2484 15.2188 13.2825 15.0433C13.3168 14.8678 13.4851 14.7532 13.6621 14.7877C13.791 14.8128 16.8463 15.4156 18.8869 16.4767C19.0453 16.5592 19.1071 16.7545 19.0246 16.9131C18.967 17.0239 18.8542 17.0874 18.7372 17.0874Z" fill="#E1A546"/>
<path d="M19.385 14.8223C19.3572 14.8223 19.3289 14.8187 19.3008 14.8111C17.4869 14.3235 14.1887 14.416 14.1561 14.4175C13.9744 14.4227 13.8281 14.2823 13.8229 14.1038C13.8175 13.9251 13.958 13.7759 14.1366 13.7705C14.2756 13.7661 17.5638 13.6738 19.469 14.186C19.6415 14.2324 19.7438 14.4099 19.6974 14.5826C19.6585 14.727 19.5279 14.8221 19.385 14.8223Z" fill="#E1A546"/>
<path d="M12.2652 19.3527C7.26087 19.3527 3.20403 15.5133 3.20403 10.777C3.20403 7.29904 5.39286 4.30689 8.53677 2.9613C4.22841 3.62349 0.938721 7.15954 0.938721 11.4242C0.938721 16.1605 4.99556 20 9.99993 20C11.3295 20 12.5909 19.7267 13.7284 19.2399C13.2519 19.3131 12.7636 19.3527 12.2652 19.3527Z" fill="#FFC850"/>
<path d="M1.26272 17.0875C1.1458 17.0875 1.03295 17.0241 0.975296 16.9132C0.892796 16.7545 0.954593 16.5592 1.11307 16.4767C3.15369 15.4157 6.20889 14.8128 6.33783 14.7877C6.51338 14.7525 6.68311 14.868 6.7174 15.0434C6.75155 15.2188 6.63713 15.3888 6.46174 15.4229C6.43092 15.429 3.36842 16.0335 1.41174 17.051C1.36401 17.0758 1.31299 17.0875 1.26272 17.0875Z" fill="#E1A546"/>
<path d="M0.615023 14.8223C0.472171 14.8223 0.341507 14.727 0.30264 14.5826C0.256351 14.4099 0.358578 14.2324 0.531117 14.186C2.43647 13.6737 5.72412 13.7666 5.8635 13.7705C6.04205 13.7759 6.18252 13.9251 6.17717 14.1038C6.17178 14.2823 6.01709 14.4239 5.84393 14.4175C5.81077 14.4164 2.51202 14.3234 0.699281 14.8111C0.671117 14.8187 0.642836 14.8223 0.615023 14.8223Z" fill="#E1A546"/>
<path d="M6.27841 12.5569C5.65544 12.5569 5.14575 12.0472 5.14575 11.4242V10.777C5.14575 10.154 5.65544 9.64435 6.27841 9.64435C6.90138 9.64435 7.41106 10.154 7.41106 10.777V11.4242C7.41106 12.0472 6.90138 12.5569 6.27841 12.5569Z" fill="#4B3F4E"/>
<path d="M6.27837 9.64435C6.22298 9.64435 6.16986 9.65298 6.11658 9.66079V11.2624C6.11658 11.6199 6.40634 11.9097 6.7638 11.9097C7.12126 11.9097 7.41103 11.6199 7.41103 11.2624V10.777C7.41103 10.154 6.9013 9.64435 6.27837 9.64435Z" fill="#5D5360"/>
<path d="M6.2784 10.9389C6.54649 10.9389 6.76383 10.7216 6.76383 10.4535C6.76383 10.1854 6.54649 9.96808 6.2784 9.96808C6.0103 9.96808 5.79297 10.1854 5.79297 10.4535C5.79297 10.7216 6.0103 10.9389 6.2784 10.9389Z" fill="white"/>
<path d="M13.7215 12.5569C13.0986 12.5569 12.5889 12.0472 12.5889 11.4242V10.777C12.5889 10.154 13.0986 9.64435 13.7215 9.64435C14.3445 9.64435 14.8542 10.154 14.8542 10.777V11.4242C14.8542 12.0472 14.3445 12.5569 13.7215 12.5569Z" fill="#4B3F4E"/>
<path d="M13.7215 9.64435C13.6661 9.64435 13.613 9.65298 13.5597 9.66079V11.2624C13.5597 11.6199 13.8495 11.9097 14.2069 11.9097C14.5644 11.9097 14.8541 11.6199 14.8541 11.2624V10.777C14.8541 10.154 14.3445 9.64435 13.7215 9.64435Z" fill="#5D5360"/>
<path d="M13.7215 10.9389C13.9896 10.9389 14.2069 10.7216 14.2069 10.4535C14.2069 10.1854 13.9896 9.96808 13.7215 9.96808C13.4534 9.96808 13.2361 10.1854 13.2361 10.4535C13.2361 10.7216 13.4534 10.9389 13.7215 10.9389Z" fill="white"/>
<path d="M10.2503 14.9277L9.53562 13.5131C9.52265 13.4874 9.51538 13.4593 9.50558 13.4321H9.28531C8.97675 13.4321 8.80589 13.7898 8.99984 14.0297L9.71449 14.9139C9.85316 15.0853 10.1044 15.0891 10.256 14.9368C10.2543 14.9335 10.252 14.9312 10.2503 14.9277Z" fill="#4B3F4E"/>
<path d="M10 16.1166L8.70557 16.7639V17.4111C8.70557 17.5138 8.72053 17.6124 8.74311 17.7082C9.06877 17.6678 9.3833 17.5735 9.67639 17.4288V17.7347C9.67639 17.9134 9.82127 18.0583 10 18.0583C10.1788 18.0583 10.3237 17.9134 10.3237 17.7347V17.4288C10.6168 17.5735 10.9313 17.6678 11.2569 17.7082C11.2795 17.6124 11.2945 17.5137 11.2945 17.4111V16.7639L10 16.1166Z" fill="#E6646E"/>
<path d="M11.618 17.0875C11.1602 17.0875 10.719 16.9514 10.3425 16.694C10.1408 16.5562 9.85911 16.5562 9.65716 16.694C9.28075 16.9514 8.83958 17.0875 8.3818 17.0875C7.82481 17.0875 7.28833 16.8814 6.87118 16.5074C6.73813 16.3879 6.72708 16.1833 6.84638 16.0502C6.96567 15.9172 7.16985 15.9061 7.30352 16.0254C7.84692 16.5131 8.69739 16.5663 9.292 16.1596C9.71548 15.8704 10.2845 15.8704 10.7077 16.1596C11.3024 16.5661 12.153 16.5127 12.6965 16.0256C12.8293 15.9064 13.0338 15.9172 13.1534 16.0506C13.2727 16.1836 13.2615 16.3882 13.1285 16.5075C12.7113 16.8816 12.175 17.0875 11.618 17.0875Z" fill="#EBAF4B"/>
</svg>
