<svg width="24" height="24" viewBox="0 0 24 24" fill="none" xmlns="http://www.w3.org/2000/svg">
<path d="M16.0277 12.6907C14.9477 11.006 13.1084 10 11.1075 10C9.10666 10 7.26718 11.006 6.18741 12.6907L3.58511 16.7504C3.15335 17.424 2.95413 18.202 3.00888 19.0002C3.06363 19.7985 3.3674 20.5419 3.88724 21.1504C4.40744 21.7587 5.09482 22.1743 5.87503 22.3527C6.65524 22.5308 7.45505 22.4548 8.18784 22.1328L8.23563 22.1115C10.0797 21.3166 12.1874 21.3238 14.0269 22.1328C14.5013 22.3413 15.0039 22.4468 15.5111 22.4468C15.7869 22.4468 16.0643 22.4155 16.3391 22.3528C17.1194 22.1747 17.8067 21.759 18.3271 21.1508C18.8471 20.5425 19.1511 19.7989 19.206 19.0005C19.261 18.202 19.0617 17.424 18.63 16.7502L17.3288 14.7205L16.0277 12.6907ZM9.47849 15.9711C8.81656 16.7449 15.5252 21.2548 14.5932 20.845C13.4854 20.3577 12.2964 20.1142 11.1069 20.1142C9.91855 20.1142 8.72964 20.3575 7.62259 20.8442L7.59109 20.8582C6.66623 21.2493 10.1331 18.2747 9.47849 17.5095C8.81729 16.7355 6 16 5 17.5L6.97849 21.1508H17.4455C18.2654 19.8716 8.95926 16.9711 10.4785 16.9711C11.9977 16.9711 9.15836 15.692 9.97849 16.9711L13.4785 17.9711L9.97849 16.4131C10.528 17.2706 10.14 15.1975 9.47849 15.9711Z" fill="url(#paint0_linear)"/>
<path d="M4.30758 12.7143C5.08175 12.4169 5.66988 11.7931 5.96376 10.9576C6.24318 10.1625 6.22029 9.26494 5.89894 8.42998C5.57741 7.59557 4.99257 6.91442 4.25228 6.51177C3.47426 6.08898 2.61971 6.02013 1.84682 6.31804C0.29189 6.91588 -0.421672 8.83739 0.256367 10.6023C0.797993 12.0071 2.06124 12.8939 3.3384 12.8939C3.66451 12.8939 3.99154 12.836 4.30758 12.7143ZM5.50003 10.6023C5.10049 9.5623 2.16855 9.8197 3.00003 9.5C3.15018 9.44214 3.80294 7 2.82314 7.5443C3.07326 7.5443 2.75137 9.36469 3.00003 9.5C2.50003 9.5 2.29861 9.47723 2.50003 10C2.70126 10.5231 4.80526 10.0109 4.63643 10.4908C4.48171 10.9307 4.18563 11.254 3.80294 11.401C2.97255 11.7211 5.90085 11.6415 5.50003 10.6023Z" fill="url(#paint1_linear)"/>
<path d="M9.35687 9.53375C11.3007 9.53375 12.8822 7.73199 12.8822 5.51733C12.8822 3.30212 11.3007 1.5 9.35687 1.5C7.41321 1.5 5.83191 3.30212 5.83191 5.51733C5.83191 7.73199 7.41321 9.53375 9.35687 9.53375ZM9 5.5C9 4.06061 10.168 5.5 9 5.5C9 6.93884 10.168 4.5 9 4.5C7.83197 4.5 9 6.93884 9 5.5C9 4.06061 7.83197 5.5 9 5.5Z" fill="url(#paint2_linear)"/>
<path d="M15.4451 10.5205C15.7441 10.6198 16.0494 10.6672 16.3531 10.6672C17.7707 10.6672 19.1523 9.63538 19.6794 8.04968C19.983 7.1369 19.9631 6.17175 19.6232 5.33221C19.2676 4.45349 18.6086 3.81555 17.7674 3.53577C16.9262 3.25635 16.016 3.3728 15.2051 3.86389C14.4303 4.33319 13.8367 5.09418 13.5337 6.00696C12.8937 7.93249 13.7512 9.95727 15.4451 10.5205ZM17 7.5C17.1979 6.90399 15.0109 6.79626 15.5 6.5C15 6.5 15.5563 7.90228 16 8.04968C16.4435 8.19726 15.3015 6.50964 15.5 7C13.534 8.46356 16.6983 6.90399 16.5 7.5C16.1046 8.68945 17.9585 6.81842 17 6.5C16.0421 6.1814 16.6046 8.68945 17 7.5Z" fill="url(#paint3_linear)"/>
<path d="M22.8692 10.0518C21.5286 9.06155 19.5233 9.4902 18.3992 11.0085C17.2762 12.5275 17.4518 14.5697 18.7903 15.5607C19.2785 15.9223 19.8552 16.0952 20.4456 16.0952C21.4744 16.0952 22.5449 15.57 23.2603 14.6043C24.3833 13.0853 24.2078 11.0431 22.8692 10.0518ZM21 13C20.3363 13.896 21.8726 10.57 20.5 12.5C19.7845 11.9703 19.8381 13.8954 20.5 13C20.94 12.4057 19.4077 13.7674 20 13.7674C20.2996 13.7674 20.2591 13.3219 20.5 13.5C21.2151 14.0303 21.6614 12.1052 21 13Z" fill="url(#paint4_linear)"/>
<defs>
<linearGradient id="paint0_linear" x1="11.1075" y1="10" x2="11.1075" y2="22.4468" gradientUnits="userSpaceOnUse">
<stop stop-color="#FB8783"/>
<stop offset="1" stop-color="#EE8343"/>
</linearGradient>
<linearGradient id="paint1_linear" x1="3.07892" y1="6.13568" x2="3.07892" y2="12.8939" gradientUnits="userSpaceOnUse">
<stop stop-color="#FB8886"/>
<stop offset="1" stop-color="#EE8343"/>
</linearGradient>
<linearGradient id="paint2_linear" x1="9.35706" y1="1.5" x2="9.35706" y2="9.53375" gradientUnits="userSpaceOnUse">
<stop stop-color="#FB8782"/>
<stop offset="1" stop-color="#EE8344"/>
</linearGradient>
<linearGradient id="paint3_linear" x1="16.6075" y1="3.3869" x2="16.6075" y2="10.6672" gradientUnits="userSpaceOnUse">
<stop stop-color="#FA8781"/>
<stop offset="1" stop-color="#ED8240"/>
</linearGradient>
<linearGradient id="paint4_linear" x1="20.8298" y1="9.51819" x2="20.8298" y2="16.0952" gradientUnits="userSpaceOnUse">
<stop stop-color="#FB8783"/>
<stop offset="1" stop-color="#EE8343"/>
</linearGradient>
</defs>
</svg>
