<svg width="26" height="25" viewBox="0 0 26 25" fill="none" xmlns="http://www.w3.org/2000/svg">
<path d="M9.90569 21.648V18.4534C9.90567 17.6438 10.5903 16.9861 11.4383 16.9811H14.552C15.4038 16.9811 16.0943 17.6402 16.0943 18.4534V21.6388C16.0942 22.3409 16.6877 22.9115 17.4232 22.9166H19.5475C20.5396 22.9191 21.492 22.5446 22.1944 21.8757C22.8969 21.2069 23.2916 20.2987 23.2916 19.3516V10.2769C23.2916 9.51186 22.9364 8.78615 22.3216 8.29531L15.1049 2.78569C13.8434 1.822 12.0416 1.85313 10.8175 2.85977L3.75591 8.29531C3.11212 8.77168 2.72733 9.49954 2.70831 10.2769V19.3423C2.70831 21.3164 4.38464 22.9166 6.4525 22.9166H8.52829C8.88242 22.9191 9.22292 22.7865 9.47424 22.5484C9.72556 22.3102 9.8669 21.9861 9.86689 21.648H9.90569Z" fill="url(#paint0_linear)"/>
<defs>
<linearGradient id="paint0_linear" x1="23.2916" y1="22.9167" x2="23.2916" y2="2.08333" gradientUnits="userSpaceOnUse">
<stop stop-color="#EC823A"/>
<stop offset="1" stop-color="#FC8889"/>
</linearGradient>
</defs>
</svg>
