<svg width="27" height="25" viewBox="0 0 27 25" fill="none" xmlns="http://www.w3.org/2000/svg">
<path d="M10.4135 21.181V18.1143C10.4135 17.3343 11.1156 16.7005 11.9854 16.6952H15.1716C16.0456 16.6952 16.7541 17.3306 16.7541 18.1143V21.1906C16.7539 21.8528 17.3434 22.3941 18.0817 22.4096H20.2059C22.3234 22.4096 24.04 20.8703 24.04 18.9715V10.2475C24.0287 9.50046 23.6375 8.79899 22.9779 8.34267L15.7133 3.09494C14.4406 2.1812 12.6315 2.1812 11.3588 3.09494L4.12604 8.35219C3.4639 8.80666 3.07212 9.5093 3.06396 10.257V18.9715C3.06396 20.8703 4.78055 22.4096 6.89806 22.4096H9.02221C9.77888 22.4096 10.3923 21.8596 10.3923 21.181" stroke="url(#paint0_linear)" stroke-width="1.5" stroke-linecap="round" stroke-linejoin="round"/>
<defs>
<linearGradient id="paint0_linear" x1="24.04" y1="22.4096" x2="24.04" y2="2.40964" gradientUnits="userSpaceOnUse">
<stop stop-color="#ADB4BD"/>
</linearGradient>
</defs>
</svg>
