<svg width="52" height="52" viewBox="0 0 52 52" fill="none" xmlns="http://www.w3.org/2000/svg">
<path d="M3.76388 38.4079C2.87651 37.9642 1.83316 38.0595 1.04024 38.654C0.389445 39.1428 0.0012207 39.9201 0.0012207 40.7329V46.7989C0.0012207 47.0979 0.155471 47.3752 0.40851 47.5338L7.34109 51.8666C7.47888 51.9524 7.63746 51.9984 7.80038 51.9984H25.1318H28.5981H46.7962C46.9305 51.9984 47.0639 51.9672 47.1835 51.9074L50.6498 50.1742C50.8067 50.0962 50.9349 49.9723 51.0198 49.8198C51.11 49.6586 53.1828 45.8353 51.0146 42.0371C49.1853 38.8291 45.8325 38.2285 45.1783 38.141C45.1401 38.1358 45.102 38.1332 45.063 38.1332H35.8895L35.5264 37.7701C35.9935 37.6072 36.4406 37.394 36.8548 37.1358C37.2803 36.8706 37.6417 36.5725 37.9614 36.2631L41.3584 37.2337L41.8342 35.5673L39.1166 34.7908C39.4753 34.1782 39.7007 33.6019 39.8263 33.1842C39.8506 33.1027 39.8636 33.0187 39.8636 32.9338V31.153L41.9381 30.2639L41.2562 28.6711L39.8636 29.2682V28.6009C39.8636 28.444 39.8211 28.2898 39.7397 28.1546L37.1399 23.8218C37.003 23.593 36.7673 23.4405 36.503 23.4075C36.2422 23.3789 35.9744 23.4656 35.7846 23.6554L33.4388 26.0012H32.931V15.0945L34.1563 13.8692H35.2681L37.6495 15.4567C38.0481 15.7228 38.5854 15.6144 38.8514 15.2167L40.5846 12.617C40.7787 12.3258 40.7787 11.9471 40.5846 11.6559L37.1183 6.4565C36.9571 6.21473 36.6867 6.07001 36.3973 6.07001H33.7976C33.4691 6.07001 33.1693 6.25545 33.022 6.54922L31.5289 9.5363H22.2011L20.7071 6.54922C20.5607 6.25545 20.2608 6.07001 19.9324 6.07001H16.4661C16.1862 6.07001 15.9236 6.20519 15.7616 6.4331L11.4287 12.4991C11.1826 12.8431 11.2216 13.3154 11.5206 13.6153L13.2537 15.3484C13.5458 15.6413 14.0033 15.6846 14.3473 15.4567L16.7287 13.8692H18.7071L19.0658 14.2279V23.6476C16.7781 24.4786 10.5318 27.3296 7.8567 34.3593C6.27867 38.5067 6.62877 42.3785 7.21024 44.915L5.20066 43.7087V40.7329C5.20066 39.7416 4.64952 38.8507 3.76388 38.4079ZM33.7976 27.7343C34.0281 27.7343 34.2482 27.6433 34.4102 27.4804L36.2257 25.6658L38.1304 28.8409V30.0108L35.1893 31.2708L35.8713 32.8636L38.1304 31.8956V32.8012C38.0004 33.2007 37.7673 33.7449 37.38 34.2943L35.769 33.8341L35.2933 35.5006L35.9155 35.6782C35.2543 36.0846 34.5159 36.3299 33.7178 36.4044C33.3833 36.4356 33.0965 36.6574 32.983 36.9729C32.8686 37.2892 32.9475 37.6419 33.1849 37.8793L34.918 39.6124C35.0801 39.7754 35.3002 39.8663 35.5307 39.8663H45.0015C45.4972 39.9417 48.1168 40.4521 49.5103 42.8959C50.9366 45.3959 49.9617 47.9896 49.6143 48.7539L46.5916 50.2652H38.7544L38.1304 48.3917V46.1949L39.2396 44.5311C39.3774 44.3231 39.6097 44.1992 39.8584 44.1992C40.2327 44.1992 40.4251 44.4462 40.4901 44.5519C40.556 44.6585 40.6903 44.941 40.523 45.2746L39.9546 46.4116C39.7882 46.7452 39.8532 47.1482 40.1175 47.4116L40.9841 48.2782C41.1461 48.4411 41.3662 48.5321 41.5967 48.5321H45.9296V46.7989H41.9555L41.7848 46.6282L42.0742 46.0502C42.4607 45.2772 42.4191 44.376 41.965 43.6411C41.5109 42.9063 40.7223 42.4661 39.8584 42.4661C39.0291 42.4661 38.2587 42.8786 37.7977 43.5683L36.5429 45.4514C36.4484 45.5944 36.3973 45.7616 36.3973 45.9324V48.5321C36.3973 48.6248 36.4129 48.7175 36.4423 48.8059L36.9285 50.2652H33.7976V44.1992H32.0644V50.2652H29.4647V44.1966V37.2666C29.4647 36.8195 29.1241 36.4451 28.6787 36.4035C28.0444 36.3446 27.449 36.1747 26.8988 35.9044L28.0366 35.478L27.4274 33.8549L25.2956 34.6548C24.7332 33.991 24.4238 33.2891 24.2653 32.8012V32.5187V31.8947L26.5235 32.8627L27.2055 31.2699L24.2653 30.0108V28.8409L26.17 25.6658L27.9855 27.4804C28.1475 27.6433 28.3676 27.7343 28.5981 27.7343H32.0644H33.7976ZM8.22066 47.5416C8.53523 47.7305 8.93559 47.701 9.21896 47.4662C9.50146 47.2313 9.60631 46.8449 9.47979 46.5C8.8316 44.7356 7.53347 40.0804 9.47633 34.9745C9.60371 34.6392 9.74843 34.3237 9.89315 34.0092L9.89488 34.01C12.8126 27.6693 18.9818 25.4708 20.1898 25.0947C20.5529 24.983 20.799 24.6476 20.799 24.268V13.8692C20.799 13.6395 20.708 13.4185 20.5451 13.2565L19.6785 12.3899C19.5164 12.227 19.2963 12.136 19.0658 12.136H16.4661C16.2954 12.136 16.1273 12.1871 15.9852 12.2816L13.9764 13.6205L13.265 12.909L16.9124 7.80315H19.3969L20.8908 10.7902C21.0373 11.084 21.3371 11.2694 21.6655 11.2694H32.0644C32.3928 11.2694 32.6927 11.084 32.84 10.7902L34.3331 7.80315H35.9337L38.8219 12.136L37.8904 13.5338L36.0117 12.2816C35.8695 12.1871 35.7014 12.136 35.5307 12.136H33.7976C33.5671 12.136 33.3469 12.227 33.1849 12.3899L31.4517 14.1231C31.2888 14.2851 31.1978 14.5061 31.1978 14.7357V26.0012H28.9569L26.6111 23.6554C26.4222 23.4656 26.1561 23.3763 25.8927 23.4075C25.6275 23.4405 25.3927 23.593 25.2558 23.8218L22.656 28.1546C22.5746 28.2898 22.5321 28.444 22.5321 28.6009V29.2682L21.1404 28.672L20.4584 30.2647L22.5321 31.153V32.5195V32.9338C22.5321 33.0187 22.5451 33.1027 22.5694 33.1842C22.7288 33.7145 23.0434 34.4962 23.6023 35.29L20.4948 36.4555L21.104 38.0786L24.8771 36.6635C25.0816 36.8281 25.3025 36.9867 25.5417 37.1358C26.2064 37.55 26.9516 37.8464 27.7324 38.011V43.3274L22.6006 43.311L22.5954 45.0441L27.7315 45.0606V50.2652H25.9984C25.9984 48.3536 24.4438 46.7989 22.5321 46.7989H20.799C20.799 42.499 17.3006 38.9998 12.9998 38.9998H12.1332V40.7329H12.9998C16.3439 40.7329 19.0658 43.454 19.0658 46.7989V47.6655C19.0658 48.1438 19.4532 48.5321 19.9324 48.5321H22.5321C23.4879 48.5321 24.2653 49.3094 24.2653 50.2652H8.04908L1.73437 46.3188V40.7329C1.73437 40.4617 1.86349 40.2026 2.08013 40.0397C2.34877 39.8386 2.6876 39.8074 2.9883 39.9582C3.28813 40.1081 3.46751 40.3976 3.46751 40.7329V44.1992C3.46751 44.5034 3.62783 44.7859 3.8878 44.9419L8.22066 47.5416Z" fill="#EC823A"/>
<path d="M24.2651 14.7357H22.532V16.4689H24.2651V14.7357Z" fill="#EC823A"/>
<path d="M29.4646 14.7357H27.7314V16.4689H29.4646V14.7357Z" fill="#EC823A"/>
<path d="M27.7314 18.202H24.2651V19.9352H27.7314V18.202Z" fill="#EC823A"/>
<path d="M29.4646 29.4675H27.7314V31.2006H29.4646V29.4675Z" fill="#EC823A"/>
<path d="M34.6641 29.4675H32.9309V31.2006H34.6641V29.4675Z" fill="#EC823A"/>
<path d="M32.0644 32.0672H30.3313V33.8003H32.0644V32.0672Z" fill="#EC823A"/>
</svg>
