<svg width="51" height="52" viewBox="0 0 51 52" fill="none" xmlns="http://www.w3.org/2000/svg">
<g clip-path="url(#clip0)">
<path d="M21 9.17651H39V15.2942H21V9.17651Z" fill="black"/>
<path d="M12 0V48.9412C12 50.0551 11.7051 51.0995 11.1928 52H40.85C44.7925 52 48 48.7296 48 44.7098V0H12ZM18 21.4118H21V24.4706H18V21.4118ZM18 27.5294H21V30.5882H18V27.5294ZM30 42.8235H18V39.7647H30V42.8235ZM30 36.7059H18V33.6471H30V36.7059ZM42 42.8235H33V39.7647H42V42.8235ZM42 36.7059H33V33.6471H42V36.7059ZM42 30.5882H24V27.5294H42V30.5882ZM42 24.4706H24V21.4118H42V24.4706ZM42 18.3529H18V6.11765H42V18.3529Z" fill="black"/>
<path d="M3 48.9412C3 50.6305 4.3432 52 6 52C7.6568 52 9 50.6305 9 48.9412V13.7647H3V48.9412Z" fill="black"/>
</g>
<defs>
<clipPath id="clip0">
<rect width="51" height="52" fill="white"/>
</clipPath>
</defs>
</svg>
