<svg width="20" height="20" viewBox="0 0 20 20" fill="none" xmlns="http://www.w3.org/2000/svg">
<path d="M17.0968 1.77418H13.871C12.7016 2.23789 12.4424 1.4516 10 1.4516C7.55764 1.4516 7.29842 2.23789 6.12904 1.77418H2.90326L2.47314 9.87906C2.74197 13.0645 4.71775 14.7984 6.27693 15.4301H13.7231C15.2823 14.7984 17.2581 13.0645 17.5269 9.87906L17.0968 1.77418Z" fill="#F5DCB4"/>
<path d="M13.871 1.77418C17.503 2.86133 15.5258 8.46774 17.8645 10.8911C18.2002 11.239 18.7934 11.0845 18.9335 10.6218C19.1187 10.0104 19.3036 9.04325 19.2742 7.66129C19.2339 5.76614 20 5.6452 20 5.6452C20 5.6452 19.0323 1.12903 16.129 1.12903C15.1613 1.12903 13.871 1.77418 13.871 1.77418Z" fill="#965A50"/>
<path d="M6.61291 10.1613C5.99193 10.1613 5.48389 9.65321 5.48389 9.03224V8.38708C5.48389 7.7661 5.99193 7.25806 6.61291 7.25806C7.23389 7.25806 7.74193 7.7661 7.74193 8.38708V9.03224C7.74197 9.65325 7.23389 10.1613 6.61291 10.1613Z" fill="#4B3F4E"/>
<path d="M6.61295 7.25806C6.55775 7.25806 6.50479 7.26669 6.45166 7.27442V8.87095C6.45166 9.22724 6.74053 9.5161 7.09682 9.5161C7.45315 9.5161 7.74197 9.22724 7.74197 8.87095V8.38712C7.74201 7.76618 7.23393 7.25806 6.61295 7.25806Z" fill="#5D5360"/>
<path d="M6.6129 8.54836C6.88013 8.54836 7.09676 8.33173 7.09676 8.06449C7.09676 7.79726 6.88013 7.58063 6.6129 7.58063C6.34566 7.58063 6.12903 7.79726 6.12903 8.06449C6.12903 8.33173 6.34566 8.54836 6.6129 8.54836Z" fill="white"/>
<path d="M13.3871 10.1613C12.7661 10.1613 12.2581 9.65321 12.2581 9.03224V8.38708C12.2581 7.7661 12.7661 7.25806 13.3871 7.25806C14.0081 7.25806 14.5161 7.7661 14.5161 8.38708V9.03224C14.5161 9.65325 14.008 10.1613 13.3871 10.1613Z" fill="#4B3F4E"/>
<path d="M13.3871 7.25806C13.3319 7.25806 13.279 7.26669 13.2258 7.27442V8.87095C13.2258 9.22724 13.5147 9.5161 13.871 9.5161C14.2273 9.5161 14.5161 9.22724 14.5161 8.87095V8.38712C14.5161 7.76618 14.0081 7.25806 13.3871 7.25806Z" fill="#5D5360"/>
<path d="M13.3872 8.54836C13.6544 8.54836 13.8711 8.33173 13.8711 8.06449C13.8711 7.79726 13.6544 7.58063 13.3872 7.58063C13.12 7.58063 12.9033 7.79726 12.9033 8.06449C12.9033 8.33173 13.12 8.54836 13.3872 8.54836Z" fill="white"/>
<path d="M17.8644 10.8912C18.2002 11.2391 18.7934 11.0845 18.9335 10.6218C19.0397 10.2712 19.1444 9.79916 19.2101 9.20334C18.5759 8.88724 18.0346 7.87873 17.7016 6.16939C17.0968 3.06455 16.25 1.33068 13.871 1.7742C17.503 2.86135 15.5258 8.46779 17.8644 10.8912Z" fill="#824641"/>
<path d="M6.27693 15.4301H7.80588C7.80588 15.4301 5.12104 13.6291 4.67748 10.4436C3.81463 4.24657 5.45705 2.39247 6.87764 1.91935C6.6526 1.92697 6.41885 1.88911 6.12908 1.77423H2.90326L2.47314 9.87908C2.74197 13.0645 4.71775 14.7984 6.27693 15.4301Z" fill="#E7C9A5"/>
<path d="M6.12902 1.77418C2.49695 2.86133 4.47426 8.46778 2.13555 10.8911C1.7998 11.239 1.2066 11.0845 1.06648 10.6218C0.881328 10.0104 0.696406 9.04325 0.72582 7.66129C0.766133 5.76614 0 5.6452 0 5.6452C0 5.6452 0.967734 1.12903 3.87098 1.12903C4.83871 1.12903 6.12902 1.77418 6.12902 1.77418Z" fill="#965A50"/>
<path d="M6.02106 1.72282C5.69371 1.57094 4.67277 1.12903 3.87098 1.12903C0.967734 1.12903 0 5.6452 0 5.6452C0 5.6452 0.766133 5.76618 0.72582 7.66133C0.725273 7.68665 0.726016 7.70942 0.725625 7.73446C2.58191 0.691997 5.43434 1.47551 6.02106 1.72282Z" fill="#824641"/>
<path d="M9.99997 18.2258C11.9597 18.2258 13.5484 17.0704 13.5484 15.6453C13.5484 14.2201 11.9597 13.0648 9.99997 13.0648C8.04023 13.0648 6.45154 14.2201 6.45154 15.6453C6.45154 17.0704 8.04023 18.2258 9.99997 18.2258Z" fill="#BC8E78"/>
<path d="M8.38708 15.6451V17.258C8.38708 18.1488 9.10919 18.8709 9.99997 18.8709C10.8908 18.8709 11.6129 18.1488 11.6129 17.258V15.6451H8.38708Z" fill="#FF8087"/>
<path d="M8.38708 16.905C8.85353 16.8466 9.29365 16.7047 9.6774 16.4901V16.9355C9.6774 17.1136 9.82185 17.2581 9.99997 17.2581C10.1781 17.2581 10.3226 17.1136 10.3226 16.9355V16.486C10.7026 16.7029 11.1439 16.8464 11.6129 16.9051V15.6451H8.38708V16.905Z" fill="#E6646E"/>
<path d="M12.0967 12.7419H7.90322C6.56705 12.7419 5.48389 13.5363 5.48389 14.5161C5.48389 15.496 6.56709 16.2903 7.90322 16.2903C8.57608 16.2903 9.18377 16.0884 9.62178 15.763C9.73268 15.6807 9.86639 15.6395 9.99986 15.6395C10.1336 15.6395 10.2673 15.6807 10.3782 15.763C10.8162 16.0884 11.4239 16.2903 12.0967 16.2903C13.4329 16.2903 14.5161 15.496 14.5161 14.5161C14.5161 13.5363 13.4329 12.7419 12.0967 12.7419Z" fill="#D4AF91"/>
<path d="M10 11.4516C11.0689 11.4516 11.9355 12.0293 11.9355 12.7419C11.9355 13.4292 11.122 13.7911 10.535 14.0586C10.1946 14.2137 9.80527 14.2137 9.46496 14.0586C8.87789 13.7911 8.06445 13.4292 8.06445 12.7419C8.06453 12.0293 8.93105 11.4516 10 11.4516Z" fill="#5D5360"/>
<path d="M9.02223 12.3891C8.97711 11.9831 9.26309 11.549 9.26309 11.549C8.55985 11.7423 8.06458 12.2033 8.06458 12.7419C8.06458 13.4291 8.87801 13.791 9.46508 14.0586C9.80536 14.2137 10.1948 14.2137 10.5351 14.0586C10.6613 14.0011 10.7981 13.9387 10.9349 13.8702C10.1412 13.7298 9.11293 13.2056 9.02223 12.3891Z" fill="#4B3F4E"/>
</svg>
