<?xml version="1.0" encoding="utf-8"?>
<!-- Generator: Adobe Illustrator 24.0.2, SVG Export Plug-In . SVG Version: 6.00 Build 0)  -->
<svg version="1.1" id="Layer_1" xmlns="http://www.w3.org/2000/svg" xmlns:xlink="http://www.w3.org/1999/xlink" x="0px" y="0px"
	 viewBox="0 0 2647.8 2750.73" style="enable-background:new 0 0 2647.8 2750.73;" xml:space="preserve">
<style type="text/css">
	.st0{fill:#FFFFFF;}
	.st1{fill:#FF9331;}
	.st2{opacity:0.6;}
	.st3{fill:#F2D4D4;}
	.st4{fill:#000072;}
	.st5{fill:#42F4D2;}
	.st6{fill:#FFB012;}
	.st7{opacity:0.2;}
	.st8{fill:#AE531E;}
	.st9{fill:#FF48A0;}
	.st10{fill:#D5B3F5;}
	.st11{fill:#FF0068;}
	.st12{fill:#FA509C;}
</style>
<g>
	<g>
		<rect x="-671.1" y="-722.54" class="st0" width="4000" height="4000"/>
	</g>
	<g>
		<g>
			<path class="st1" d="M2647.8,1322.86c0,226.71-56.97,440.08-157.42,626.63c-192.5,357.65-544.68,616.58-961.13,681.42
				c0,0,0,0-0.05,0c-66.92,10.44-135.48,15.85-205.3,15.85c-47.74,0-94.9-2.51-141.28-7.49
				c-396.4-42.04-740.56-258.98-953.79-572.22C84.41,1854.93,0,1598.75,0,1322.86C0,591.67,592.71-1.04,1323.9-1.04
				S2647.8,591.67,2647.8,1322.86z"/>
		</g>
		<g>
			<g>
				<path class="st1" d="M2539.47,1843.5c-51.36,114.13-139.35,250.57-194.62,317.45c-126.4,152.97-286.47,277.1-468.97,360.93
					c-2.8,1.35-5.6,2.61-8.41,3.87c-0.87,0.39-1.69,0.77-2.56,1.11c-83.93,37.69-172.44,66.87-264.59,86.39
					c-6.18,1.35-12.47,2.61-18.7,3.87c-7.15,1.4-14.25,2.75-21.45,4.06c-10.2,1.84-20.49,3.53-30.78,5.17c0,0,0,0-0.05,0
					c-4.3-0.24-208.64-11.93-294.74-131.47c-18.89-26.28-33.97-68.76-42.13-121.81c-25.13-163.07,14.59-425.87,205.78-624.02
					c32.61-33.82,69.67-65.71,111.56-94.94l647.41-111.32c0,0,58.13,2.61,130.17,43.39
					C2374.47,1635.4,2450.81,1667.19,2539.47,1843.5z"/>
			</g>
			<g class="st2">
				<path class="st0" d="M2539.43,1841.55c-3.67,8.21-7.59,16.52-11.64,24.93c-77.11-131.62-146.31-161.67-224.1-205.69
					c-72.04-40.73-130.17-43.34-130.17-43.34l-647.41,111.32c-41.89,29.23-78.95,61.12-111.56,94.94
					c-185.88,192.64-228.59,446.45-207.67,610.25c-47.74-150.12-26.91-460.66,191.39-686.88c32.61-33.82,69.67-65.71,111.57-94.94
					l647.41-111.32c0,0,58.13,2.61,130.12,43.34C2374.48,1633.44,2450.82,1665.24,2539.43,1841.55z"/>
			</g>
			<g>
				<path class="st3" d="M2344.85,2160.95c-190.66,230.81-458.1,395.91-763.22,456.17c-24.35-62.38-37.88-131.62-37.88-204.53
					c0-274.88,192.55-497.67,430.03-497.67C2131.91,1914.92,2270.15,2013.73,2344.85,2160.95z"/>
			</g>
			<g>
				<path class="st4" d="M1529.39,2645.67c-0.36,0-0.77-0.01-1.13-0.03c-8.89-0.5-218.73-13.68-309.33-139.47
					c-45.24-62.82-63.55-194.81-45.56-328.45c22.53-167.43,97.46-324.44,210.99-442.1c34.3-35.57,72.8-68.33,114.41-97.37
					c2.33-1.62,4.99-2.72,7.79-3.2l647.41-111.32c2.68-0.46,5.44-0.35,8.08,0.33c2.04,0.52,50.81,13.16,128.31,42.5
					c73.71,27.91,179.76,97.09,266.35,268.22c2.42,4.78,2.75,10.36,0.9,15.39c-38.19,103.97-138.69,251.53-197.86,323.1
					c-197.25,238.79-472.26,403.15-774.37,462.81c-16.98,3.37-34.32,6.43-52.98,9.36C1531.4,2645.59,1530.4,2645.67,1529.39,2645.67
					z M1517.38,1672.41c-38.22,26.99-73.6,57.27-105.21,90.05c-107.85,111.78-179.06,261.09-200.5,420.42
					c-19.25,143.02,6.53,256.13,38.62,300.7c76.61,106.36,256.16,121.84,278.18,123.34c17.36-2.75,33.54-5.62,49.39-8.76
					c293.4-57.94,560.49-217.58,752.08-449.52c54.31-65.7,149.97-205.63,188.4-303.96c-80.21-154.53-175.43-216.89-241.68-241.97
					c-63.15-23.91-107.41-36.61-120.35-40.17L1517.38,1672.41z"/>
			</g>
			<g>
				<path class="st5" d="M2283.51,1607.36c-83.51,124.29-288.72,242.27-503.01,242.33c-149.35,0.04-282.48-23.3-382.23-100.63
					c32.61-33.83,69.66-65.73,111.54-94.97l647.43-111.29C2157.24,1542.79,2215.47,1560.32,2283.51,1607.36z"/>
			</g>
			<g>
				<path class="st4" d="M1739.95,1870.41c-130.31,0-268.02-40.61-353.43-106.01c-4.37-3.35-7.11-8.4-7.52-13.89
					c-0.41-5.49,1.54-10.9,5.36-14.86c34.29-35.58,72.78-68.35,114.39-97.4c2.33-1.63,4.99-2.72,7.79-3.2l647.43-111.29
					c0.77-0.13,1.54-0.22,2.32-0.26c3-0.15,74.32-3.07,146.93,47.13c8.37,5.79,10.82,17.07,5.6,25.81
					c-93.34,156.3-285.41,255.64-526.96,272.55C1768.03,1869.94,1754.02,1870.41,1739.95,1870.41z M1428.07,1746.51
					c76.9,50.66,209.18,93.84,351.08,83.9c220.3-15.42,396.26-101.78,486.46-237.9c-51.83-30.04-99.09-30.55-106.43-30.44
					l-641.81,110.33C1485.43,1694.96,1455.49,1719.82,1428.07,1746.51z"/>
			</g>
			<g>
				
					<ellipse transform="matrix(0.7071 -0.7071 0.7071 0.7071 -796.8316 1877.1229)" class="st6" cx="1867.47" cy="1900.42" rx="86.97" ry="86.97"/>
			</g>
			<g class="st2">
				<path class="st0" d="M1954.42,1897.33c-14.4-28.27-43.73-47.64-77.6-47.64c-48.03,0-86.97,38.94-86.97,86.97
					c0,1.01,0,2.03,0.05,3.04c-5.99-11.79-9.37-25.13-9.37-39.28c0-48.03,38.94-86.97,86.97-86.97
					C1914.51,1813.45,1952.78,1850.75,1954.42,1897.33z"/>
			</g>
			<g class="st7">
				<path class="st4" d="M1954.44,1900.42c0,48.03-38.94,86.97-86.97,86.97c-48.08,0-86.97-38.94-86.97-86.97
					c0-4.69,0.39-9.28,1.11-13.77c14.93,26.38,43.24,44.16,75.71,44.16c43.34,0,79.29-31.7,85.86-73.2
					C1950.39,1870.22,1954.44,1884.86,1954.44,1900.42z"/>
			</g>
			<g>
				<path class="st4" d="M1867.47,2006.72c-58.61,0-106.3-47.68-106.3-106.3s47.69-106.3,106.3-106.3s106.3,47.69,106.3,106.3
					S1926.09,2006.72,1867.47,2006.72z M1867.47,1832.78c-37.3,0-67.64,30.35-67.64,67.65c0,37.3,30.34,67.64,67.64,67.64
					s67.64-30.35,67.64-67.64C1935.12,1863.12,1904.77,1832.78,1867.47,1832.78z"/>
			</g>
			<g>
				<path class="st1" d="M1839.45,2686.26c-70.83,69.34-217.91,60.06-279.28-65.08c-10.53-21.5-18.55-46.38-23.14-74.94
					c-0.05-0.05-0.05-0.1-0.05-0.1c-1.21-7.25-2.17-14.69-2.9-22.42l-178.77-101.47c0,0,8.36-2.66,23-6.57
					c88.76-23.72,408.23-93.93,485.64,100.5c1.26,3.09,2.42,6.28,3.53,9.52v0.05C1891.58,2596.1,1875.25,2651.23,1839.45,2686.26z"
					/>
			</g>
			<g class="st7">
				<path class="st4" d="M1560.17,2621.17c-10.2,1.84-20.49,3.53-30.78,5.17c0,0,0,0-0.05,0c-4.3-0.24-208.64-11.93-294.74-131.47
					c-18.89-26.28-33.97-68.76-42.13-121.81c0.58-3.14,1.3-6.09,2.22-8.79c0,0,83.54,208.39,342.28,181.87c0,0,0,0.05,0.05,0.1
					c1.35,1.93,24.64,35.56,63.3,67.02c38.9,31.65,93.3,61.02,156.5,53.68c105.96-12.27,109.87-107.7,108.09-140.07
					c-0.34-6.67-0.97-10.68-0.97-10.68l11.93,5.7c-2.8,1.35-5.6,2.61-8.41,3.87C1939.27,2735.3,1652.56,2809.61,1560.17,2621.17z"/>
			</g>
			<g class="st2">
				<path class="st0" d="M1839.45,2686.26c35.42-110.94-7.18-185.52-91.39-229.84c-138.73-73.01-369.75-40.74-369.75-40.74
					c88.76-23.72,408.23-93.93,485.64,100.5c1.26,3.09,2.42,6.28,3.53,9.52v0.05C1891.58,2596.1,1875.25,2651.23,1839.45,2686.26z"
					/>
			</g>
			<g>
				<path class="st4" d="M1354.41,2419.43c22.51-11.32,45.94-19.99,69.76-27.65c11.93-3.73,23.94-7.3,36.1-10.27
					c12.14-3.11,24.37-5.91,36.7-8.28c24.66-4.78,49.7-8.05,74.98-9.57c25.28-1.42,50.79-0.76,76.26,1.64
					c25.46,2.6,50.97,6.56,76.14,13.4c25.13,6.79,50.03,16.39,72.93,30.48c22.87,13.98,43.73,32.38,59.72,54.51
					c15.94,22.1,27.4,47.27,33.78,73.04c6.75,25.78,9.69,53.58,4.99,81.27c-4.4,27.63-16.89,54.55-35.7,75.82
					c-18.72,21.45-43.4,36.6-69.43,45.93c-26.15,9.35-54.1,12.56-81.52,10.3c-27.39-2.47-54.39-10.42-78.44-23.88
					c-24.08-13.35-45.23-31.79-61.55-53.46c-16.39-21.58-28.92-45.78-35.6-71.31c-1.42-6.44-2.78-12.86-3.94-19.28
					c-0.92-6.46-1.18-13.02-1.56-19.48l-0.33-9.69c0.23-3.26,0.43-6.49,0.76-9.73c0.65-6.47,1.41-12.87,2.67-19.22
					c0.33-1.67,1.96-2.76,3.63-2.43c0.99,0.2,1.78,0.85,2.19,1.7l0.08,0.17c10.97,23.35,18.33,45.75,28.73,66.5
					c10.12,20.64,20.6,40.56,34.88,57.51c14.22,16.87,31.25,31.04,50.47,41.13c19.2,10.06,40.31,16.51,61.92,18.36
					c21.56,2.09,43.53-0.33,63.88-6.99c20.26-6.75,39.14-17.78,53.18-33.22c14.08-15.36,23.47-34.55,27.18-55.39
					c3.68-20.87,1.78-43.1-3.87-64.77c-5.41-22-14.86-42.33-27.65-60.15c-12.87-17.79-29.58-32.6-48.62-44.27
					c-38.32-23.3-85.08-34.13-132.05-36.77c-23.59-1.3-47.36-1.08-71.22-0.17c-23.87,0.74-47.85,2.19-71.92,4.13
					c-48.19,3.67-96.58,9.78-145.74,15.73l-0.08,0.01c-1.64,0.2-3.14-0.97-3.34-2.62
					C1352.63,2421.18,1353.32,2419.98,1354.41,2419.43z"/>
			</g>
			<g>
				<path class="st1" d="M2418.48,2063.93c-8.26,13.92-32.47,51.8-75.71,99.58c0,0,80.35,297.39-117.75,336.05
					c-28.65,5.6-53.29,1.69-74.02-9.37c-75.09-39.91-98.37-173.75-73.39-289.62c2.51-11.6,5.51-23.05,8.99-34.21c0-0.05,0-0.1,0-0.1
					l0.05-0.1c18.36-58.85,50.15-109.49,94.9-135.29c112.72-65.04,216.56,8.6,236.76,24.45c2.32,1.79,3.53,2.85,3.53,2.85
					S2420.76,2060.16,2418.48,2063.93z"/>
			</g>
			<g class="st2">
				<path class="st0" d="M2421.82,2058.18c0,0-1.06,1.98-3.33,5.75c-48.27-11.6-143.16-49.62-215.35-0.81
					c-70.77,47.84-163.12,268.15-52.13,427.07c-75.09-39.91-98.37-173.75-73.39-289.62c2.51-11.6,5.51-23.05,8.99-34.21
					c0-0.05,0-0.1,0-0.1l0.05-0.1c18.36-58.85,50.15-109.49,94.9-135.29c112.72-65.04,216.56,8.6,236.76,24.45
					C2420.61,2057.12,2421.82,2058.18,2421.82,2058.18z"/>
			</g>
			<g class="st7">
				<path class="st4" d="M2342.77,2163.51c0,0,80.35,297.39-117.75,336.05c-132.58,25.85-179.26-151.19-147.42-298.99l8.99-34.11
					c-2.27,9.95-66.24,296.67,108.76,266.81c178.05-30.39,118.04-325.76,118.04-325.76c26.04,1.21,71.12-27.49,104.9-52.18
					c2.32,1.79,3.53,2.85,3.53,2.85S2397.66,2102.87,2342.77,2163.51z"/>
			</g>
			<g>
				<path class="st4" d="M2199.9,2521.41c-58.42,0-105.22-37.33-130.85-105.82c-47.68-127.45-12.45-334.95,102.82-401.45
					c135.99-78.46,261.39,28.38,262.64,29.47c6.82,5.94,8.62,15.82,4.31,23.77c-0.99,1.83-23.86,43.69-74.87,101.41
					c9.13,39.54,36.07,181.27-21.36,273.46c-25.43,40.83-63.75,66.49-113.88,76.27C2218.85,2520.46,2209.22,2521.41,2199.9,2521.41z
					 M2278.23,2023.7c-27.12,0-56.71,6.42-87.04,23.92c-95.11,54.87-127.28,243.91-85.94,354.43
					c16.1,43.02,49.29,91.57,116.06,78.54c39.73-7.75,68.66-26.98,88.47-58.77c57.05-91.59,14.74-251.67,14.31-253.27
					c-1.72-6.35-0.08-13.14,4.33-18.02c34.66-38.28,56.79-70.15,67.88-87.48C2375.53,2048.69,2331.7,2023.7,2278.23,2023.7z"/>
			</g>
			<g>
				<path class="st4" d="M2322.82,2172.77c-0.94-7.19-2.23-14.83-3.54-22.26c-1.34-7.47-2.78-14.95-4.41-22.38
					c-3.28-14.88-6.97-29.66-12.55-44.1c11.01,10.96,20.8,23.44,30.14,36.1c4.68,6.35,9.18,12.82,13.63,19.36
					c4.45,6.6,8.74,13.05,13.05,20.08l0.18,0.3c5.72,9.32,2.8,21.51-6.52,27.23c-9.32,5.72-21.51,2.8-27.23-6.52
					C2324.09,2178.14,2323.18,2175.42,2322.82,2172.77z"/>
			</g>
			<g>
				<path class="st8" d="M2553.73,1086.51c0,3.87-0.05,7.83-0.15,11.84c-4.83,188.44-169.11,289.91-285.07,314.06l-391.37-816.57
					v-14.5c26.14-33.29,73.15-55.71,123.45-64.26c51.94-8.89,107.41-3.04,147.13,20.78c96.64,57.98,101.47,164.28,183.61,217.43
					C2388.72,792.41,2552.52,885.56,2553.73,1086.51z"/>
			</g>
			<g class="st2">
				<path class="st0" d="M2553.73,1090.45c0,3.87-0.05,7.83-0.15,11.84c-3.24,126.5-78.32,213.81-162.44,264.83
					c68.37-52.67,123.45-132.05,126.21-239.99c0.1-4.01,0.15-7.97,0.15-11.84c-1.21-200.95-165-294.11-222.41-331.22
					c-82.14-53.15-86.97-159.45-183.61-217.43c-39.72-23.82-95.19-29.67-147.13-20.78c-25.85,4.4-50.83,12.47-72.52,23.77
					c27.15-24.69,66.82-41.46,108.76-48.61c51.94-8.89,107.41-3.04,147.13,20.78c96.64,57.98,101.47,164.28,183.61,217.43
					C2388.72,796.34,2552.52,889.5,2553.73,1090.45z"/>
			</g>
			<g class="st7">
				<path class="st4" d="M2553.73,1086.51c0,3.87-0.05,7.83-0.15,11.84c-4.83,188.44-169.11,289.91-285.07,314.06l-391.37-816.57
					v-14.5c26.14-33.29,73.15-55.71,123.45-64.26c33.92,18.8,65.42,41.26,93.06,64.41c80.4,67.31,132.63,161.53,199.6,242.22
					c28.85,34.69,60.74,67.35,83.2,106.44c26.28,45.76,40.34,101.13,81.56,134.08C2484.53,1085.45,2520.48,1092.6,2553.73,1086.51z"
					/>
			</g>
			<g>
				<path class="st8" d="M1434.6,664.27l-76.1,902.33c-47.06,7.44-105.91,5.99-164.04-9.76c-86.39-23.43-171.29-78.42-213.95-182.69
					c-79.24-193.61,44.79-343.44,86.05-399.63c57.93-78.81,24.69-179.93,94.46-268.4c45.76-58.08,145.39-87.6,220.71-72.96
					c17.54,3.38,33.77,9.18,47.69,17.59L1434.6,664.27z"/>
			</g>
			<g class="st7">
				<path class="st4" d="M1434.6,664.27l-76.1,902.33c-47.06,7.44-105.91,5.99-164.04-9.76c-30.1-24.93-55.57-55.71-74.65-89.82
					c-40.73-72.81-53.63-159.35-44.4-242.31c6.76-60.93,24.84-119.97,42.81-178.58c8.94-29.09,17.88-58.17,26.82-87.26
					c10.97-35.8,21.98-71.65,33-107.46c8.6-28.02,17.3-56.29,31.36-82.04c25.56-46.77,67.69-82.77,114.22-108.81
					c18.75-10.44,38.22-19.42,58.13-27.4c17.54,3.38,33.77,9.18,47.69,17.59L1434.6,664.27z"/>
			</g>
			<g class="st2">
				<path class="st0" d="M1434.58,659.75l-0.82,10c-76.63-25.51-191.58,3.82-241.78,67.5c-69.77,88.47-36.58,189.6-94.51,268.4
					c-41.26,56.19-165.25,206.03-86.01,399.63c10.05,24.55,22.47,46.39,36.67,65.71c-27.44-26.86-50.83-60.3-67.64-101.42
					c-79.19-193.56,44.79-343.44,86.05-399.59c57.93-78.85,24.74-179.93,94.51-268.45c56.44-71.61,194.67-99.73,268.4-55.37
					L1434.58,659.75z"/>
			</g>
			<g>
				<path class="st4" d="M2268.5,1431.74c-7.32,0-14.16-4.17-17.42-10.97L1859.71,604.2c-2.44-5.1-2.45-10.74-0.49-15.6
					c-2.51-6.21-1.71-13.55,2.72-19.19c59.66-75.93,208.9-100.21,295.72-48.12c55.07,33.04,82.99,81.16,107.62,123.62
					c21.32,36.75,41.47,71.46,76.54,94.16c2.97,1.92,6.23,4,9.74,6.23c67.84,43.17,226.7,144.27,221.34,353.54
					c-2.29,89.34-39.31,169.68-107.06,232.33c-53.11,49.11-123.6,85.62-193.39,100.16
					C2271.13,1431.61,2269.81,1431.74,2268.5,1431.74z M1895.5,589.46l383.71,800.58c93.88-24.65,250.42-111.53,255.05-292.18
					c4.8-187.41-141.13-280.28-203.45-319.94c-3.6-2.29-6.94-4.42-9.99-6.39c-42.86-27.73-66.3-68.13-88.97-107.21
					c-24.46-42.15-47.56-81.96-94.08-109.87C2069.65,513.57,1945.21,532.16,1895.5,589.46z"/>
			</g>
			<g>
				<path class="st4" d="M1300.84,1590.34c-52.97,0-107.37-10.18-155.68-29.67c-85.57-34.53-148.7-96.5-182.55-179.21
					c-79.29-193.74,33.36-344.64,81.46-409.08c2.49-3.33,4.8-6.43,6.9-9.28c24.74-33.66,31.25-73.26,38.14-115.19
					c7.96-48.44,16.99-103.34,56.75-153.77c62.68-79.51,210.83-109.77,293.55-59.96c6.15,3.7,9.49,10.29,9.36,16.98
					c3.56,3.85,5.55,9.12,5.08,14.75l-76.1,902.31c-0.75,8.86-7.45,16.07-16.23,17.46
					C1341.8,1588.8,1321.42,1590.34,1300.84,1590.34z M1341.56,648.68c-61.72,0-131.25,26.14-165.34,69.38
					c-33.59,42.61-41.06,88.02-48.96,136.11c-7.33,44.58-14.91,90.67-45.13,131.81c-2.15,2.92-4.52,6.1-7.07,9.52
					c-44.19,59.19-147.67,197.81-76.66,371.32c68.44,167.25,245.62,192.92,342.14,182.65l74.62-884.64
					C1394.65,653.8,1368.86,648.68,1341.56,648.68z"/>
			</g>
			<g>
				<path class="st1" d="M2401.38,1279.54c-14.5,391.37-536.32,478.34-536.32,478.34s-574.98,96.64-723.51-299.81
					c-108.04-288.26,50.64-446.45,66.39-545.75c15.7-99.29,117.46-351.17,434.86-401.04c81.9-12.85,153.94-8.99,216.75,5.56
					c196.51,45.56,302.13,195.83,334.07,265.02c36.19,78.32,171.67,161.77,202.16,378.62
					C2400.8,1196.34,2402.98,1235.81,2401.38,1279.54z"/>
			</g>
			<g>
				<path class="st8" d="M2395.78,1160.49c-70.88,54.94-159.88,87.65-256.52,87.65c-231.49,0-419.15-187.67-419.15-419.15
					c0-123.98,53.83-235.4,139.44-312.13c196.51,45.56,302.13,195.83,334.07,265.02C2229.8,860.19,2365.29,943.64,2395.78,1160.49z"
					/>
			</g>
			<g class="st2">
				<path class="st0" d="M2401.38,1269.54c-0.05,1.64-0.15,3.29-0.24,4.88c-0.92-20.58-2.75-40.1-5.36-58.71
					c-30.49-216.85-165.97-300.29-202.16-378.62c-28.41-61.56-115.09-187.23-272.17-246.32c0,0.15-0.05,0.29-0.1,0.43
					c-3.24,11.45-25.61,15.17-50.06,8.31c-24.21-6.81-41.26-21.45-38.41-32.86c-56.34-9.91-119.54-11.21-190.08-0.14
					c-317.4,49.86-419.15,301.74-434.86,401.04c-11.02,69.53-92.19,168-102.67,319.81c-13-189.6,90.11-305.99,102.67-385.04
					c15.7-99.29,117.46-351.17,434.86-401.04c81.9-12.85,153.94-8.99,216.75,5.56c196.51,45.56,302.13,195.83,334.07,265.02
					c36.19,78.32,171.67,161.77,202.16,378.62C2400.8,1186.34,2402.98,1225.81,2401.38,1269.54z"/>
			</g>
			<g class="st7">
				<path class="st4" d="M2405.19,1287.36c-14.5,391.37-536.32,478.34-536.32,478.34s-574.98,96.64-723.51-299.81
					c-38.85-103.69-43.2-190.56-32.08-263.91c3.72,47.21,14.64,98.91,35.9,155.68c148.53,396.45,723.51,299.81,723.51,299.81
					s480.76-80.11,532.17-432.63C2405.82,1244.65,2406.01,1265.47,2405.19,1287.36z"/>
			</g>
			<g>
				<path class="st4" d="M1715.53,1787.67c-47.26,0-102.11-2.95-159.52-11.93c-219.66-34.37-369.24-141.87-432.56-310.89
					c-82.64-220.5-13.27-370.33,32.63-469.48c15.6-33.69,29.07-62.79,32.77-86.08c19.42-122.81,138.67-368.04,450.95-417.1
					c78.69-12.35,154.09-10.39,224.11,5.82c239.42,55.52,336.93,253.37,347.26,275.75c9.99,21.61,29.66,45.24,52.44,72.6
					c54.6,65.57,129.37,155.37,151.31,311.43c5.39,38.49,7.34,79.69,5.78,122.45c0,0,0,0.01,0,0.01
					c-6.2,167.29-104.33,306.39-283.8,402.27c-133.53,71.34-263.2,93.52-268.66,94.43
					C1864.36,1777.6,1802.9,1787.67,1715.53,1787.67z M1739.74,522.86c-30.59,0-61.96,2.51-93.95,7.53
					c-290.3,45.61-400.86,271.75-418.76,384.96c-4.54,28.61-19.06,59.97-35.87,96.27c-45.78,98.88-108.48,234.3-31.51,439.67
					c58.97,157.4,194.34,253.71,402.34,286.26c157.39,24.63,298.46,1.5,299.86,1.27c1.3-0.22,129.69-22.27,257.68-90.85
					c168.48-90.28,256.8-214.48,262.53-369.15v0.01c1.48-40.5-0.35-79.42-5.43-115.67c-20.41-145.16-88.24-226.62-142.74-292.07
					c-24.53-29.45-45.71-54.89-57.83-81.12c-34.54-74.83-140.99-212.59-320.89-254.3C1818.28,527.13,1779.68,522.86,1739.74,522.86z
					 M2401.38,1279.54h0.05H2401.38z"/>
			</g>
			<g>
				<path class="st4" d="M1682.71,1174.32l143.99-16.24c16.29-1.84,27.02,16.52,17.43,29.81l-64.34,89.15
					c-6.61,9.16-19.73,10.51-28.06,2.88l-79.66-72.91C1660.12,1196.07,1666.61,1176.14,1682.71,1174.32z"/>
			</g>
			<g>
				<g>
					<path class="st4" d="M1766.11,1235.99c9.26,20.34,11.22,43.92,7.38,66.65c-3.9,22.78-13.87,44.73-28.17,63.33
						c-14.29,18.68-33.15,33.69-53.92,44.44c-20.78,10.9-43.45,17.4-66.65,20.62c-22.83,2.66-46.8,1.32-69.47-4.75
						c-22.74-5.94-44.28-16.87-62.41-31.88c-4.34-3.98-8.7-7.92-12.93-11.97c-3.91-4.38-7.75-8.83-11.44-13.35
						c-3.34-4.82-6.88-9.47-9.95-14.42c-2.8-5.13-5.6-10.24-7.96-15.53c-9.04-21.35-12.19-45.22-6.35-67.26
						c0.49-1.84,2.38-2.94,4.22-2.45c0.95,0.25,1.7,0.88,2.14,1.67l0.04,0.07c10.51,19.26,20.06,35.77,31.09,50.82
						c2.76,3.73,5.76,7.27,8.38,10.99l8.92,10.36c3.2,3.23,6.62,6.24,9.76,9.47l10.4,8.67c14.34,10.94,30.41,19.49,47.59,25.07
						c17.24,5.5,35.46,7.68,53.95,5.8c17.97-2.06,35.76-7.75,51.3-17.11c15.6-9.29,29.06-21.59,40.71-35.33
						c11.66-13.8,21.28-29.36,29-46.47c7.82-17.14,13.37-35.78,17.97-56.74l0.01-0.04c0.4-1.83,2.21-2.99,4.04-2.59
						C1764.83,1234.32,1765.68,1235.06,1766.11,1235.99z"/>
				</g>
				<g>
					<path class="st4" d="M2081.58,1200.72c9.34,20.66,11.29,44.64,7.25,67.73c-1.24,5.7-2.67,11.43-4.21,17.14
						c-2.09,5.49-4.01,11.13-6.46,16.53c-2.76,5.23-5.36,10.6-8.37,15.74c-3.4,4.87-6.57,9.95-10.27,14.63
						c-14.81,18.76-34.27,33.63-55.55,44.16c-10.64,5.32-21.78,9.53-33.15,12.78c-5.72,1.37-11.48,3.31-17.15,4.05l-8.55,1.45
						l-4.28,0.72c-2.13,0.22-4.33,0.38-6.5,0.49l1.76-0.08c-1.64,0.11-3.59,0.27-4.97,0.3l-4.13,0.14l-8.27,0.3
						c-1.39,0.03-2.75,0.12-4.15,0.11l-4.3-0.25l-8.62-0.52c-11.47-0.94-22.87-3.03-34.01-6.17c-22.26-6.26-43.28-17.29-60.9-32.31
						c-4.37-3.78-8.44-7.92-12.62-11.88c-3.86-4.3-7.45-8.83-11.13-13.24c-3.29-4.73-6.62-9.42-9.67-14.26
						c-2.72-5.06-5.3-10.19-7.69-15.35c-8.73-21.07-11.68-44.55-5.93-66.23c0.49-1.85,2.38-2.94,4.23-2.45
						c0.95,0.25,1.7,0.88,2.14,1.68l0.03,0.06c10.33,18.95,19.75,35.22,30.55,50.07c2.8,3.64,5.65,7.18,8.22,10.85
						c3.07,3.34,5.82,6.86,8.75,10.24l9.58,9.35c3.43,2.84,6.67,5.88,10.16,8.61c14.04,10.82,29.7,19.47,46.5,25.19
						c8.41,2.82,17.1,4.87,25.94,6.05l6.66,0.68l3.34,0.35c1.15,0.05,2.34,0.01,3.51,0.02l7.05-0.01l3.53-0.01l2.68-0.11l1.65-0.07
						l0.11-0.01c0.46-0.09,0.89-0.11,1.39-0.1l3.53-0.55l7.07-1.08c4.85-0.44,9.07-2.2,13.59-3.28c8.88-2.59,17.37-6.38,25.39-10.89
						c16.05-9.11,29.89-21.45,41.84-35.3c3.07-3.41,5.66-7.2,8.58-10.77c2.76-3.68,5.19-7.6,7.87-11.41l7-12.1
						c2.04-4.2,4.07-8.44,6.3-12.7c7.94-17.39,13.57-36.27,18.27-57.56l0.01-0.05c0.4-1.83,2.21-2.98,4.04-2.58
						C2080.3,1199.04,2081.15,1199.79,2081.58,1200.72z"/>
				</g>
			</g>
			<g>
				<path class="st4" d="M1931.15,1376.85l-49.19,238.5l-149.78,9.66l-97.07-215.25c80.69-15.37,137.08-90.5,127.8-173.41
					C1772.38,1321.14,1846.89,1382.65,1931.15,1376.85z"/>
			</g>
			<g>
				<path class="st4" d="M1732.18,1644.34c-7.56,0-14.47-4.42-17.61-11.38l-97.07-215.25c-2.43-5.4-2.26-11.61,0.47-16.86
					c2.73-5.25,7.72-8.96,13.53-10.07c70.93-13.51,120.21-80.34,112.22-152.18c0-0.03-0.01-0.06-0.01-0.1
					c-1.18-10.61,6.45-20.17,17.06-21.35c10.58-1.2,20.17,6.45,21.35,17.06c0,0.03,0.01,0.07,0.01,0.1
					c8.34,74.26,73.23,128.44,147.7,123.27c6.04-0.39,11.91,2.02,15.88,6.57c3.98,4.55,5.59,10.7,4.37,16.62l-49.19,238.5
					c-1.76,8.53-9,14.82-17.68,15.38l-149.79,9.66C1733.01,1644.33,1732.59,1644.34,1732.18,1644.34z M1662.11,1422.61l82.19,182.26
					l121.72-7.85l41.43-200.89c-56.25-3.95-105.98-34.24-135.75-79.64C1753.09,1365.52,1713.3,1405.32,1662.11,1422.61z"/>
			</g>
			<g>
				<path class="st9" d="M1820.95,1718.17L1820.95,1718.17c-41.01,5.36-78.61-23.53-83.97-64.55l-13.16-100.61
					c-5.36-41.01,23.53-78.61,64.55-83.97l0,0c41.01-5.36,78.61,23.53,83.97,64.55l13.16,100.61
					C1890.86,1675.21,1861.96,1712.81,1820.95,1718.17z"/>
			</g>
			<g>
				<path class="st4" d="M1811.05,1738.15c-20.64,0-40.59-6.75-57.23-19.54c-19.95-15.34-32.74-37.53-36-62.48l-13.16-100.61
					c-6.74-51.51,29.69-98.91,81.2-105.64c51.5-6.72,98.91,29.69,105.64,81.2l13.16,100.61c6.74,51.51-29.69,98.91-81.2,105.64
					c0,0,0,0,0,0C1819.31,1737.88,1815.16,1738.15,1811.05,1738.15z M1820.95,1718.17h0.05H1820.95z M1798.12,1487.73
					c-2.39,0-4.81,0.15-7.24,0.47c-30.38,3.98-51.86,31.93-47.89,62.3l13.16,100.61c1.93,14.72,9.47,27.81,21.23,36.85
					c11.77,9.04,26.35,12.97,41.07,11.04h0c30.38-3.98,51.86-31.93,47.89-62.3l-13.16-100.61
					C1849.52,1508.15,1825.58,1487.73,1798.12,1487.73z"/>
			</g>
			<g>
				<path class="st4" d="M1689.82,2725.24c-0.15-4.24,0.09-9.37,0.35-14.09c0.19-4.83,0.56-9.66,0.94-14.51
					c0.7-9.69,1.75-19.45,2.35-29.3c0.66-9.85,1.04-19.79,1.04-29.85c0.28-10.13-0.36-20.21-0.51-30.81l0-0.1
					c-0.02-1.22,0.96-2.22,2.18-2.24c0.8-0.01,1.51,0.41,1.91,1.04c5.66,9.07,10.44,18.83,14.02,28.97
					c3.65,10.14,6.47,20.62,8.36,31.25c1.93,10.63,3.34,21.42,3.24,32.23c-0.02,5.41-0.27,10.82-0.97,16.21
					c-0.67,5.49-1.56,10.58-3.36,16.46c-2.43,7.96-10.86,12.45-18.82,10.01c-6.31-1.93-10.43-7.62-10.66-13.86L1689.82,2725.24z"/>
			</g>
			<g>
				<path class="st4" d="M1784.2,2712.09c-0.42-3.92-0.51-8.78-0.5-13.22c-0.11-4.56,0.01-9.13,0.1-13.72l0.97-27.81
					c0.2-9.35,0.36-18.81,0.14-28.36c0.05-9.62-0.54-19.23-0.58-29.29l0-0.07c-0.01-1.23,0.99-2.23,2.21-2.23
					c0.78,0,1.47,0.41,1.87,1.01c11.1,17,18.5,36.21,23.24,55.98c2.38,9.9,4.23,19.98,4.74,30.18c0.29,5.09,0.32,10.22-0.04,15.34
					c-0.36,5.24-0.93,10.06-2.36,15.78c-2.03,8.08-10.23,12.98-18.3,10.95c-6.29-1.58-10.65-6.9-11.32-12.99L1784.2,2712.09z"/>
			</g>
			<g>
				<path class="st4" d="M2156.45,2503.86c-2.76-4.66-4.4-8.55-5.96-12.95c-1.55-4.27-2.73-8.64-3.63-13.03
					c-1.9-8.79-2.54-17.78-2.73-26.7c-0.26-17.85,1.65-35.71,7.24-52.75c0.39-1.18,1.66-1.82,2.84-1.44
					c0.69,0.23,1.2,0.76,1.42,1.39l0.02,0.07c2.91,8.41,5.13,16.61,7.72,24.65c2.35,8.06,4.98,15.93,7.45,23.72
					c2.5,7.78,5.36,15.36,7.62,22.98c1.14,3.81,2.31,7.58,3.24,11.4c0.98,3.67,2.02,7.81,2.41,11.01l0.26,2.13
					c1.01,8.26-4.87,15.77-13.13,16.78C2165.12,2511.87,2159.41,2508.83,2156.45,2503.86z"/>
			</g>
			<g>
				<path class="st4" d="M2260.35,2491.3c-2.1-2.4-3.42-4.14-4.85-6.23c-1.38-2.04-2.63-4.06-3.78-6.18
					c-2.33-4.16-4.28-8.5-5.89-12.92c-3.31-8.83-5.25-18.07-6.46-27.31c-1.16-9.25-1.67-18.53-1.09-27.76
					c0.49-9.21,1.96-18.33,4.46-27.16c0.34-1.19,1.58-1.88,2.77-1.54c0.71,0.2,1.24,0.72,1.48,1.35l0.03,0.09
					c3.2,8.51,5.77,16.73,8.94,24.68c2.86,7.99,6.23,15.66,9.49,23.18c3.29,7.52,7.13,14.68,10.45,21.88
					c1.67,3.61,3.42,7.13,4.96,10.73c0.86,1.73,1.56,3.59,2.36,5.3c0.68,1.7,1.6,3.69,1.87,4.91l0.89,3.96
					c1.79,7.99-3.24,15.92-11.23,17.71C2269.28,2497.24,2263.82,2495.25,2260.35,2491.3z"/>
			</g>
			<g>
				<g>
					
						<ellipse transform="matrix(0.1213 -0.9926 0.9926 0.1213 252.968 2478.1777)" class="st4" cx="1526.23" cy="1096.21" rx="102.95" ry="70.13"/>
				</g>
				<g>
					
						<ellipse transform="matrix(0.1213 -0.9926 0.9926 0.1213 286.5666 2482.6584)" class="st0" cx="1545.56" cy="1079.47" rx="30.07" ry="20.48"/>
				</g>
			</g>
			<g>
				<g>
					
						<ellipse transform="matrix(0.9717 -0.2363 0.2363 0.9717 -190.8997 489.301)" class="st4" cx="1946.23" cy="1041.21" rx="70.13" ry="102.95"/>
				</g>
				<g>
					
						<ellipse transform="matrix(0.9717 -0.2363 0.2363 0.9717 -188.1025 483.8904)" class="st0" cx="1925.07" cy="1026.84" rx="20.48" ry="30.07"/>
				</g>
			</g>
		</g>
		<g>
			<g>
				<path class="st10" d="M944.61,1161.16c0,0,178.77-251.25,270.58-202.93c91.8,48.32-19.33,488.01-19.33,488.01L944.61,1161.16z"
					/>
			</g>
			<g>
				<path class="st10" d="M602.76,1101.78l-335.71,178.1c0,0,11.16-98.18,33.53-204.19c25.56-121.08,65.71-252.41,120.6-259.27
					c51.7-6.43,97.21,65.52,129.78,138.77C583.24,1027.81,602.76,1101.78,602.76,1101.78z"/>
			</g>
			<g>
				<path class="st10" d="M1182.62,2634.61c-396.4-42.04-740.56-258.98-953.79-572.22c9.57-13.34,19.38-27.3,29.18-41.79
					c24.5-36.09,49.24-75.42,72.14-116.49c24.11-43.34,46.19-88.61,63.63-134.13l594.31,53.15l30.59,135.68l46.72,207.38
					c0,0,87.7,87.7,118.62,241.97C1196.97,2472.55,1200.01,2548.55,1182.62,2634.61z"/>
			</g>
			<g class="st7">
				<path class="st4" d="M1182.62,2634.61c-396.4-42.04-740.56-258.98-953.79-572.22c9.57-13.34,19.38-27.3,29.18-41.79
					c2.17,4.3,4.54,8.55,7.3,12.61c35.8,52.91,89.19,94.27,150.27,113.69c57.16,18.17,121.47,19.04,170.71,53.29
					c50.11,34.84,74.94,98.18,125.77,132.05c64.99,43.24,150.51,26.43,228.3,20.49c10.29-0.82,21.31-1.21,30.3,3.91
					c8.65,4.93,13.82,14.11,19.52,22.32c41.65,59.62,135.87,73.3,192.74,27.93c0.39,0.43,0.77,0.82,1.11,1.26
					C1196.97,2472.55,1200.01,2548.55,1182.62,2634.61z"/>
			</g>
			<g>
				<path class="st4" d="M1182.64,2653.94c-0.68,0-1.37-0.04-2.06-0.11c-392.16-41.59-744.88-253.2-967.73-580.57
					c-4.57-6.71-4.46-15.56,0.28-22.15c38.36-53.42,72.05-106.04,100.14-156.43c25.64-46.09,46.66-90.38,62.47-131.63
					c3.09-8.07,11.14-13.1,19.77-12.33l594.31,53.15c8.36,0.75,15.29,6.81,17.13,15l76.13,337.84
					c27.28,29.48,174.58,204.12,118.48,481.73C1199.73,2647.53,1191.73,2653.94,1182.64,2653.94z M252.43,2062.58
					c213.4,306.76,545.2,506.53,914.5,550.81c46.16-268.45-113.54-431.9-115.19-433.55c-2.59-2.59-4.38-5.85-5.19-9.42
					l-74.21-329.31l-565.86-50.61c-15.73,39-35.69,80.3-59.43,122.98C320.18,1961.67,288.39,2011.77,252.43,2062.58z"/>
			</g>
			<g>
				<path class="st11" d="M1018.68,1958.79c-77.84,77.55-226.13,116.74-387.22,92.05c-128.28-19.67-236.71-75.57-301.31-146.74
					c24.11-43.34,46.19-88.61,63.63-134.13l594.31,53.15L1018.68,1958.79z"/>
			</g>
			<g>
				<path class="st4" d="M727.86,2077.61c-32.39,0-65.66-2.51-99.32-7.67c-128.41-19.69-242.39-75.4-312.69-152.85
					c-5.57-6.14-6.61-15.14-2.58-22.39c25.65-46.1,46.67-90.4,62.48-131.65c3.09-8.07,11.14-13.1,19.77-12.33l594.31,53.15
					c8.36,0.75,15.29,6.81,17.13,15l30.58,135.67c1.46,6.48-0.51,13.25-5.21,17.94C964.42,2040.13,852.84,2077.61,727.86,2077.61z
					 M353.88,1901.04c65.06,65.84,166.37,113.19,280.51,130.69c144.49,22.14,285.36-8.96,363.02-79.39l-25.08-111.23l-565.86-50.61
					C392.28,1825.7,374.64,1862.77,353.88,1901.04z"/>
			</g>
			<g>
				<circle class="st6" cx="649.87" cy="2093.69" r="82.14"/>
			</g>
			<g class="st2">
				<path class="st0" d="M732.01,2093.69c0,10.48-1.98,20.53-5.6,29.76c-3.77-41.84-38.94-74.6-81.75-74.6
					c-34.84,0-64.65,21.74-76.54,52.38c-0.29-2.46-0.39-4.98-0.39-7.54c0-45.37,36.77-82.14,82.14-82.14
					C695.19,2011.55,732.01,2048.32,732.01,2093.69z"/>
			</g>
			<g class="st7">
				<path class="st4" d="M732.01,2093.69c0,45.37-36.77,82.14-82.14,82.14c-45.37,0-82.14-36.77-82.14-82.14
					c0-11.6,2.42-22.66,6.76-32.71c9.23,35.27,41.31,61.27,79.48,61.27c33.77,0,62.76-20.34,75.38-49.48
					C731.09,2079.44,732.01,2086.49,732.01,2093.69z"/>
			</g>
			<g>
				<path class="st4" d="M649.87,2195.16c-55.95,0-101.47-45.52-101.47-101.47c0-55.95,45.52-101.46,101.47-101.46
					c55.95,0,101.47,45.52,101.47,101.46C751.34,2149.64,705.82,2195.16,649.87,2195.16z M649.87,2030.88
					c-34.64,0-62.81,28.18-62.81,62.81c0,34.64,28.18,62.81,62.81,62.81c34.63,0,62.81-28.18,62.81-62.81
					C712.68,2059.06,684.51,2030.88,649.87,2030.88z"/>
			</g>
			<g>
				<path class="st10" d="M653.98,2445.98c-5.99,42.86-23.77,81.61-57.26,106.73c-115.96,86.97-180.9-130.31-148.43-241.49
					l-57.4-53.83c0,0,1.06-1.35,3.14-3.67c13.05-14.5,66.19-66.24,149.54-53.73C612.33,2210.28,668.81,2340.45,653.98,2445.98z"/>
			</g>
			<g class="st7">
				<path class="st4" d="M653.98,2445.98c-5.99,42.86-23.77,81.61-57.26,106.73c-115.96,86.97-180.9-130.31-148.43-241.49
					l-57.4-53.83c0,0,1.06-1.35,3.14-3.67c29.96,1.45,68.56,11.74,103.06,47.06c0,0-31.07,174.04,45.8,198.87
					C588.02,2514.25,628.37,2478.2,653.98,2445.98z"/>
			</g>
			<g class="st2">
				<path class="st0" d="M616.1,2534.73c42.57-109.25-20.2-278.65-99.05-290.48c-49.38-7.39-88.13,7.73-114.27,24.35l-11.89-11.16
					c0,0,56.05-71.95,152.68-57.45C634.22,2213.57,703.61,2435.54,616.1,2534.73z"/>
			</g>
			<g>
				<path class="st4" d="M544.9,2590.19c-16.15,0-31.74-4.97-46.17-14.96c-62.61-43.35-89.32-174.26-69.99-258.36l-49.83-46.68
					c-6.61-6.19-7.4-16.39-1.84-23.53c2.55-3.27,63.54-79.78,169.09-63.97c50.52,7.58,96.69,66.07,117.64,149.03
					c19.76,78.27,15.27,181.11-56.59,235C586.39,2582.33,565.21,2590.19,544.9,2590.19z M415.66,2256.65l44.6,41.78
					c4.81,4.51,6.68,11.34,4.84,17.68c-22.37,76.62,5.67,197.18,53.57,230.35c20.02,13.87,42.12,11.34,67.56-7.75
					c58.18-43.64,59.88-134.17,43.65-198.43c-16.94-67.1-53.5-117.67-88.89-122.98C478.18,2207.87,434.81,2238.84,415.66,2256.65z"
					/>
			</g>
			<g>
				<path class="st10" d="M1066.37,2617.02l-133.45-33.63c0,0-51.12,94.94-133.26,51.46c-31.7-16.77-52.18-59.67-59.09-109.34
					c-14.5-103.11,29.18-235.45,150.9-224.05c94.7,8.89,139.01,125.29,159.16,214.14
					C1063.32,2571.84,1066.37,2617.02,1066.37,2617.02z"/>
			</g>
			<g class="st7">
				<path class="st4" d="M1066.37,2617.02l-133.45-33.63c0,0-51.12,94.94-133.26,51.46c-31.7-16.77-52.18-59.67-59.09-109.34
					c1.4,2.03,45.47,65.47,97.41,65.23c52.81-0.24,108.57-42.13,117.94-91.08c0,0,29.28,73.15,94.65,15.99l0.05-0.05
					C1063.32,2571.84,1066.37,2617.02,1066.37,2617.02z"/>
			</g>
			<g class="st2">
				<path class="st0" d="M1066.37,2617.02l-6.18-1.55c-13.58-86.59-54.5-253.57-168.72-264.3c-97.5-9.13-144.95,73.97-152.54,160.46
					c-8.79-100.74,36.24-221.1,152.54-210.18C1046.07,2315.95,1066.37,2617.02,1066.37,2617.02z"/>
			</g>
			<g>
				<path class="st4" d="M842.24,2663.8c-15.78,0-32.78-3.96-50.77-13.49c-67.57-35.77-85.62-157.98-59.55-245.29
					c25.13-84.14,83.86-128.23,161.17-120.99c167.52,15.71,189.85,318.9,190.72,331.8c0.38,5.59-1.95,11.02-6.25,14.61
					c-4.3,3.59-10.05,4.9-15.49,3.54l-120.91-30.47C922.48,2631.23,887.44,2663.8,842.24,2663.8z M877,2318.27
					c-71.54,0-100.48,59.74-111.54,96.77c-24.11,80.74-3.51,180.04,42.39,204.34c65.6,34.74,107.94-41.09,109.71-44.33
					c3.82-7.01,11.92-10.58,19.66-8.63l109.17,27.51c-8.55-69.41-42.66-264.37-156.56-275.05
					C885.41,2318.47,881.13,2318.27,877,2318.27z"/>
			</g>
			<g>
				<path class="st4" d="M911.34,2581.7c2.57-3.21,5.44-7.44,8.03-11.35c2.65-3.99,5.23-8.09,7.67-12.25
					c4.89-8.33,9.54-16.9,13.5-25.77c7.89-17.72,14.09-36.57,13.74-56.93c3.39,9.55,5.14,19.9,5.86,30.35
					c0.65,10.47,0.11,20.99-0.91,31.5c-1.06,10.51-2.91,20.9-5.13,31.27c-1.11,5.19-2.38,10.34-3.78,15.49
					c-1.44,5.25-2.79,10.1-4.82,15.78l-0.28,0.78c-3.65,10.23-14.9,15.56-25.12,11.91c-10.23-3.65-15.56-14.9-11.91-25.12
					C908.93,2585.28,910.04,2583.34,911.34,2581.7z"/>
			</g>
			<g>
				<g>
					<path class="st4" d="M1195.86,1465.57c-5.48,0-10.78-2.33-14.5-6.55l-251.25-285.07c-5.94-6.73-6.45-16.67-1.25-23.98
						c1.86-2.61,46.25-64.75,102.87-121.97c81.22-82.1,145.98-111.34,192.46-86.86c29.8,15.68,65.83,61.97,34.9,281.92
						c-16.26,115.66-44.21,226.82-44.49,227.93c-1.76,6.95-7.22,12.36-14.19,14.05C1198.9,1465.39,1197.37,1465.57,1195.86,1465.57z
						 M969.34,1159.99l216.32,245.44c9.47-41.64,24.78-113.94,35.19-188.04c28.44-202.47-4.03-236.46-14.66-242.06
						C1155.42,948.62,1040.59,1063.58,969.34,1159.99z"/>
				</g>
				<g>
					<path class="st4" d="M1152.37,1315.78c-5.33,0-10.52-2.21-14.22-6.24l-111.13-120.79c-6.03-6.56-6.8-16.39-1.86-23.81
						c0.92-1.37,22.72-33.97,49.77-65.32c42.27-48.99,73.64-67.43,98.73-58.02c27.54,10.32,33.21,52.26,19.58,144.73
						c-8.48,57.56-21.51,112.32-22.07,114.62c-1.66,6.95-7.02,12.41-13.93,14.21C1155.63,1315.58,1153.99,1315.78,1152.37,1315.78z
						 M1065.88,1173.89l75.73,82.31c17.8-84.64,25.21-160.51,16.82-178.37C1143.21,1079.83,1101.73,1122.9,1065.88,1173.89z"/>
				</g>
			</g>
			<g>
				<path class="st4" d="M1195.86,1465.57c-5.48,0-10.78-2.33-14.5-6.55l-251.25-285.07c-5.94-6.73-6.45-16.67-1.25-23.98
					c1.86-2.61,46.25-64.75,102.87-121.97c81.22-82.1,145.98-111.34,192.46-86.86c29.8,15.68,65.83,61.97,34.9,281.92
					c-16.26,115.66-44.21,226.82-44.49,227.93c-1.76,6.95-7.22,12.36-14.19,14.05C1198.9,1465.39,1197.37,1465.57,1195.86,1465.57z
					 M969.34,1159.99l216.32,245.44c9.47-41.64,24.78-113.94,35.19-188.04c28.44-202.47-4.03-236.46-14.66-242.06
					C1155.42,948.62,1040.59,1063.58,969.34,1159.99z"/>
			</g>
			<g>
				<g>
					<path class="st4" d="M267.08,1299.19c-3.81,0-7.61-1.13-10.88-3.35c-5.93-4.04-9.13-11.03-8.32-18.15
						c0.13-1.14,13.21-115.01,38.81-228.97c48.68-216.71,98.73-247.3,132.14-251.46c52.12-6.49,102.39,43.71,149.42,149.19
						c32.78,73.53,52.39,147.32,53.21,150.43c2.29,8.68-1.7,17.79-9.63,22l-335.69,178.07
						C273.29,1298.45,270.18,1299.19,267.08,1299.19z M427.56,835.37c-1.33,0-2.65,0.08-3.97,0.25
						c-11.92,1.48-54.3,21.83-99.14,221.31c-16.41,73.01-27.6,146.06-33.43,188.36l289.02-153.31
						C548.14,979.29,483.59,835.37,427.56,835.37z"/>
				</g>
				<g>
					<path class="st4" d="M360.62,1174.39c-3.93,0-7.83-1.19-11.15-3.54c-5.83-4.12-8.92-11.13-8.02-18.21
						c0.3-2.35,7.43-58.18,19.8-115.03c19.87-91.26,39.96-128.51,69.33-128.51c0.02,0,0.04,0,0.07,0
						c26.8,0.05,49.64,28.37,71.9,89.12c14.24,38.88,23.14,77.08,23.51,78.68c2.01,8.68-2.18,17.61-10.14,21.62l-146.61,73.81
						C366.56,1173.71,363.59,1174.39,360.62,1174.39z M431.99,948.48c-14.14,14.03-33.91,87.47-47.09,172.72l99.9-50.29
						C469.35,1010.94,445.91,956.31,431.99,948.48z"/>
				</g>
			</g>
			<g>
				<path class="st4" d="M267.08,1299.19c-3.81,0-7.61-1.13-10.88-3.35c-5.93-4.04-9.13-11.03-8.32-18.15
					c0.13-1.14,13.21-115.01,38.81-228.97c48.68-216.71,98.73-247.3,132.14-251.46c52.12-6.49,102.39,43.71,149.42,149.19
					c32.78,73.53,52.39,147.32,53.21,150.43c2.29,8.68-1.7,17.79-9.63,22l-335.69,178.07
					C273.29,1298.45,270.18,1299.19,267.08,1299.19z M427.56,835.37c-1.33,0-2.65,0.08-3.97,0.25
					c-11.92,1.48-54.3,21.83-99.14,221.31c-16.41,73.01-27.6,146.06-33.43,188.36l289.02-153.31
					C548.14,979.29,483.59,835.37,427.56,835.37z"/>
			</g>
			<g>
				<g>
					<path class="st12" d="M1041.24,1175.66c0,0,86.97-130.46,125.63-115.96c38.65,14.5-14.5,236.76-14.5,236.76L1041.24,1175.66z"
						/>
				</g>
				<g>
					<path class="st12" d="M507.23,1081.26c0,0-35.34-152.76-76.62-152.83s-69.99,226.64-69.99,226.64L507.23,1081.26z"/>
				</g>
			</g>
			<g>
				<path class="st4" d="M1152.37,1308.95c-3.45,0-6.8-1.43-9.2-4.04l-111.13-120.79c-3.9-4.24-4.4-10.6-1.2-15.4
					c21.69-32.54,95.94-137.41,140.41-120.73c16.62,6.23,31.42,27.42,15.23,137.34c-8.44,57.26-21.82,113.47-21.95,114.03
					c-1.07,4.49-4.54,8.03-9.01,9.19C1154.48,1308.82,1153.42,1308.95,1152.37,1308.95z M1057.15,1174.48l88.26,95.93
					c4.43-20.55,10.83-52.28,15.75-84.75c15.57-102.81,1.28-114.26,1.13-114.36C1145.98,1065.17,1095.23,1119.34,1057.15,1174.48z"
					/>
			</g>
			<g>
				<path class="st4" d="M360.62,1167.57c-2.54,0-5.07-0.77-7.21-2.29c-3.77-2.67-5.77-7.19-5.19-11.78
					c0.07-0.57,7.39-57.88,19.7-114.44c23.6-108.44,44.91-123.13,62.65-123.13c0.02,0,0.04,0,0.06,0
					c47.51,0.09,79.96,124.41,88.78,162.52c1.3,5.62-1.41,11.39-6.56,13.98l-146.61,73.81
					C364.47,1167.12,362.54,1167.57,360.62,1167.57z M430.58,940.93c0.04,0.02-17.37,5.7-39.09,107.38
					c-6.86,32.11-12.06,64.07-15.17,84.85l116.43-58.61C476.57,1009.51,448.18,940.96,430.58,940.93z"/>
			</g>
			<g class="st7">
				<path class="st4" d="M602.76,1101.78l-335.71,178.1c0,0,11.16-98.18,33.53-204.19c59.72-44.02,155.82-104.61,250.38-120.5
					C583.24,1027.81,602.76,1101.78,602.76,1101.78z"/>
			</g>
			<g class="st7">
				<path class="st4" d="M951.83,1147.2l253.1,283.48c0,0,23.58-95.96,39.37-203.15c-40.75-62-109.87-152.16-193.05-199.86
					C995.79,1084.59,951.83,1147.2,951.83,1147.2z"/>
			</g>
			<g>
				<path class="st10" d="M1228.86,1613.81c-43.47,293-302.05,399.69-595.05,356.22s-509.46-220.64-465.99-513.64
					s316.23-495.28,609.23-451.81C1070.05,1048.06,1272.33,1320.82,1228.86,1613.81z"/>
			</g>
			<g class="st2">
				<path class="st0" d="M1219.63,1612.35c-1.35,9.08-2.9,18.02-4.69,26.77c27.64-282.61-171.14-540.19-455.15-582.32
					c-42.71-6.33-84.99-7.44-126.21-3.82v0.05c1.5,13.67-19.86,27.25-47.74,30.3c-22.85,2.51-42.95-2.8-50.25-12.32
					c-188.49,53.15-339.58,207.91-380.21,410.12c0.82-8.65,1.93-17.39,3.24-26.24c43.44-292.95,316.19-495.25,609.19-451.77
					C1060.81,1046.56,1263.12,1319.36,1219.63,1612.35z"/>
			</g>
			<g class="st7">
				<path class="st4" d="M1242.13,1615.28c-43.44,293-302.03,399.68-595.03,356.25c-281.64-41.79-492.55-207.09-469.89-480.08
					c19.57,226.85,215.98,364.94,469.89,402.63c293,43.44,551.59-63.25,595.03-356.24c2.03-13.53,3.48-27.01,4.49-40.44
					C1249.42,1535.94,1248.02,1575.42,1242.13,1615.28z"/>
			</g>
			<g>
				<path class="st4" d="M757,1998.78c-40.52,0-82.63-3.2-126.02-9.63c-155.87-23.13-283.85-81.49-370.08-168.78
					c-94.76-95.93-133.56-222.77-112.19-366.81c44.97-303.07,328.11-513.04,631.18-468.09c303.07,44.97,513.05,328.12,468.09,631.18
					l0,0c-21.37,144.04-95.32,254.16-213.86,318.44C956.29,1977.3,862.02,1998.78,757,1998.78z M698.01,1018.06
					c-251.81,0-473.03,184.77-511.07,441.16c-45.48,306.58,202.48,455,449.71,491.68c247.22,36.69,527.61-33.36,573.09-339.93
					c41.84-281.98-153.54-545.43-435.52-587.27C748.63,1019.9,723.15,1018.06,698.01,1018.06z M1228.86,1613.81h0.05H1228.86z"/>
			</g>
			<g>
				<path class="st4" d="M658.95,1506.17l87.93,7.31c9.94,0.83,14.19,13.06,6.89,19.87l-48.96,45.65
					c-5.03,4.69-13.03,3.94-17.1-1.59l-38.97-52.96C642.89,1516.49,649.12,1505.35,658.95,1506.17z"/>
			</g>
			<g>
				<g>
					<path class="st4" d="M510.45,1548.85c5.89,12.73,10.99,22.98,16.75,32.18c5.67,9.16,11.65,17.26,18.44,24.55
						c6.74,7.27,14.12,13.99,22.75,19.14c8.69,5.11,18.31,8.3,28.86,8.91l3.17,0.02l4.06-0.09c2.8,0.08,5.15-0.5,7.67-0.75
						c4.95-0.75,9.79-2.08,14.44-3.82c9.26-3.57,17.87-8.51,25.65-14.62c7.92-6.02,14.74-13.33,21.39-21.46
						c6.88-8.12,13.71-16.92,22.99-28.36l0.09-0.11c1.32-1.63,3.72-1.88,5.35-0.56c0.41,0.34,0.75,0.76,0.98,1.2
						c7.14,13.78,6.9,29.77,2.17,44.14c-4.97,14.35-14.3,27.14-25.73,37.4c-11.56,10.18-25.5,17.71-40.34,21.78
						c-7.4,2.1-14.99,3.45-22.6,4.02c-3.78,0.21-7.71,0.66-11.25,0.4l-5.42-0.17l-2.82-0.07l-3.48-0.23
						c-14.67-1.56-29.83-5.45-43.61-11.96c-13.85-6.45-26.63-15.8-36.23-27.86c-9.53-12.05-16.03-26.51-18.02-41.46
						c-1.94-14.9,0.35-30.28,8.32-42.76c1.08-1.69,3.33-2.19,5.02-1.11c0.61,0.39,1.06,0.93,1.35,1.54L510.45,1548.85z"/>
				</g>
				<g>
					<path class="st4" d="M703.04,1565.08c5.8,12.53,10.81,22.64,16.49,31.73c5.56,9.05,11.43,17.05,18.07,24.26
						c6.57,7.22,13.8,13.83,22.17,19.07c8.36,5.19,17.98,8.61,27.96,9.44l1.5,0.22c0.09-0.05,0.13-0.05,0.23-0.02l1.98,0.03
						l3.96,0.05c2.68,0.16,5.14-0.43,7.7-0.6c5.06-0.63,10-1.91,14.76-3.58c9.48-3.48,18.29-8.39,26.23-14.56
						c8.1-6.03,15.06-13.42,21.82-21.65c6.97-8.23,13.88-17.13,23.31-28.74l0.09-0.11c1.33-1.63,3.72-1.88,5.35-0.55
						c0.41,0.34,0.75,0.76,0.98,1.2c7.25,14,6.89,30.27,1.92,44.81c-5.17,14.54-14.82,27.42-26.57,37.69
						c-11.9,10.15-26.19,17.57-41.33,21.41c-7.55,2-15.28,3.19-23.01,3.65c-3.85,0.09-7.79,0.53-11.53,0.16l-5.67-0.28l-2.83-0.14
						c-1.49-0.15-3.04-0.36-4.55-0.6l1.5,0.22c-14.78-1.89-29.38-5.92-42.93-12.56c-13.54-6.57-25.92-16.03-35.19-28.03
						c-9.19-12-15.41-26.29-17.24-41.01c-1.76-14.68,0.56-29.77,8.42-42.05c1.08-1.69,3.33-2.19,5.03-1.1
						c0.61,0.39,1.06,0.93,1.34,1.54L703.04,1565.08z"/>
				</g>
			</g>
			<g>
				<path class="st4" d="M677.05,1875.55c-2.32,0-4.64-0.12-6.97-0.36c-36.91-3.78-67.08-36.95-82.79-90.99
					c-10.67-36.76-13.89-79.91-9.32-124.81c0.31-2.93,0.61-5.75,0.96-8.61c1.24-10.11,10.11-17.55,20.29-16.94
					c42.03,2.38,77.75-28.57,81.33-70.56c0-0.03,0.01-0.07,0.01-0.1c0.9-10.63,10.26-18.52,20.88-17.62
					c10.63,0.9,18.53,10.24,17.63,20.88c0,0.04-0.01,0.07-0.01,0.1c-3.52,42.1,26.61,78.6,68.63,83.13
					c10.28,1.11,17.87,10.11,17.22,20.44c-0.26,4.04-0.61,8.13-1.02,12.28c-4.52,44.53-16.26,85.88-33.96,119.65
					C745.25,1849.17,711.72,1875.55,677.05,1875.55z M615.65,1672.04c-2.79,36.41,0.27,72.12,8.76,101.37
					c10.93,37.59,29.47,61.26,49.61,63.33c20.26,2.08,43.33-17.61,61.7-52.65c14.42-27.53,24.67-62.68,29.07-99.55
					c-30.73-8.44-55.73-28.76-70.39-55.41C675.46,1652.98,647.37,1668.87,615.65,1672.04z"/>
			</g>
			<g>
				<path class="st4" d="M677.05,1875.55c-2.32,0-4.64-0.12-6.97-0.36c-36.91-3.78-67.08-36.95-82.79-90.99
					c-1.4-4.8-0.88-9.96,1.45-14.39c17.19-32.69,50.79-53,87.7-53c43.53,0,82.56,29.09,94.92,70.75c1.43,4.82,0.92,10.01-1.41,14.47
					C745.25,1849.17,711.72,1875.55,677.05,1875.55z M626.89,1781.33c11.13,32.98,28.44,53.5,47.13,55.42
					c18.8,1.93,40.02-14.89,57.66-45.32c-9.53-21.49-31.26-35.95-55.23-35.95C656.49,1755.47,638.11,1765.21,626.89,1781.33z"/>
			</g>
			<g>
				<path class="st4" d="M757,1998.78c-40.52,0-82.63-3.2-126.02-9.63c-155.87-23.13-283.85-81.49-370.08-168.78
					c-94.76-95.93-133.56-222.77-112.19-366.81c44.97-303.07,328.11-513.04,631.18-468.09c303.07,44.97,513.05,328.12,468.09,631.18
					l0,0c-21.37,144.04-95.32,254.16-213.86,318.44C956.29,1977.3,862.02,1998.78,757,1998.78z M698.01,1018.06
					c-251.81,0-473.03,184.77-511.07,441.16c-45.48,306.58,202.48,455,449.71,491.68c247.22,36.69,527.61-33.36,573.09-339.93
					c41.84-281.98-153.54-545.43-435.52-587.27C748.63,1019.9,723.15,1018.06,698.01,1018.06z M1228.86,1613.81h0.05H1228.86z"/>
			</g>
			<g>
				<path class="st4" d="M658.95,1506.17l87.93,7.31c9.94,0.83,14.19,13.06,6.89,19.87l-48.96,45.65
					c-5.03,4.69-13.03,3.94-17.1-1.59l-38.97-52.96C642.89,1516.49,649.12,1505.35,658.95,1506.17z"/>
			</g>
			<g>
				<path class="st4" d="M785.64,1668.88c-0.24,3.82-0.58,7.68-0.97,11.6c-4.4,43.29-15.99,82.33-31.84,112.58
					c-21.55,41.12-50.97,65.95-80.79,62.91c-29.67-3.04-53.34-32.95-66.2-77.16c-9.57-32.95-13.09-73.83-8.65-117.46
					c0.29-2.75,0.58-5.46,0.92-8.21c52.09,3,97.31-36.04,101.71-88.32C695.39,1617.23,733.65,1663.28,785.64,1668.88z"/>
			</g>
			<g>
				<path class="st9" d="M752.84,1793.06c-21.55,41.12-50.97,65.95-80.79,62.91c-29.67-3.04-53.34-32.95-66.2-77.16
					c13.34-25.37,39.96-42.66,70.59-42.66C712.54,1736.14,743.07,1760.16,752.84,1793.06z"/>
			</g>
			<g>
				<path class="st4" d="M677.05,1875.55c-2.32,0-4.64-0.12-6.97-0.36c-36.91-3.78-67.08-36.95-82.79-90.99
					c-10.67-36.76-13.89-79.91-9.32-124.81c0.31-2.93,0.61-5.75,0.96-8.61c1.24-10.11,10.11-17.55,20.29-16.94
					c42.03,2.38,77.75-28.57,81.33-70.56c0-0.03,0.01-0.07,0.01-0.1c0.9-10.63,10.26-18.52,20.88-17.62
					c10.63,0.9,18.53,10.24,17.63,20.88c0,0.04-0.01,0.07-0.01,0.1c-3.52,42.1,26.61,78.6,68.63,83.13
					c10.28,1.11,17.87,10.11,17.22,20.44c-0.26,4.04-0.61,8.13-1.02,12.28c-4.52,44.53-16.26,85.88-33.96,119.65
					C745.25,1849.17,711.72,1875.55,677.05,1875.55z M615.65,1672.04c-2.79,36.41,0.27,72.12,8.76,101.37
					c10.93,37.59,29.47,61.26,49.61,63.33c20.26,2.08,43.33-17.61,61.7-52.65c14.42-27.53,24.67-62.68,29.07-99.55
					c-30.73-8.44-55.73-28.76-70.39-55.41C675.46,1652.98,647.37,1668.87,615.65,1672.04z"/>
			</g>
			<g>
				<g>
					<path class="st4" d="M258.5,1504.22c-15.54-3.24-29.99-7.09-44.35-10.86c-14.32-3.8-28.43-7.47-42.5-10.96
						c-14.07-3.63-28.17-6.41-42.48-9.3c-14.39-2.96-28.84-4.61-44.61-7.53c14.17-7.05,30.02-10.79,45.84-11.43
						c15.8-0.56,31.78,0.83,47.01,4.8c15.27,3.81,30.01,9.44,43.78,16.84C234.86,1483.29,247.89,1492.26,258.5,1504.22z"/>
				</g>
				<g>
					<path class="st4" d="M260.8,1614.77c-15.83,1.16-30.78,1.44-45.63,1.77c-14.82,0.29-29.38,0.64-43.87,1.16
						c-14.53,0.38-28.84,1.6-43.4,2.75c-14.65,1.11-29,3.51-44.96,5.05c11.68-10.68,25.89-18.64,40.92-23.61
						c15.03-4.89,30.79-7.95,46.51-8.33c15.73-0.54,31.45,0.81,46.72,4.14C232.31,1601.16,247.31,1606.19,260.8,1614.77z"/>
				</g>
				<g>
					<path class="st4" d="M299.87,1714.43c-14.02,7.44-27.59,13.73-41.05,20.01c-13.44,6.23-26.63,12.43-39.68,18.75
						c-13.14,6.2-25.75,13.09-38.61,20.01c-12.96,6.92-25.12,14.9-39.11,22.74c6.39-14.48,16.19-27.49,27.94-38.09
						c11.79-10.54,24.97-19.68,39.21-26.36c14.17-6.83,29.11-11.93,44.43-15.04C268.31,1713.46,284.07,1712.02,299.87,1714.43z"/>
				</g>
			</g>
			<g>
				<g>
					<path class="st4" d="M1146.31,1584.98c13.93-7.85,29.18-12.07,44.56-14.72c15.43-2.51,31.2-3.02,46.87-1.64
						c15.68,1.22,31.25,5.1,46,10.79c14.74,5.76,28.51,14.47,39.6,25.75c-15.86-2.38-30.06-5.54-44.63-7.43
						c-14.48-1.93-28.71-3.91-43.19-5.06c-14.44-1.29-28.97-2.42-43.75-3.5C1176.97,1588.06,1162.06,1586.98,1146.31,1584.98z"/>
				</g>
				<g>
					<path class="st4" d="M1108.08,1688.73c15.55-3.71,31.37-3.58,46.89-1.88c15.52,1.84,30.83,5.68,45.52,11.33
						c14.74,5.49,28.64,13.51,41.25,23.04c12.58,9.6,23.42,21.76,30.98,35.66c-14.59-6.66-27.37-13.6-40.86-19.43
						c-13.38-5.84-26.52-11.66-40.13-16.76c-13.53-5.22-27.18-10.31-41.1-15.41C1136.71,1700.13,1122.67,1694.99,1108.08,1688.73z"
						/>
				</g>
				<g>
					<path class="st4" d="M1038.65,1770.21c15.72,2.87,30.15,9.37,43.67,17.17c13.47,7.94,25.92,17.62,37.09,28.71
						c11.28,10.96,20.76,23.91,28.47,37.71c7.65,13.86,12.67,29.35,13.99,45.12c-10.67-11.97-19.57-23.48-29.56-34.25
						c-9.9-10.74-19.57-21.36-29.97-31.51c-10.28-10.23-20.72-20.39-31.4-30.66C1060.26,1792.18,1049.48,1781.82,1038.65,1770.21z"
						/>
				</g>
			</g>
			<g>
				<path class="st4" d="M792.86,2642.62c-0.93-1.53-1.28-2.12-1.79-3.09c-0.45-0.9-0.86-1.72-1.25-2.6
					c-0.69-1.7-1.37-3.4-1.85-5.09c-1.04-3.4-1.64-6.78-2.06-10.16c-0.82-6.76-0.28-13.45,0.56-19.96
					c0.8-6.52,2.39-12.86,4.26-19.03c2.03-6.15,4.46-12.13,7.68-17.83c0.52-0.92,1.68-1.24,2.6-0.72c0.47,0.27,0.79,0.71,0.91,1.2
					l0.01,0.06c0.79,3.16,1.41,6.26,1.93,9.31c0.69,3.06,1.13,6.06,1.72,9.04c1.14,5.94,2.17,11.74,3.42,17.35l3.74,16.28
					c0.62,2.59,1.13,5.18,1.64,7.65l0.66,3.66c0.12,0.55,0.17,1.18,0.26,1.69c0.03,0.45,0.23,1.27-0.05,1.11
					c3.07,6.18,0.55,13.68-5.63,16.76C803.44,2651.32,795.94,2648.8,792.86,2642.62z"/>
			</g>
			<g>
				<path class="st4" d="M859.44,2643.89c-3.16-7.08-4.18-13.3-4.74-20.07c-0.53-6.64-0.02-13.31,0.81-19.87
					c1.77-13.11,5.19-25.98,11.42-37.79c0.49-0.93,1.64-1.28,2.57-0.79c0.5,0.26,0.83,0.71,0.96,1.22l0.01,0.06
					c1.6,6.43,2.64,12.62,3.95,18.71c1.12,6.08,2.45,12.03,3.62,17.89c1.21,5.86,2.68,11.6,3.63,17.29
					c0.97,5.56,1.92,11.64,1.84,16.61l-0.03,1.82c-0.1,6.94-5.81,12.48-12.75,12.38C865.69,2651.26,861.37,2648.21,859.44,2643.89z"
					/>
			</g>
			<g>
				<path class="st4" d="M477.03,2524.71c-0.82,0.43-0.21-0.3-0.16-0.55l0.71-1.32c0.56-0.9,1.08-1.97,1.73-2.96
					c1.17-2.16,2.5-4.32,3.81-6.68c2.55-4.69,5.57-9.57,8.19-14.88c2.73-5.24,5.32-10.77,8.01-16.42c1.31-2.84,2.63-5.71,4.07-8.61
					c1.31-2.92,2.76-5.85,4.36-8.8l0.03-0.05c0.5-0.92,1.66-1.26,2.58-0.76c0.49,0.27,0.82,0.73,0.94,1.23
					c1.56,6.56,2.3,13.17,2.64,19.85c0.16,6.66-0.05,13.41-1.07,20.17c-0.95,6.75-2.46,13.64-5.41,20.25
					c-1.41,3.32-3.22,6.6-5.45,9.74c-1.13,1.6-2.4,3.12-3.83,4.65c-0.69,0.76-1.57,1.51-2.36,2.26c-1.05,0.88-1.52,1.28-3.56,2.72
					c-5.48,4.2-13.32,3.18-17.53-2.3C470.52,2536.76,471.55,2528.92,477.03,2524.71z"/>
			</g>
			<g>
				<path class="st4" d="M532.26,2561.55c-0.79,0.22,0-0.42,0.19-0.73l1.12-1.31l2.57-3c1.73-2.16,3.58-4.41,5.4-6.84
					c3.57-4.88,7.47-10.08,10.89-15.86c3.56-5.68,6.81-11.81,10.15-18.08l4.93-9.61c1.56-3.28,3.25-6.57,5.11-9.88l0.04-0.07
					c0.51-0.9,1.64-1.22,2.54-0.71c0.53,0.3,0.86,0.83,0.94,1.39c0.48,3.77,0.79,7.56,0.97,11.36c0.13,3.8-0.06,7.58-0.16,11.41
					c-0.61,7.59-1.62,15.28-3.73,22.87c-1.99,7.59-4.75,15.27-9.22,22.37c-2.18,3.57-4.79,7.01-7.92,10.18
					c-1.54,1.61-3.29,3.1-5.17,4.55c-0.97,0.73-2.01,1.39-3.09,2.08c-1.28,0.75-1.95,1.15-4.33,2.23
					c-6.17,3.1-13.68,0.62-16.78-5.55C523.61,2572.16,526.1,2564.65,532.26,2561.55z"/>
			</g>
			<g>
				<g>
					
						<ellipse transform="matrix(0.2816 -0.9595 0.9595 0.2816 -965.0297 1505.3964)" class="st4" cx="522.81" cy="1397.16" rx="96.66" ry="65.84"/>
				</g>
				<g>
					
						<ellipse transform="matrix(0.2816 -0.9595 0.9595 0.2816 -938.2878 1516.021)" class="st0" cx="543.28" cy="1384.62" rx="28.23" ry="19.23"/>
				</g>
			</g>
			<g>
				<path class="st4" d="M977.96,1408.32c-12.38,1.68-25.04,3.9-36.91,6.99c-11.95,3.07-23.42,6.99-34.26,11.77
					c-5.5,2.25-10.61,5.15-15.82,7.79l-7.43,4.59c-2.53,1.44-4.89,3.12-7.19,4.87c-9.65,6.46-17.79,14.77-25.84,23.2l-17.24-26.51
					c3.82-0.93,6.37-1.32,9.41-1.71c2.93-0.41,5.81-0.62,8.69-0.84c5.76-0.38,11.49-0.27,17.19,0.07
					c11.39,0.72,22.66,2.94,33.39,6.62c10.65,3.84,21.01,8.52,30.05,15.12c9.33,6.08,17.17,14.04,24.1,22.27
					c2.03,2.41,1.72,6-0.69,8.03c-1.79,1.51-4.24,1.72-6.21,0.74l-0.61-0.31c-4.54-2.26-8.65-4.91-13.06-6.98
					c-4.47-1.99-8.69-4.19-13.22-5.73c-8.86-3.41-17.88-5.91-27.02-7.24c-9.07-1.59-18.27-2.09-27.36-1.74
					c-4.55,0.15-9.06,0.61-13.51,1.16c-2.21,0.34-4.42,0.64-6.55,1.1c-1.09,0.19-2.11,0.45-3.13,0.69l-1.46,0.35l-1.06,0.29
					l-0.42,0.11c-8.79,2.36-17.84-2.85-20.2-11.65c-1.45-5.41,0.03-10.99,3.38-14.98c9.42-11.04,19.64-21.77,31.96-29.78
					c5.82-4.49,12.49-7.58,18.83-11.13c6.7-2.83,13.28-5.92,20.25-7.79c13.75-4.25,27.95-6.51,42.01-6.66
					c14.14-0.01,27.87,1.47,41.55,6.06c3,1.01,4.62,4.26,3.61,7.26c-0.72,2.14-2.57,3.57-4.66,3.86L977.96,1408.32z"/>
			</g>
		</g>
	</g>
</g>
</svg>
