<?xml version="1.0" encoding="utf-8"?>
<!-- Generator: Adobe Illustrator 24.0.2, SVG Export Plug-In . SVG Version: 6.00 Build 0)  -->
<svg version="1.1" id="Layer_1" xmlns="http://www.w3.org/2000/svg" xmlns:xlink="http://www.w3.org/1999/xlink" x="0px" y="0px"
	 viewBox="0 0 4000 4000" style="enable-background:new 0 0 4000 4000;" xml:space="preserve">
<style type="text/css">
	.st0{fill:#FFFFFF;}
	.st1{fill:#FF9331;}
	.st2{opacity:0.6;}
	.st3{fill:#F2D4D4;}
	.st4{fill:#000072;}
	.st5{fill:#42F4D2;}
	.st6{fill:#FFB012;}
	.st7{opacity:0.2;}
	.st8{fill:#AE531E;}
	.st9{fill:#FF48A0;}
	.st10{fill:#D5B3F5;}
	.st11{fill:#FF0068;}
	.st12{fill:#FA509C;}
</style>
<g>
	<g>
		<rect class="st0" width="4000" height="4000"/>
	</g>
	<g>
		<g>
			<path class="st1" d="M3877.26,1926.69c0,319.68-80.33,620.56-221.98,883.62c-271.44,504.32-768.07,869.45-1355.31,960.89
				c0,0,0,0-0.07,0c-94.36,14.72-191.05,22.35-289.5,22.35c-67.32,0-133.81-3.54-199.22-10.56
				c-558.97-59.28-1044.28-365.2-1344.95-806.9c-203.65-299.11-322.68-660.35-322.68-1049.39
				c0-1031.06,835.79-1866.86,1866.86-1866.86S3877.26,895.63,3877.26,1926.69z"/>
		</g>
		<g>
			<g>
				<path class="st1" d="M3724.51,2660.87c-72.43,160.93-196.5,353.34-274.44,447.64c-178.24,215.71-403.96,390.74-661.3,508.96
					c-3.95,1.91-7.9,3.68-11.85,5.45c-1.23,0.55-2.38,1.09-3.61,1.57c-118.35,53.14-243.17,94.3-373.1,121.82
					c-8.72,1.91-17.58,3.68-26.37,5.45c-10.08,1.98-20.1,3.88-30.25,5.72c-14.38,2.59-28.89,4.97-43.4,7.29c0,0,0,0-0.07,0
					c-6.06-0.34-294.2-16.83-415.61-185.39c-26.64-37.06-47.9-96.95-59.41-171.76c-35.43-229.95,20.58-600.53,290.18-879.94
					c45.99-47.69,98.25-92.66,157.32-133.88l912.92-156.98c0,0,81.96,3.68,183.55,61.18
					C3491.83,2367.41,3599.48,2412.25,3724.51,2660.87z"/>
			</g>
			<g class="st2">
				<path class="st0" d="M3724.46,2658.11c-5.18,11.58-10.7,23.3-16.42,35.16c-108.74-185.6-206.31-227.97-316-290.04
					c-101.59-57.44-183.55-61.12-183.55-61.12l-912.92,156.98c-59.07,41.22-111.33,86.19-157.32,133.88
					c-262.11,271.65-322.34,629.55-292.84,860.52c-67.32-211.69-37.95-649.58,269.88-968.58c45.99-47.69,98.25-92.66,157.32-133.88
					l912.92-156.98c0,0,81.96,3.68,183.48,61.12C3491.85,2364.66,3599.5,2409.49,3724.46,2658.11z"/>
			</g>
			<g>
				<path class="st3" d="M3450.07,3108.5c-268.85,325.47-645.97,558.29-1076.23,643.25c-34.34-87.96-53.42-185.6-53.42-288.41
					c0-387.61,271.51-701.77,606.39-701.77C3149.8,2761.57,3344.73,2900.9,3450.07,3108.5z"/>
			</g>
			<g>
				<path class="st4" d="M2300.18,3792.02c-0.51,0-1.09-0.01-1.6-0.04c-12.53-0.71-308.43-19.3-436.2-196.67
					c-63.79-88.58-89.61-274.71-64.25-463.15c31.77-236.1,137.43-457.5,297.52-623.41c48.37-50.15,102.65-96.35,161.34-137.31
					c3.28-2.29,7.03-3.83,10.98-4.51l912.92-156.98c3.79-0.65,7.67-0.5,11.4,0.46c2.87,0.74,71.64,18.55,180.94,59.93
					c103.94,39.35,253.48,136.91,375.58,378.22c3.41,6.74,3.87,14.6,1.27,21.7c-53.86,146.61-195.57,354.68-279,455.61
					c-278.14,336.72-665.95,568.5-1091.96,652.62c-23.95,4.75-48.39,9.07-74.7,13.2C2303.01,3791.91,2301.6,3792.02,2300.18,3792.02
					z M2283.24,2419.61c-53.9,38.07-103.79,80.76-148.35,126.98c-152.09,157.63-252.49,368.17-282.73,592.84
					c-27.14,201.68,9.2,361.18,54.46,424.02c108.03,149.98,361.22,171.8,392.27,173.93c24.48-3.88,47.29-7.93,69.65-12.36
					c413.73-81.7,790.36-306.81,1060.52-633.87c76.58-92.64,211.48-289.97,265.66-428.63c-113.1-217.91-247.38-305.84-340.79-341.2
					c-89.04-33.71-151.47-51.63-169.71-56.64L2283.24,2419.61z"/>
			</g>
			<g>
				<path class="st5" d="M3363.58,2327.88c-117.76,175.27-407.13,341.63-709.31,341.71c-210.6,0.05-398.34-32.85-538.98-141.9
					c45.98-47.7,98.23-92.69,157.29-133.92l912.95-156.93C3185.52,2236.83,3267.63,2261.54,3363.58,2327.88z"/>
			</g>
			<g>
				<path class="st4" d="M2597.09,2698.81c-183.75,0-377.95-57.26-498.38-149.49c-6.16-4.72-10.02-11.85-10.61-19.59
					s2.17-15.37,7.55-20.96c48.35-50.17,102.62-96.38,161.31-137.35c3.29-2.29,7.04-3.84,10.99-4.51l912.95-156.93
					c1.08-0.19,2.17-0.31,3.27-0.36c4.23-0.21,104.79-4.33,207.18,66.45c11.8,8.16,15.26,24.07,7.9,36.39
					c-131.61,220.4-402.46,360.48-743.08,384.32C2636.68,2698.14,2616.94,2698.81,2597.09,2698.81z M2157.31,2524.09
					c108.44,71.43,294.96,132.32,495.06,118.31c310.64-21.75,558.77-143.53,685.97-335.47c-73.08-42.36-139.73-43.08-150.08-42.92
					l-905.03,155.57C2238.19,2451.41,2195.96,2486.46,2157.31,2524.09z"/>
			</g>
			<g>
				
					<ellipse transform="matrix(0.7071 -0.7071 0.7071 0.7071 -1124.9312 2766.4297)" class="st6" cx="2776.91" cy="2741.13" rx="122.64" ry="122.64"/>
			</g>
			<g class="st2">
				<path class="st0" d="M2899.52,2736.77c-20.3-39.86-61.66-67.18-109.42-67.18c-67.72,0-122.64,54.92-122.64,122.64
					c0,1.43,0,2.86,0.07,4.29c-8.45-16.62-13.22-35.43-13.22-55.39c0-67.72,54.92-122.64,122.64-122.64
					C2843.24,2618.49,2897.2,2671.09,2899.52,2736.77z"/>
			</g>
			<g class="st7">
				<path class="st4" d="M2899.55,2741.13c0,67.72-54.92,122.64-122.64,122.64c-67.79,0-122.64-54.92-122.64-122.64
					c0-6.61,0.55-13.08,1.57-19.42c21.05,37.2,60.98,62.27,106.76,62.27c61.12,0,111.81-44.7,121.07-103.22
					C2893.83,2698.54,2899.55,2719.19,2899.55,2741.13z"/>
			</g>
			<g>
				<path class="st4" d="M2776.91,2891.02c-82.65,0-149.89-67.24-149.89-149.89c0-82.65,67.24-149.89,149.89-149.89
					c82.65,0,149.89,67.24,149.89,149.89C2926.8,2823.78,2859.56,2891.02,2776.91,2891.02z M2776.91,2645.74
					c-52.6,0-95.39,42.79-95.39,95.39c0,52.59,42.79,95.39,95.39,95.39s95.39-42.79,95.39-95.39
					C2872.3,2688.53,2829.51,2645.74,2776.91,2645.74z"/>
			</g>
			<g>
				<path class="st1" d="M2737.39,3849.25c-99.88,97.77-307.28,84.69-393.81-91.78c-14.85-30.32-26.16-65.41-32.64-105.68
					c-0.07-0.07-0.07-0.14-0.07-0.14c-1.7-10.22-3.07-20.71-4.09-31.61l-252.09-143.08c0,0,11.79-3.75,32.43-9.27
					c125.16-33.45,575.66-132.45,684.81,141.72c1.77,4.36,3.41,8.86,4.97,13.42v0.07
					C2810.91,3722.11,2787.88,3799.85,2737.39,3849.25z"/>
			</g>
			<g class="st7">
				<path class="st4" d="M2343.58,3757.47c-14.38,2.59-28.89,4.97-43.4,7.29c0,0,0,0-0.07,0c-6.06-0.34-294.2-16.83-415.61-185.39
					c-26.64-37.06-47.9-96.95-59.41-171.76c0.82-4.43,1.84-8.58,3.13-12.4c0,0,117.8,293.86,482.66,256.45c0,0,0,0.07,0.07,0.14
					c1.91,2.73,34.75,50.15,89.25,94.5c54.85,44.63,131.57,86.05,220.68,75.7c149.42-17.31,154.94-151.87,152.41-197.52
					c-0.48-9.4-1.36-15.06-1.36-15.06l16.83,8.04c-3.95,1.91-7.9,3.68-11.85,5.45C2878.16,3918.4,2473.85,4023.19,2343.58,3757.47z"
					/>
			</g>
			<g class="st2">
				<path class="st0" d="M2737.39,3849.25c49.94-156.43-10.12-261.61-128.87-324.1c-195.62-102.95-521.4-57.45-521.4-57.45
					c125.16-33.45,575.66-132.45,684.81,141.72c1.77,4.36,3.41,8.86,4.97,13.42v0.07
					C2810.91,3722.11,2787.88,3799.85,2737.39,3849.25z"/>
			</g>
			<g>
				<path class="st4" d="M2053.44,3472.99c31.74-15.96,64.78-28.18,98.37-38.99c16.82-5.26,33.76-10.29,50.91-14.48
					c17.11-4.39,34.36-8.33,51.76-11.68c34.77-6.74,70.08-11.35,105.73-13.49c35.64-2,71.61-1.07,107.53,2.31
					c35.9,3.67,71.88,9.24,107.37,18.9c35.43,9.58,70.54,23.11,102.84,42.98c32.25,19.71,61.66,45.65,84.21,76.86
					c22.48,31.16,38.63,66.66,47.63,103c9.52,36.36,13.67,75.55,7.04,114.6c-6.21,38.97-23.82,76.92-50.34,106.91
					c-26.4,30.25-61.2,51.6-97.91,64.77c-36.87,13.19-76.29,17.72-114.95,14.53c-38.62-3.48-76.7-14.69-110.6-33.67
					c-33.95-18.82-63.78-44.83-86.79-75.39c-23.11-30.43-40.78-64.56-50.2-100.55c-2-9.09-3.93-18.13-5.56-27.19
					c-1.3-9.11-1.66-18.36-2.21-27.47l-0.46-13.66c0.32-4.59,0.61-9.16,1.07-13.72c0.92-9.12,1.99-18.16,3.76-27.11
					c0.47-2.36,2.76-3.89,5.12-3.43c1.4,0.28,2.51,1.2,3.09,2.4l0.11,0.24c15.47,32.92,25.84,64.51,40.52,93.77
					c14.27,29.11,29.05,57.19,49.18,81.1c20.05,23.79,44.06,43.77,71.17,58c27.08,14.18,56.84,23.28,87.31,25.89
					c30.4,2.94,61.38-0.47,90.08-9.85c28.57-9.51,55.2-25.08,75-46.84c19.86-21.66,33.1-48.72,38.33-78.11
					c5.18-29.43,2.52-60.78-5.46-91.33c-7.63-31.02-20.95-59.69-38.99-84.82c-18.14-25.09-41.71-45.97-68.56-62.42
					c-54.03-32.86-119.97-48.13-186.21-51.85c-33.26-1.84-66.79-1.53-100.43-0.25c-33.66,1.05-67.47,3.09-101.41,5.83
					c-67.96,5.18-136.19,13.8-205.51,22.18l-0.11,0.01c-2.32,0.28-4.43-1.37-4.71-3.69
					C2050.92,3475.46,2051.89,3473.77,2053.44,3472.99z"/>
			</g>
			<g>
				<path class="st1" d="M3553.9,2971.69c-11.65,19.62-45.79,73.04-106.76,140.42c0,0,113.31,419.36-166.04,473.87
					c-40.4,7.9-75.15,2.38-104.38-13.22c-105.88-56.28-138.72-245.01-103.49-408.39c3.54-16.35,7.77-32.5,12.67-48.24
					c0-0.07,0-0.14,0-0.14l0.07-0.14c25.89-82.99,70.72-154.39,133.81-190.77c158.96-91.71,305.37,12.13,333.85,34.48
					c3.27,2.52,4.97,4.02,4.97,4.02S3557.11,2966.38,3553.9,2971.69z"/>
			</g>
			<g class="st2">
				<path class="st0" d="M3558.6,2963.58c0,0-1.5,2.79-4.7,8.11c-68.07-16.35-201.87-69.96-303.67-1.14
					c-99.79,67.46-230.01,378.12-73.51,602.21c-105.88-56.28-138.72-245.01-103.49-408.39c3.54-16.35,7.77-32.5,12.67-48.24
					c0-0.07,0-0.14,0-0.14l0.07-0.14c25.89-82.99,70.72-154.39,133.81-190.77c158.96-91.71,305.37,12.13,333.85,34.48
					C3556.9,2962.08,3558.6,2963.58,3558.6,2963.58z"/>
			</g>
			<g class="st7">
				<path class="st4" d="M3447.14,3112.11c0,0,113.31,419.36-166.04,473.87c-186.96,36.45-252.77-213.19-207.88-421.61l12.67-48.1
					c-3.2,14.04-93.41,418.34,153.37,376.23c251.07-42.86,166.45-459.36,166.45-459.36c36.72,1.7,100.29-38.77,147.92-73.58
					c3.27,2.52,4.97,4.02,4.97,4.02S3524.54,3026.61,3447.14,3112.11z"/>
			</g>
			<g>
				<path class="st4" d="M3245.67,3616.79c-82.38,0-148.38-52.63-184.51-149.22c-67.24-179.72-17.55-472.32,144.99-566.1
					c191.77-110.64,368.59,40.02,370.35,41.56c9.62,8.37,12.15,22.3,6.08,33.52c-1.39,2.58-33.64,61.6-105.58,143
					c12.87,55.76,50.86,255.61-30.12,385.62c-35.86,57.58-89.89,93.76-160.58,107.56
					C3272.39,3615.45,3258.82,3616.79,3245.67,3616.79z M3356.13,2914.96c-38.24,0-79.96,9.06-122.74,33.73
					c-134.12,77.38-179.49,343.94-121.18,499.79c22.7,60.66,69.5,129.12,163.66,110.75c56.02-10.93,96.82-38.04,124.75-82.87
					c80.45-129.16,20.79-354.88,20.18-357.15c-2.42-8.95-0.12-18.52,6.11-25.4c48.88-53.97,80.09-98.92,95.71-123.35
					C3493.33,2950.2,3431.53,2914.96,3356.13,2914.96z"/>
			</g>
			<g>
				<path class="st4" d="M3419.01,3125.17c-1.32-10.14-3.14-20.92-4.99-31.39c-1.89-10.53-3.92-21.08-6.22-31.56
					c-4.63-20.98-9.83-41.82-17.69-62.19c15.52,15.45,29.33,33.05,42.5,50.91c6.59,8.96,12.95,18.07,19.21,27.3
					c6.27,9.3,12.33,18.4,18.41,28.31l0.26,0.42c8.06,13.14,3.94,30.33-9.2,38.4c-13.14,8.06-30.33,3.94-38.4-9.2
					C3420.79,3132.74,3419.51,3128.91,3419.01,3125.17z"/>
			</g>
			<g>
				<path class="st8" d="M3744.61,1593.42c0,5.45-0.07,11.04-0.2,16.69c-6.81,265.72-238.47,408.8-401.99,442.87L2790.54,901.52
					v-20.44c36.86-46.94,103.15-78.56,174.08-90.62c73.24-12.54,151.46-4.29,207.47,29.3c136.27,81.76,143.08,231.65,258.91,306.6
					C3511.93,1178.69,3742.91,1310.05,3744.61,1593.42z"/>
			</g>
			<g class="st2">
				<path class="st0" d="M3744.61,1598.97c0,5.45-0.07,11.04-0.2,16.69c-4.56,178.37-110.44,301.49-229.06,373.44
					c96.41-74.27,174.08-186.21,177.96-338.42c0.14-5.65,0.2-11.24,0.2-16.69c-1.7-283.37-232.68-414.73-313.62-467.05
					c-115.83-74.95-122.64-224.84-258.91-306.6c-56.01-33.59-134.22-41.83-207.47-29.3c-36.45,6.2-71.68,17.58-102.27,33.52
					c38.29-34.82,94.23-58.46,153.37-68.54c73.24-12.54,151.46-4.29,207.47,29.3c136.27,81.76,143.08,231.65,258.91,306.6
					C3511.93,1184.24,3742.91,1315.61,3744.61,1598.97z"/>
			</g>
			<g class="st7">
				<path class="st4" d="M3744.61,1593.42c0,5.45-0.07,11.04-0.2,16.69c-6.81,265.72-238.47,408.8-401.99,442.87L2790.54,901.52
					v-20.44c36.86-46.94,103.15-78.56,174.08-90.62c47.83,26.5,92.25,58.19,131.22,90.82c113.37,94.91,187.03,227.77,281.46,341.55
					c40.68,48.92,85.64,94.98,117.33,150.1c37.06,64.52,56.89,142.6,115.01,189.07C3647.04,1591.92,3697.73,1602,3744.61,1593.42z"
					/>
			</g>
			<g>
				<path class="st8" d="M2166.5,998l-107.31,1272.39c-66.36,10.49-149.35,8.45-231.31-13.76
					c-121.82-33.05-241.53-110.58-301.69-257.61c-111.74-273.01,63.16-484.29,121.35-563.53c81.69-111.13,34.82-253.73,133.2-378.48
					c64.52-81.9,205.01-123.53,311.23-102.88c24.73,4.77,47.63,12.95,67.25,24.8L2166.5,998z"/>
			</g>
			<g class="st7">
				<path class="st4" d="M2166.5,998l-107.31,1272.39c-66.36,10.49-149.35,8.45-231.31-13.76
					c-42.45-35.16-78.35-78.56-105.27-126.66c-57.44-102.68-75.63-224.7-62.61-341.69c9.54-85.92,35.02-169.18,60.37-251.82
					c12.6-41.02,25.21-82.03,37.81-123.05c15.47-50.49,31-101.04,46.54-151.53c12.13-39.52,24.39-79.38,44.22-115.69
					c36.04-65.95,95.45-116.71,161.07-153.44c26.44-14.72,53.89-27.39,81.96-38.63c24.73,4.77,47.63,12.95,67.25,24.8L2166.5,998z"
					/>
			</g>
			<g class="st2">
				<path class="st0" d="M2166.48,991.64l-1.16,14.1c-108.06-35.97-270.15,5.38-340.94,95.18
					c-98.38,124.75-51.58,267.36-133.27,378.48c-58.19,79.24-233.02,290.52-121.28,563.53c14.17,34.61,31.68,65.41,51.71,92.66
					c-38.7-37.88-71.68-85.03-95.39-143.01c-111.67-272.94,63.16-484.29,121.35-563.46c81.69-111.19,34.88-253.73,133.27-378.55
					c79.58-100.97,274.51-140.63,378.48-78.08L2166.48,991.64z"/>
			</g>
			<g>
				<path class="st4" d="M3342.41,2080.23c-10.32,0-19.97-5.88-24.57-15.47L2765.96,913.31c-3.45-7.19-3.46-15.14-0.69-22
					c-3.53-8.75-2.42-19.11,3.84-27.06c84.12-107.06,294.57-141.31,417-67.85c77.65,46.59,117.03,114.45,151.76,174.32
					c30.07,51.82,58.47,100.77,107.93,132.77c4.19,2.71,8.79,5.64,13.74,8.79c95.66,60.88,319.68,203.44,312.11,498.54
					c-3.23,125.98-55.43,239.27-150.97,327.61c-74.89,69.25-174.29,120.73-272.7,141.23
					C3346.12,2080.04,3344.25,2080.23,3342.41,2080.23z M2816.44,892.51l541.08,1128.91c132.38-34.76,353.11-157.27,359.65-412.01
					c6.78-264.27-199.01-395.23-286.89-451.16c-5.08-3.23-9.79-6.23-14.09-9.01c-60.43-39.1-93.49-96.08-125.46-151.18
					c-34.49-59.43-67.06-115.57-132.66-154.93C3062.01,785.51,2886.52,811.72,2816.44,892.51z"/>
			</g>
			<g>
				<path class="st4" d="M1977.89,2303.87c-74.69,0-151.41-14.36-219.53-41.84c-120.67-48.69-209.68-136.07-257.41-252.71
					c-111.8-273.2,47.04-485.99,114.87-576.85c3.51-4.7,6.77-9.07,9.73-13.09c34.88-47.47,44.06-103.31,53.78-162.43
					c11.23-68.3,23.96-145.71,80.02-216.83c88.39-112.12,297.3-154.79,413.94-84.56c8.67,5.22,13.39,14.5,13.19,23.94
					c5.02,5.42,7.83,12.86,7.16,20.8l-107.32,1272.36c-1.06,12.5-10.5,22.66-22.89,24.63
					C2035.65,2301.7,2006.92,2303.87,1977.89,2303.87z M2035.31,976.02c-87.03,0-185.07,36.85-233.15,97.84
					c-47.36,60.08-57.89,124.12-69.04,191.93c-10.34,62.86-21.02,127.86-63.64,185.87c-3.03,4.12-6.37,8.6-9.97,13.42
					c-62.31,83.47-208.23,278.94-108.1,523.6c96.51,235.84,346.36,272.05,482.45,257.55l105.22-1247.45
					C2110.17,983.24,2073.81,976.02,2035.31,976.02z"/>
			</g>
			<g>
				<path class="st1" d="M3529.78,1865.61c-20.44,551.88-756.28,674.52-756.28,674.52s-810.79,136.27-1020.23-422.77
					c-152.35-406.48,71.4-629.55,93.62-769.57c22.14-140.01,165.63-495.19,613.2-565.51c115.49-18.12,217.07-12.67,305.65,7.84
					c277.1,64.25,426.04,276.14,471.07,373.71c51.03,110.44,242.08,228.11,285.07,533.89
					C3528.97,1748.29,3532.03,1803.95,3529.78,1865.61z"/>
			</g>
			<g>
				<path class="st8" d="M3521.88,1697.73c-99.95,77.47-225.45,123.59-361.72,123.59c-326.43,0-591.06-264.63-591.06-591.06
					c0-174.83,75.9-331.95,196.63-440.14c277.1,64.25,426.04,276.14,471.07,373.71C3287.84,1274.28,3478.89,1391.95,3521.88,1697.73
					z"/>
			</g>
			<g class="st2">
				<path class="st0" d="M3529.78,1851.51c-0.07,2.32-0.2,4.63-0.34,6.88c-1.29-29.02-3.88-56.55-7.56-82.78
					c-42.99-305.78-234.04-423.45-285.07-533.89c-40.06-86.8-162.29-264.02-383.8-347.34c0,0.2-0.07,0.41-0.14,0.61
					c-4.57,16.15-36.11,21.39-70.59,11.72c-34.13-9.61-58.19-30.25-54.17-46.33c-79.44-13.97-168.56-15.81-268.04-0.2
					c-447.57,70.31-591.06,425.49-613.2,565.51c-15.53,98.04-130,236.9-144.78,450.98c-18.33-267.36,127.07-431.49,144.78-542.96
					c22.14-140.01,165.63-495.19,613.2-565.51c115.49-18.12,217.07-12.67,305.65,7.84c277.1,64.25,426.04,276.15,471.07,373.71
					c51.03,110.44,242.08,228.11,285.07,533.89C3528.97,1734.19,3532.03,1789.85,3529.78,1851.51z"/>
			</g>
			<g class="st7">
				<path class="st4" d="M3535.16,1876.64c-20.44,551.88-756.28,674.52-756.28,674.52s-810.79,136.27-1020.23-422.77
					c-54.78-146.21-60.91-268.72-45.24-372.14c5.25,66.57,20.64,139.47,50.62,219.53c209.44,559.03,1020.23,422.77,1020.23,422.77
					s677.93-112.97,750.42-610.07C3536.05,1816.41,3536.32,1845.77,3535.16,1876.64z"/>
			</g>
			<g>
				<path class="st4" d="M2562.66,2582.14c-66.65,0-143.99-4.16-224.94-16.82c-309.75-48.47-520.67-200.06-609.96-438.39
					c-116.54-310.94-18.72-522.21,46.01-662.02c22-47.51,40.99-88.54,46.2-121.38c27.39-173.17,195.54-518.98,635.89-588.16
					c110.96-17.42,217.28-14.66,316.02,8.21c337.62,78.28,475.11,357.28,489.67,388.84c14.08,30.47,41.82,63.79,73.95,102.37
					c76.99,92.46,182.43,219.09,213.37,439.15c7.61,54.28,10.35,112.37,8.15,172.66c0,0.01,0,0.01,0,0.02
					c-8.74,235.89-147.12,432.04-400.2,567.25c-188.3,100.6-371.15,131.87-378.84,133.15
					C2772.52,2567.93,2685.85,2582.14,2562.66,2582.14z M2596.8,798.6c-43.13,0-87.37,3.54-132.48,10.62
					c-409.35,64.31-565.26,383.2-590.51,542.84c-6.4,40.34-26.87,84.56-50.58,135.75c-64.56,139.44-152.97,330.39-44.43,619.99
					c83.15,221.96,274.04,357.77,567.35,403.66c221.94,34.73,420.86,2.12,422.84,1.79c1.83-0.31,182.88-31.4,363.36-128.12
					c237.57-127.3,362.12-302.44,370.2-520.54v0.02c2.08-57.11-0.49-111.99-7.66-163.1c-28.78-204.69-124.43-319.56-201.28-411.85
					c-34.58-41.53-64.45-77.4-81.54-114.39c-48.71-105.52-198.81-299.77-452.49-358.59C2707.54,804.63,2653.11,798.6,2596.8,798.6z
					 M3529.78,1865.61h0.07H3529.78z"/>
			</g>
			<g>
				<path class="st4" d="M2516.38,1717.24l203.05-22.9c22.96-2.59,38.1,23.3,24.58,42.04l-90.72,125.72
					c-9.32,12.92-27.82,14.81-39.57,4.06l-112.33-102.82C2484.52,1747.91,2493.67,1719.8,2516.38,1717.24z"/>
			</g>
			<g>
				<g>
					<path class="st4" d="M2633.98,1804.2c13.06,28.68,15.83,61.93,10.41,93.99c-5.49,32.13-19.55,63.08-39.72,89.3
						c-20.15,26.34-46.74,47.51-76.03,62.67c-29.3,15.38-61.27,24.53-93.99,29.08c-32.19,3.75-65.99,1.86-97.96-6.7
						c-32.07-8.38-62.43-23.79-88-44.95c-6.12-5.61-12.27-11.17-18.24-16.88c-5.52-6.18-10.93-12.45-16.13-18.83
						c-4.71-6.79-9.71-13.35-14.03-20.34c-3.94-7.24-7.9-14.44-11.23-21.9c-12.75-30.1-17.19-63.76-8.96-94.84
						c0.69-2.6,3.36-4.15,5.96-3.46c1.34,0.35,2.4,1.24,3.02,2.36l0.05,0.1c14.82,27.16,28.28,50.45,43.83,71.66
						c3.89,5.27,8.12,10.25,11.82,15.49l12.58,14.61c4.52,4.56,9.34,8.79,13.77,13.36l14.67,12.23
						c20.22,15.42,42.88,27.49,67.1,35.35c24.32,7.76,50.01,10.83,76.08,8.18c25.33-2.91,50.42-10.92,72.34-24.12
						c22-13.11,40.99-30.44,57.41-49.81c16.45-19.46,30.01-41.41,40.89-65.53c11.03-24.17,18.86-50.45,25.33-80.01l0.01-0.05
						c0.56-2.58,3.11-4.21,5.69-3.65C2632.18,1801.84,2633.38,1802.89,2633.98,1804.2z"/>
				</g>
				<g>
					<path class="st4" d="M3078.83,1754.46c13.17,29.14,15.92,62.95,10.22,95.51c-1.75,8.04-3.76,16.11-5.94,24.18
						c-2.95,7.74-5.66,15.69-9.11,23.31c-3.89,7.37-7.55,14.95-11.8,22.19c-4.79,6.87-9.26,14.04-14.48,20.62
						c-20.89,26.46-48.32,47.43-78.33,62.27c-15,7.5-30.71,13.44-46.75,18.02c-8.07,1.93-16.19,4.67-24.19,5.72l-12.05,2.05
						l-6.03,1.01c-3,0.31-6.11,0.54-9.16,0.69l2.48-0.11c-2.31,0.16-5.06,0.38-7.01,0.43l-5.83,0.2l-11.67,0.42
						c-1.95,0.05-3.87,0.17-5.86,0.16l-6.07-0.35l-12.15-0.73c-16.17-1.33-32.25-4.28-47.95-8.7
						c-31.39-8.83-61.04-24.38-85.88-45.56c-6.16-5.33-11.9-11.16-17.8-16.75c-5.44-6.06-10.51-12.45-15.7-18.67
						c-4.64-6.67-9.33-13.29-13.63-20.11c-3.84-7.14-7.48-14.37-10.84-21.65c-12.31-29.71-16.46-62.82-8.36-93.39
						c0.69-2.6,3.36-4.15,5.96-3.46c1.34,0.36,2.4,1.24,3.02,2.36l0.05,0.09c14.57,26.72,27.85,49.66,43.09,70.61
						c3.94,5.13,7.96,10.12,11.59,15.3c4.33,4.7,8.21,9.68,12.33,14.43l13.5,13.19c4.83,4.01,9.41,8.3,14.33,12.14
						c19.8,15.26,41.87,27.45,65.56,35.52c11.86,3.98,24.12,6.87,36.58,8.52l9.4,0.95l4.71,0.49c1.62,0.07,3.3,0.01,4.95,0.03
						l9.94-0.01l4.97-0.01l3.78-0.15l2.33-0.09l0.16-0.02c0.65-0.13,1.25-0.16,1.96-0.14l4.98-0.78l9.97-1.53
						c6.83-0.63,12.78-3.1,19.17-4.63c12.52-3.65,24.49-8.99,35.8-15.36c22.63-12.84,42.15-30.25,59.01-49.77
						c4.32-4.81,7.99-10.16,12.1-15.19c3.89-5.19,7.32-10.72,11.09-16.09l9.88-17.06c2.87-5.92,5.74-11.91,8.88-17.91
						c11.19-24.52,19.13-51.15,25.76-81.17l0.02-0.07c0.57-2.57,3.12-4.2,5.69-3.63C3077.02,1752.1,3078.22,1753.15,3078.83,1754.46
						z"/>
				</g>
			</g>
			<g>
				<path class="st4" d="M2866.71,2002.83l-69.36,336.31l-211.21,13.63l-136.88-303.53c113.78-21.67,193.29-127.61,180.21-244.53
					C2642.82,1924.28,2747.89,2011.01,2866.71,2002.83z"/>
			</g>
			<g>
				<path class="st4" d="M2586.13,2380.02c-10.66,0-20.41-6.23-24.84-16.05l-136.88-303.53c-3.43-7.61-3.19-16.37,0.66-23.78
					s10.88-12.64,19.08-14.2c100.02-19.04,169.51-113.29,158.24-214.6c-0.01-0.05-0.01-0.09-0.02-0.14
					c-1.67-14.96,9.1-28.44,24.06-30.11c14.93-1.7,28.44,9.1,30.11,24.05c0.01,0.05,0.01,0.09,0.02,0.14
					c11.77,104.72,103.26,181.12,208.27,173.83c8.52-0.55,16.79,2.84,22.39,9.26c5.61,6.42,7.89,15.09,6.17,23.43l-69.36,336.31
					c-2.48,12.02-12.69,20.9-24.94,21.69l-211.21,13.63C2587.3,2380,2586.71,2380.02,2586.13,2380.02z M2487.32,2067.35
					l115.9,257.01l171.64-11.07l58.42-283.28c-79.32-5.57-149.45-48.28-191.42-112.3
					C2615.62,1986.84,2559.51,2042.97,2487.32,2067.35z"/>
			</g>
			<g>
				<path class="st9" d="M2711.31,2484.13L2711.31,2484.13c-57.83,7.56-110.85-33.19-118.41-91.02l-18.56-141.87
					c-7.56-57.83,33.19-110.85,91.02-118.41l0,0c57.83-7.56,110.85,33.19,118.41,91.02l18.56,141.87
					C2809.89,2423.55,2769.14,2476.57,2711.31,2484.13z"/>
			</g>
			<g>
				<path class="st4" d="M2697.34,2512.3c-29.1,0-57.24-9.52-80.7-27.55c-28.14-21.63-46.17-52.92-50.77-88.1l-18.56-141.87
					c-9.5-72.64,41.87-139.47,114.51-148.97c72.62-9.48,139.47,41.87,148.97,114.51l18.56,141.87
					c9.5,72.64-41.87,139.47-114.51,148.97c0,0,0,0,0,0C2708.99,2511.92,2703.15,2512.3,2697.34,2512.3z M2711.31,2484.13h0.07
					H2711.31z M2679.11,2159.18c-3.37,0-6.78,0.22-10.22,0.66c-42.84,5.61-73.13,45.02-67.53,87.86l18.56,141.87
					c2.71,20.75,13.35,39.21,29.94,51.96c16.59,12.75,37.16,18.29,57.91,15.57h0c42.84-5.61,73.13-45.02,67.53-87.86l-18.56-141.87
					C2751.59,2187.98,2717.83,2159.18,2679.11,2159.18z"/>
			</g>
			<g>
				<path class="st4" d="M2526.39,3904.22c-0.21-5.98,0.12-13.21,0.5-19.87c0.27-6.81,0.79-13.62,1.32-20.46
					c0.98-13.67,2.47-27.43,3.32-41.32c0.92-13.9,1.47-27.91,1.47-42.09c0.39-14.28-0.5-28.49-0.72-43.44l0-0.14
					c-0.02-1.72,1.35-3.14,3.07-3.16c1.13-0.02,2.13,0.57,2.69,1.46c7.99,12.79,14.72,26.55,19.77,40.86
					c5.15,14.3,9.13,29.07,11.78,44.06c2.72,14.98,4.71,30.2,4.56,45.45c-0.03,7.62-0.38,15.26-1.37,22.86
					c-0.94,7.75-2.2,14.91-4.74,23.21c-3.43,11.23-15.31,17.55-26.54,14.12c-8.9-2.72-14.71-10.74-15.04-19.54L2526.39,3904.22z"/>
			</g>
			<g>
				<path class="st4" d="M2659.48,3885.68c-0.59-5.52-0.71-12.38-0.71-18.64c-0.16-6.43,0.01-12.87,0.14-19.35l1.37-39.21
					c0.29-13.19,0.5-26.53,0.2-40c0.06-13.56-0.76-27.11-0.82-41.3l0-0.1c-0.01-1.73,1.39-3.14,3.12-3.15
					c1.1-0.01,2.07,0.57,2.64,1.42c15.65,23.97,26.09,51.07,32.77,78.94c3.35,13.96,5.96,28.18,6.68,42.56
					c0.41,7.18,0.45,14.41-0.06,21.64c-0.51,7.39-1.31,14.19-3.33,22.25c-2.86,11.39-14.42,18.3-25.81,15.44
					c-8.87-2.23-15.02-9.73-15.96-18.32L2659.48,3885.68z"/>
			</g>
			<g>
				<path class="st4" d="M3184.4,3592.04c-3.9-6.57-6.2-12.05-8.4-18.25c-2.18-6.02-3.85-12.18-5.12-18.38
					c-2.68-12.39-3.58-25.07-3.84-37.66c-0.37-25.18,2.33-50.36,10.2-74.38c0.55-1.67,2.34-2.57,4-2.03
					c0.97,0.32,1.69,1.06,2.01,1.96l0.03,0.1c4.1,11.86,7.24,23.42,10.89,34.76c3.31,11.36,7.03,22.47,10.5,33.44
					c3.53,10.98,7.56,21.67,10.74,32.41c1.61,5.38,3.26,10.69,4.57,16.07c1.38,5.18,2.85,11.02,3.4,15.53l0.37,3
					c1.42,11.65-6.86,22.24-18.51,23.66C3196.62,3603.34,3188.58,3599.05,3184.4,3592.04z"/>
			</g>
			<g>
				<path class="st4" d="M3330.92,3574.34c-2.97-3.39-4.82-5.84-6.84-8.78c-1.94-2.88-3.71-5.73-5.32-8.71
					c-3.29-5.87-6.04-11.98-8.31-18.22c-4.67-12.45-7.41-25.48-9.11-38.52c-1.64-13.05-2.35-26.14-1.54-39.14
					c0.69-12.98,2.76-25.85,6.29-38.29c0.48-1.68,2.22-2.66,3.9-2.18c1,0.28,1.75,1.01,2.09,1.91l0.05,0.13
					c4.52,12,8.14,23.59,12.6,34.8c4.04,11.26,8.79,22.09,13.38,32.68c4.65,10.61,10.05,20.7,14.73,30.86
					c2.36,5.09,4.83,10.06,6.99,15.14c1.21,2.44,2.21,5.06,3.33,7.47c0.95,2.4,2.25,5.21,2.64,6.93l1.25,5.58
					c2.53,11.27-4.56,22.45-15.83,24.98C3343.51,3582.71,3335.8,3579.9,3330.92,3574.34z"/>
			</g>
			<g>
				<g>
					
						<ellipse transform="matrix(0.1213 -0.9926 0.9926 0.1213 422.0004 3690.887)" class="st4" cx="2295.71" cy="1607.09" rx="145.18" ry="98.89"/>
				</g>
				<g>
					
						<ellipse transform="matrix(0.1213 -0.9926 0.9926 0.1213 469.3779 3697.2053)" class="st0" cx="2322.98" cy="1583.48" rx="42.4" ry="28.89"/>
				</g>
			</g>
			<g>
				<g>
					
						<ellipse transform="matrix(0.9717 -0.2363 0.2363 0.9717 -279.6115 725.6246)" class="st4" cx="2887.96" cy="1529.53" rx="98.89" ry="145.18"/>
				</g>
				<g>
					
						<ellipse transform="matrix(0.9717 -0.2363 0.2363 0.9717 -275.6671 717.9946)" class="st0" cx="2858.13" cy="1509.27" rx="28.89" ry="42.4"/>
				</g>
			</g>
		</g>
		<g>
			<g>
				<path class="st10" d="M1475.56,1698.69c0,0,252.09-354.29,381.55-286.16c129.45,68.13-27.25,688.15-27.25,688.15
					L1475.56,1698.69z"/>
			</g>
			<g>
				<path class="st10" d="M993.52,1614.95l-473.39,251.14c0,0,15.74-138.45,47.28-287.93c36.04-170.74,92.66-355.93,170.06-365.6
					c72.9-9.06,137.08,92.39,183.01,195.68C965.99,1510.64,993.52,1614.95,993.52,1614.95z"/>
			</g>
			<g>
				<path class="st10" d="M1811.19,3776.41c-558.97-59.28-1044.28-365.2-1344.95-806.9c13.49-18.8,27.32-38.5,41.15-58.94
					c34.54-50.9,69.43-106.36,101.72-164.27c34-61.12,65.14-124.96,89.73-189.14l838.04,74.95l43.13,191.32l65.89,292.43
					c0,0,123.66,123.66,167.27,341.21C1831.42,3547.89,1835.72,3655.07,1811.19,3776.41z"/>
			</g>
			<g class="st7">
				<path class="st4" d="M1811.19,3776.41c-558.97-59.28-1044.28-365.2-1344.95-806.9c13.49-18.8,27.32-38.5,41.15-58.94
					c3.07,6.06,6.4,12.06,10.29,17.78c50.49,74.61,125.77,132.93,211.9,160.32c80.6,25.62,171.29,26.84,240.72,75.15
					c70.65,49.12,105.67,138.45,177.35,186.21c91.64,60.98,212.24,37.27,321.93,28.89c14.51-1.16,30.05-1.7,42.72,5.52
					c12.2,6.95,19.49,19.9,27.53,31.48c58.73,84.08,191.59,103.36,271.78,39.38c0.55,0.61,1.09,1.16,1.57,1.77
					C1831.42,3547.89,1835.72,3655.07,1811.19,3776.41z"/>
			</g>
			<g>
				<path class="st4" d="M1811.21,3803.67c-0.96,0-1.93-0.05-2.9-0.16c-552.99-58.64-1050.37-357.04-1364.61-818.67
					c-6.44-9.46-6.28-21.94,0.39-31.24c54.09-75.32,101.6-149.54,141.21-220.58c36.15-64.99,65.79-127.44,88.09-185.62
					c4.36-11.38,15.71-18.48,27.88-17.39l838.04,74.95c11.79,1.05,21.56,9.6,24.16,21.15l107.36,476.4
					c38.46,41.56,246.18,287.83,167.07,679.29C1835.31,3794.64,1824.03,3803.67,1811.21,3803.67z M499.51,2969.79
					c300.92,432.56,768.8,714.27,1289.55,776.7c65.09-378.55-160.1-609.03-162.44-611.36c-3.65-3.65-6.18-8.25-7.32-13.28
					l-104.65-464.36l-797.93-71.36c-22.18,54.99-50.32,113.23-83.81,173.42C595.05,2827.49,550.21,2898.13,499.51,2969.79z"/>
			</g>
			<g>
				<path class="st11" d="M1580.01,2823.43c-109.76,109.35-318.86,164.61-546.02,129.79C853.1,2925.5,700.2,2846.67,609.11,2746.3
					c34-61.12,65.14-124.96,89.73-189.14l838.04,74.95L1580.01,2823.43z"/>
			</g>
			<g>
				<path class="st4" d="M1169.92,2990.99c-45.67,0-92.59-3.55-140.06-10.82c-181.08-27.76-341.79-106.32-440.93-215.54
					c-7.86-8.66-9.32-21.35-3.64-31.57c36.17-65.01,65.81-127.47,88.1-185.64c4.36-11.38,15.71-18.48,27.88-17.39l838.04,74.95
					c11.79,1.05,21.56,9.6,24.16,21.15l43.13,191.32c2.06,9.14-0.72,18.69-7.35,25.3
					C1503.49,2938.13,1346.15,2990.99,1169.92,2990.99z M642.57,2742c91.74,92.84,234.61,159.61,395.55,184.29
					c203.75,31.22,402.4-12.64,511.91-111.95l-35.36-156.85l-797.93-71.36C696.72,2635.76,671.84,2688.04,642.57,2742z"/>
			</g>
			<g>
				<circle class="st6" cx="1059.95" cy="3013.66" r="115.83"/>
			</g>
			<g class="st2">
				<path class="st0" d="M1175.78,3013.66c0,14.78-2.79,28.96-7.9,41.97c-5.31-59-54.92-105.2-115.28-105.2
					c-49.12,0-91.16,30.66-107.92,73.86c-0.41-3.47-0.55-7.02-0.55-10.63c0-63.98,51.85-115.83,115.83-115.83
					C1123.86,2897.83,1175.78,2949.68,1175.78,3013.66z"/>
			</g>
			<g class="st7">
				<path class="st4" d="M1175.78,3013.66c0,63.98-51.85,115.83-115.83,115.83s-115.83-51.85-115.83-115.83
					c0-16.35,3.41-31.95,9.54-46.13c13.01,49.74,58.25,86.39,112.08,86.39c47.63,0,88.51-28.68,106.29-69.77
					C1174.48,2993.56,1175.78,3003.51,1175.78,3013.66z"/>
			</g>
			<g>
				<path class="st4" d="M1059.95,3156.74c-78.89,0-143.08-64.19-143.08-143.08c0-78.89,64.19-143.08,143.08-143.08
					s143.08,64.19,143.08,143.08C1203.03,3092.55,1138.84,3156.74,1059.95,3156.74z M1059.95,2925.09
					c-48.84,0-88.57,39.74-88.57,88.57c0,48.84,39.73,88.58,88.57,88.58s88.57-39.74,88.57-88.58
					C1148.52,2964.82,1108.79,2925.09,1059.95,2925.09z"/>
			</g>
			<g>
				<path class="st10" d="M1065.74,3510.42c-8.45,60.43-33.52,115.08-80.74,150.51c-163.52,122.64-255.09-183.76-209.31-340.53
					l-80.94-75.9c0,0,1.5-1.91,4.43-5.18c18.4-20.44,93.34-93.41,210.87-75.76C1007.01,3178.07,1086.66,3361.62,1065.74,3510.42z"/>
			</g>
			<g class="st7">
				<path class="st4" d="M1065.74,3510.42c-8.45,60.43-33.52,115.08-80.74,150.51c-163.52,122.64-255.09-183.76-209.31-340.53
					l-80.94-75.9c0,0,1.5-1.91,4.43-5.18c42.24,2.04,96.68,16.56,145.33,66.36c0,0-43.81,245.42,64.59,280.44
					C972.74,3606.69,1029.63,3555.87,1065.74,3510.42z"/>
			</g>
			<g class="st2">
				<path class="st0" d="M1012.33,3635.58c60.03-154.05-28.48-392.93-139.67-409.62c-69.63-10.42-124.28,10.9-161.14,34.34
					l-16.76-15.74c0,0,79.04-101.45,215.3-81.01C1037.88,3182.7,1135.72,3495.7,1012.33,3635.58z"/>
			</g>
			<g>
				<path class="st4" d="M911.93,3713.78c-22.77,0-44.76-7.01-65.1-21.09c-88.28-61.14-125.95-245.73-98.69-364.32l-70.26-65.83
					c-9.31-8.72-10.44-23.11-2.59-33.18c3.59-4.61,89.6-112.49,238.43-90.21c71.24,10.69,136.35,93.17,165.88,210.14
					c27.86,110.37,21.54,255.38-79.79,331.37C970.44,3702.7,940.57,3713.78,911.93,3713.78z M729.69,3243.44l62.89,58.91
					c6.79,6.36,9.42,15.99,6.82,24.93c-31.54,108.05,7.99,278.05,75.54,324.83c28.24,19.56,59.4,15.98,95.27-10.92
					c82.04-61.53,84.43-189.19,61.55-279.81c-23.89-94.62-75.44-165.93-125.35-173.42C817.85,3174.66,756.69,3218.33,729.69,3243.44
					z"/>
			</g>
			<g>
				<path class="st10" d="M1647.26,3751.61l-188.18-47.42c0,0-72.09,133.88-187.91,72.56c-44.7-23.64-73.58-84.15-83.33-154.19
					c-20.44-145.4,41.15-332.01,212.78-315.93c133.54,12.54,196.02,176.67,224.43,301.97
					C1642.97,3687.91,1647.26,3751.61,1647.26,3751.61z"/>
			</g>
			<g class="st7">
				<path class="st4" d="M1647.26,3751.61l-188.18-47.42c0,0-72.09,133.88-187.91,72.56c-44.7-23.64-73.58-84.15-83.33-154.19
					c1.98,2.86,64.11,92.32,137.36,91.98c74.47-0.34,153.1-59.41,166.31-128.43c0,0,41.29,103.15,133.47,22.55l0.07-0.07
					C1642.97,3687.91,1647.26,3751.61,1647.26,3751.61z"/>
			</g>
			<g class="st2">
				<path class="st0" d="M1647.26,3751.62l-8.72-2.18c-19.15-122.1-76.85-357.56-237.92-372.69
					c-137.49-12.88-204.4,104.31-215.1,226.27c-12.4-142.06,51.1-311.78,215.1-296.38
					C1618.64,3327.08,1647.26,3751.62,1647.26,3751.62z"/>
			</g>
			<g>
				<path class="st4" d="M1331.21,3817.58c-22.24,0-46.23-5.59-71.59-19.02c-95.29-50.45-120.73-222.78-83.97-345.89
					c35.43-118.65,118.26-180.82,227.27-170.62c236.22,22.15,267.71,449.69,268.94,467.87c0.53,7.88-2.74,15.54-8.81,20.6
					c-6.06,5.06-14.18,6.91-21.84,4.99l-170.49-42.96C1444.37,3771.65,1394.94,3817.58,1331.21,3817.58z M1380.23,3330.34
					c-100.89,0-141.7,84.24-157.29,136.46c-34,113.85-4.95,253.88,59.77,288.14c92.51,48.99,152.2-57.94,154.7-62.52
					c5.39-9.89,16.81-14.92,27.73-12.17l153.94,38.8c-12.06-97.88-60.16-372.79-220.76-387.85
					C1392.08,3330.62,1386.05,3330.34,1380.23,3330.34z"/>
			</g>
			<g>
				<path class="st4" d="M1428.65,3701.81c3.62-4.53,7.68-10.49,11.33-16c3.74-5.63,7.37-11.41,10.81-17.28
					c6.9-11.74,13.45-23.83,19.03-36.34c11.12-24.99,19.87-51.57,19.37-80.27c4.79,13.47,7.24,28.06,8.26,42.8
					c0.92,14.76,0.15,29.6-1.28,44.42c-1.49,14.82-4.1,29.48-7.24,44.1c-1.57,7.32-3.35,14.58-5.33,21.85
					c-2.03,7.4-3.93,14.24-6.79,22.25l-0.39,1.1c-5.15,14.42-21.01,21.94-35.43,16.79c-14.42-5.15-21.94-21.01-16.79-35.43
					C1425.25,3706.86,1426.82,3704.12,1428.65,3701.81z"/>
			</g>
			<g>
				<g>
					<path class="st4" d="M1829.86,2127.93c-7.72,0-15.2-3.29-20.45-9.24l-354.29-401.99c-8.37-9.49-9.1-23.51-1.76-33.82
						c2.63-3.69,65.22-91.3,145.06-172c114.53-115.77,205.84-157,271.39-122.48c42.02,22.11,92.83,87.38,49.21,397.54
						c-22.94,163.09-62.34,319.84-62.74,321.41c-2.48,9.8-10.18,17.43-20.01,19.81C1834.14,2127.68,1831.99,2127.93,1829.86,2127.93
						z M1510.43,1697.03l305.04,346.1c13.35-58.71,34.95-160.67,49.62-265.16c40.1-285.51-5.69-333.44-20.68-341.33
						C1772.84,1398.98,1610.91,1561.08,1510.43,1697.03z"/>
				</g>
				<g>
					<path class="st4" d="M1768.54,1916.71c-7.52,0-14.83-3.12-20.06-8.8l-156.71-170.33c-8.51-9.25-9.59-23.11-2.62-33.57
						c1.29-1.93,32.04-47.9,70.18-92.11c59.6-69.08,103.84-95.08,139.22-81.81c38.83,14.56,46.83,73.69,27.61,204.08
						c-11.96,81.17-30.34,158.38-31.11,161.63c-2.34,9.8-9.9,17.5-19.65,20.04C1773.13,1916.42,1770.82,1916.71,1768.54,1916.71z
						 M1646.57,1716.63l106.78,116.07c25.09-119.35,35.55-226.33,23.72-251.52C1755.62,1583.99,1697.12,1644.73,1646.57,1716.63z"/>
				</g>
			</g>
			<g>
				<path class="st4" d="M1829.86,2127.93c-7.72,0-15.2-3.29-20.45-9.24l-354.29-401.99c-8.37-9.49-9.1-23.51-1.76-33.82
					c2.63-3.69,65.22-91.3,145.06-172c114.53-115.77,205.84-157,271.39-122.48c42.02,22.11,92.83,87.38,49.21,397.54
					c-22.94,163.09-62.34,319.84-62.74,321.41c-2.48,9.8-10.18,17.43-20.01,19.81C1834.14,2127.68,1831.99,2127.93,1829.86,2127.93z
					 M1510.43,1697.03l305.04,346.1c13.35-58.71,34.95-160.67,49.62-265.16c40.1-285.51-5.69-333.44-20.68-341.33
					C1772.84,1398.98,1610.91,1561.08,1510.43,1697.03z"/>
			</g>
			<g>
				<g>
					<path class="st4" d="M520.16,1893.32c-5.38,0-10.74-1.59-15.35-4.73c-8.36-5.69-12.88-15.55-11.73-25.6
						c0.18-1.6,18.63-162.18,54.72-322.87c68.64-305.59,139.22-348.73,186.33-354.6c73.49-9.16,144.39,61.63,210.7,210.37
						c46.22,103.68,73.88,207.74,75.03,212.12c3.23,12.24-2.4,25.09-13.58,31.02l-473.36,251.1
						C528.92,1892.27,524.54,1893.32,520.16,1893.32z M746.47,1239.28c-1.87,0-3.74,0.11-5.6,0.35
						c-16.81,2.09-76.57,30.78-139.8,312.07c-23.14,102.95-38.92,205.97-47.14,265.62l407.55-216.19
						C916.5,1442.23,825.48,1239.28,746.47,1239.28z"/>
				</g>
				<g>
					<path class="st4" d="M652.07,1717.34c-5.54,0-11.04-1.68-15.73-5c-8.23-5.81-12.57-15.69-11.31-25.68
						c0.42-3.31,10.47-82.04,27.92-162.21c28.01-128.69,56.35-181.21,97.76-181.21c0.03,0,0.06,0,0.09,0
						c37.79,0.07,70,40,101.39,125.67c20.09,54.82,32.63,108.69,33.15,110.95c2.83,12.24-3.07,24.84-14.3,30.48l-206.73,104.08
						C660.45,1716.38,656.26,1717.34,652.07,1717.34z M752.71,1398.78c-19.94,19.78-47.82,123.35-66.4,243.56l140.87-70.92
						C805.39,1486.84,772.34,1409.82,752.71,1398.78z"/>
				</g>
			</g>
			<g>
				<path class="st4" d="M520.16,1893.32c-5.38,0-10.74-1.59-15.35-4.73c-8.36-5.69-12.88-15.55-11.73-25.6
					c0.18-1.6,18.63-162.18,54.72-322.87c68.64-305.59,139.22-348.73,186.33-354.6c73.49-9.16,144.39,61.63,210.7,210.37
					c46.22,103.68,73.88,207.74,75.03,212.12c3.23,12.24-2.4,25.09-13.58,31.02l-473.36,251.1
					C528.92,1892.27,524.54,1893.32,520.16,1893.32z M746.47,1239.28c-1.87,0-3.74,0.11-5.6,0.35
					c-16.81,2.09-76.57,30.78-139.8,312.07c-23.14,102.95-38.92,205.97-47.14,265.62l407.55-216.19
					C916.5,1442.23,825.48,1239.28,746.47,1239.28z"/>
			</g>
			<g>
				<g>
					<path class="st12" d="M1611.83,1719.13c0,0,122.64-183.96,177.15-163.52c54.51,20.44-20.44,333.85-20.44,333.85
						L1611.83,1719.13z"/>
				</g>
				<g>
					<path class="st12" d="M858.81,1586.01c0,0-49.83-215.4-108.04-215.51c-58.21-0.11-98.69,319.59-98.69,319.59L858.81,1586.01z"
						/>
				</g>
			</g>
			<g>
				<path class="st4" d="M1768.54,1907.08c-4.86,0-9.59-2.01-12.97-5.69l-156.71-170.33c-5.5-5.98-6.2-14.95-1.69-21.71
					c30.59-45.88,135.29-193.76,198-170.25c23.44,8.79,44.31,38.67,21.47,193.66c-11.9,80.75-30.77,160-30.95,160.79
					c-1.51,6.33-6.4,11.32-12.71,12.96C1771.51,1906.9,1770.01,1907.08,1768.54,1907.08z M1634.26,1717.47l124.45,135.27
					c6.24-28.98,15.28-73.72,22.21-119.5c21.95-144.97,1.8-161.12,1.6-161.26C1759.53,1563.32,1687.96,1639.71,1634.26,1717.47z"/>
			</g>
			<g>
				<path class="st4" d="M652.07,1707.71c-3.58,0-7.14-1.09-10.17-3.23c-5.32-3.76-8.13-10.15-7.32-16.61
					c0.1-0.81,10.42-81.62,27.78-161.37c33.29-152.91,63.33-173.63,88.34-173.63c0.03,0,0.06,0,0.09,0
					c66.99,0.13,112.76,175.44,125.19,229.17c1.83,7.92-1.99,16.06-9.25,19.72L660,1705.83
					C657.49,1707.09,654.78,1707.71,652.07,1707.71z M750.73,1388.12c0.05,0.03-24.5,8.04-55.12,151.42
					c-9.67,45.28-17,90.34-21.39,119.65l164.18-82.65C815.57,1484.84,775.55,1388.17,750.73,1388.12z"/>
			</g>
			<g class="st7">
				<path class="st4" d="M993.52,1614.95l-473.39,251.14c0,0,15.74-138.45,47.28-287.93c84.21-62.07,219.73-147.51,353.07-169.92
					C965.99,1510.64,993.52,1614.95,993.52,1614.95z"/>
			</g>
			<g class="st7">
				<path class="st4" d="M1485.74,1679l356.91,399.74c0,0,33.26-135.31,55.51-286.46c-57.46-87.42-154.93-214.56-272.22-281.83
					C1547.74,1590.71,1485.74,1679,1485.74,1679z"/>
			</g>
			<g>
				<path class="st10" d="M1876.39,2336.97c-61.3,413.16-425.93,563.61-839.09,502.31s-718.4-311.13-657.1-724.29
					s445.93-698.4,859.08-637.1S1937.69,1923.82,1876.39,2336.97z"/>
			</g>
			<g class="st2">
				<path class="st0" d="M1863.38,2334.92c-1.91,12.81-4.09,25.41-6.61,37.75c38.97-398.51-241.33-761.73-641.82-821.14
					c-60.23-8.93-119.85-10.49-177.96-5.38v0.07c2.11,19.28-28,38.43-67.32,42.72c-32.23,3.54-60.57-3.95-70.86-17.37
					c-265.79,74.95-478.84,293.18-536.14,578.32c1.16-12.2,2.73-24.53,4.57-37c61.25-413.09,445.87-698.37,859.03-637.05
					C1639.42,1537.07,1924.7,1921.75,1863.38,2334.92z"/>
			</g>
			<g class="st7">
				<path class="st4" d="M1895.1,2339.04c-61.25,413.16-425.9,563.6-839.06,502.35c-397.15-58.94-694.55-292.02-662.6-676.97
					c27.59,319.89,304.56,514.61,662.6,567.76c413.16,61.25,777.81-89.19,839.06-502.35c2.86-19.08,4.91-38.09,6.34-57.03
					C1905.39,2227.17,1903.41,2282.83,1895.1,2339.04z"/>
			</g>
			<g>
				<path class="st4" d="M1211.01,2879.83c-57.13,0-116.52-4.51-177.7-13.58c-219.8-32.61-400.26-114.91-521.86-238.01
					c-133.63-135.27-188.33-314.13-158.2-517.25c63.41-427.36,462.68-723.45,890.04-660.06
					c427.36,63.41,723.46,462.68,660.06,890.04l0,0c-30.14,203.12-134.42,358.39-301.56,449.03
					C1492.03,2849.53,1359.1,2879.83,1211.01,2879.83z M1127.84,1496.89c-355.09,0-667.02,260.55-720.67,622.09
					c-64.14,432.31,285.52,641.61,634.14,693.33c348.61,51.74,743.99-47.04,808.13-479.35c59-397.63-216.51-769.13-614.14-828.12
					C1199.21,1499.49,1163.28,1496.89,1127.84,1496.89z M1876.4,2336.97h0.07H1876.4z"/>
			</g>
			<g>
				<path class="st4" d="M1072.75,2185.18l123.99,10.3c14.02,1.17,20,18.42,9.71,28.01l-69.04,64.38
					c-7.09,6.61-18.37,5.56-24.11-2.25l-54.95-74.68C1050.11,2199.74,1058.89,2184.03,1072.75,2185.18z"/>
			</g>
			<g>
				<g>
					<path class="st4" d="M863.34,2245.36c8.31,17.96,15.5,32.4,23.62,45.38c8,12.92,16.43,24.34,26,34.62
						c9.5,10.25,19.91,19.73,32.08,26.99c12.26,7.21,25.82,11.7,40.69,12.57l4.47,0.03l5.73-0.13c3.95,0.11,7.26-0.7,10.82-1.06
						c6.99-1.06,13.81-2.93,20.36-5.39c13.06-5.04,25.2-12,36.17-20.62c11.17-8.49,20.79-18.8,30.16-30.26
						c9.71-11.45,19.33-23.86,32.42-39.99l0.12-0.15c1.87-2.3,5.25-2.65,7.55-0.78c0.58,0.47,1.05,1.07,1.38,1.7
						c10.07,19.43,9.73,41.98,3.06,62.24c-7.01,20.24-20.16,38.27-36.29,52.74c-16.3,14.36-35.96,24.97-56.89,30.71
						c-10.43,2.96-21.14,4.87-31.87,5.67c-5.33,0.29-10.87,0.93-15.86,0.56l-7.64-0.24l-3.98-0.1l-4.91-0.32
						c-20.68-2.2-42.06-7.69-61.5-16.87c-19.53-9.09-37.55-22.28-51.09-39.28c-13.44-16.99-22.6-37.39-25.41-58.47
						c-2.73-21.01,0.49-42.69,11.73-60.3c1.52-2.39,4.7-3.09,7.08-1.56c0.86,0.55,1.5,1.31,1.9,2.17L863.34,2245.36z"/>
				</g>
				<g>
					<path class="st4" d="M1134.92,2268.26c8.18,17.67,15.25,31.93,23.25,44.74c7.85,12.76,16.12,24.05,25.48,34.21
						c9.26,10.18,19.46,19.51,31.26,26.89c11.79,7.31,25.35,12.15,39.42,13.31l2.11,0.31c0.12-0.07,0.18-0.07,0.33-0.02l2.8,0.04
						l5.58,0.07c3.78,0.23,7.25-0.61,10.86-0.85c7.13-0.89,14.1-2.69,20.81-5.05c13.36-4.91,25.79-11.83,36.99-20.53
						c11.42-8.51,21.24-18.93,30.77-30.53c9.83-11.6,19.57-24.16,32.87-40.53l0.12-0.15c1.87-2.3,5.25-2.65,7.55-0.78
						c0.58,0.47,1.05,1.07,1.38,1.7c10.22,19.74,9.72,42.68,2.71,63.18c-7.3,20.51-20.9,38.67-37.47,53.15
						c-16.78,14.32-36.93,24.78-58.29,30.19c-10.64,2.82-21.55,4.49-32.44,5.15c-5.43,0.13-10.98,0.75-16.26,0.22l-7.99-0.39
						l-3.99-0.19c-2.1-0.22-4.29-0.51-6.41-0.84l2.11,0.31c-20.84-2.66-41.43-8.35-60.54-17.72c-19.1-9.26-36.55-22.61-49.62-39.53
						c-12.96-16.93-21.73-37.07-24.31-57.83c-2.48-20.7,0.78-41.98,11.87-59.3c1.53-2.39,4.7-3.08,7.09-1.56
						c0.86,0.55,1.5,1.31,1.89,2.17L1134.92,2268.26z"/>
				</g>
			</g>
			<g>
				<path class="st4" d="M1098.28,2706.06c-3.27,0-6.54-0.17-9.82-0.5c-52.04-5.34-94.59-52.1-116.74-128.31
					c-15.05-51.83-19.59-112.69-13.14-176c0.43-4.13,0.86-8.1,1.36-12.15c1.75-14.26,14.26-24.75,28.62-23.89
					c59.27,3.35,109.64-40.29,114.69-99.5c0-0.05,0.01-0.1,0.01-0.14c1.27-15,14.47-26.12,29.45-24.85
					c14.99,1.27,26.13,14.45,24.86,29.44c0,0.05-0.01,0.1-0.01,0.15c-4.97,59.36,37.52,110.84,96.78,117.23
					c14.5,1.56,25.2,14.26,24.28,28.82c-0.36,5.7-0.86,11.47-1.44,17.31c-6.38,62.79-22.93,121.1-47.88,168.72
					C1194.45,2668.85,1147.16,2706.06,1098.28,2706.06z M1011.7,2419.09c-3.93,51.34,0.38,101.7,12.36,142.95
					c15.41,53,41.56,86.38,69.95,89.3c28.56,2.94,61.1-24.84,87-74.25c20.34-38.82,34.78-88.38,40.99-140.38
					c-43.34-11.9-78.58-40.56-99.25-78.14C1096.03,2392.2,1056.43,2414.61,1011.7,2419.09z"/>
			</g>
			<g>
				<path class="st4" d="M1098.28,2706.06c-3.27,0-6.54-0.17-9.82-0.5c-52.04-5.34-94.59-52.1-116.74-128.31
					c-1.97-6.78-1.24-14.05,2.05-20.29c24.23-46.1,71.62-74.73,123.67-74.73c61.38,0,116.42,41.02,133.85,99.77
					c2.02,6.8,1.3,14.12-1.99,20.4C1194.44,2668.85,1147.16,2706.06,1098.28,2706.06z M1027.55,2573.19
					c15.7,46.5,40.11,75.44,66.45,78.15c26.51,2.72,56.44-21,81.31-63.91c-13.43-30.31-44.08-50.7-77.89-50.7
					C1069.28,2536.73,1043.37,2550.46,1027.55,2573.19z"/>
			</g>
			<g>
				<path class="st4" d="M1211.01,2879.83c-57.13,0-116.52-4.51-177.7-13.58c-219.8-32.61-400.26-114.91-521.86-238.01
					c-133.63-135.27-188.33-314.13-158.2-517.25c63.41-427.36,462.68-723.45,890.04-660.06
					c427.36,63.41,723.46,462.68,660.06,890.04l0,0c-30.14,203.12-134.42,358.39-301.56,449.03
					C1492.03,2849.53,1359.1,2879.83,1211.01,2879.83z M1127.84,1496.89c-355.09,0-667.02,260.55-720.67,622.09
					c-64.14,432.31,285.52,641.61,634.14,693.33c348.61,51.74,743.99-47.04,808.13-479.35c59-397.63-216.51-769.13-614.14-828.12
					C1199.21,1499.49,1163.28,1496.89,1127.84,1496.89z M1876.4,2336.97h0.07H1876.4z"/>
			</g>
			<g>
				<path class="st4" d="M1072.75,2185.18l123.99,10.3c14.02,1.17,20,18.42,9.71,28.01l-69.04,64.38
					c-7.09,6.61-18.37,5.56-24.11-2.25l-54.95-74.68C1050.11,2199.74,1058.89,2184.03,1072.75,2185.18z"/>
			</g>
			<g>
				<path class="st4" d="M1251.4,2414.63c-0.34,5.38-0.82,10.83-1.36,16.35c-6.2,61.05-22.55,116.1-44.9,158.75
					c-30.39,57.98-71.88,93-113.92,88.71c-41.83-4.29-75.22-46.47-93.34-108.81c-13.49-46.47-18.46-104.11-12.2-165.63
					c0.41-3.88,0.82-7.7,1.29-11.58c73.45,4.22,137.22-50.83,143.42-124.55C1124.13,2341.8,1178.09,2406.73,1251.4,2414.63z"/>
			</g>
			<g>
				<path class="st9" d="M1205.14,2589.73c-30.39,57.98-71.88,93-113.92,88.71c-41.83-4.29-75.22-46.47-93.34-108.81
					c18.8-35.77,56.35-60.16,99.54-60.16C1148.32,2509.47,1191.38,2543.34,1205.14,2589.73z"/>
			</g>
			<g>
				<path class="st4" d="M1098.28,2706.06c-3.27,0-6.54-0.17-9.82-0.5c-52.04-5.34-94.59-52.1-116.74-128.31
					c-15.05-51.83-19.59-112.69-13.14-176c0.43-4.13,0.86-8.1,1.36-12.15c1.75-14.26,14.26-24.75,28.62-23.89
					c59.27,3.35,109.64-40.29,114.69-99.5c0-0.05,0.01-0.1,0.01-0.14c1.27-15,14.47-26.12,29.45-24.85
					c14.99,1.27,26.13,14.45,24.86,29.44c0,0.05-0.01,0.1-0.01,0.15c-4.97,59.36,37.52,110.84,96.78,117.23
					c14.5,1.56,25.2,14.26,24.28,28.82c-0.36,5.7-0.86,11.47-1.44,17.31c-6.38,62.79-22.93,121.1-47.88,168.72
					C1194.45,2668.85,1147.16,2706.06,1098.28,2706.06z M1011.7,2419.09c-3.93,51.34,0.38,101.7,12.36,142.95
					c15.41,53,41.56,86.38,69.95,89.3c28.56,2.94,61.1-24.84,87-74.25c20.34-38.82,34.78-88.38,40.99-140.38
					c-43.34-11.9-78.58-40.56-99.25-78.14C1096.03,2392.2,1056.43,2414.61,1011.7,2419.09z"/>
			</g>
			<g>
				<g>
					<path class="st4" d="M508.07,2182.43c-21.91-4.57-42.29-10-62.54-15.32c-20.2-5.36-40.08-10.53-59.93-15.45
						c-19.84-5.13-39.72-9.03-59.9-13.12c-20.29-4.18-40.67-6.5-62.91-10.62c19.98-9.94,42.34-15.21,64.63-16.11
						c22.28-0.79,44.82,1.18,66.28,6.77c21.53,5.37,42.32,13.31,61.73,23.74C474.73,2152.92,493.11,2165.57,508.07,2182.43z"/>
				</g>
				<g>
					<path class="st4" d="M511.32,2338.32c-22.33,1.64-43.41,2.03-64.34,2.49c-20.89,0.4-41.43,0.91-61.87,1.64
						c-20.48,0.54-40.67,2.25-61.2,3.88c-20.65,1.57-40.89,4.95-63.4,7.11c16.47-15.05,36.51-26.28,57.7-33.29
						c21.2-6.9,43.41-11.21,65.59-11.74c22.18-0.77,44.34,1.14,65.88,5.83C471.14,2319.13,492.3,2326.23,511.32,2338.32z"/>
				</g>
				<g>
					<path class="st4" d="M566.41,2478.86c-19.77,10.5-38.91,19.35-57.88,28.21c-18.96,8.79-37.55,17.53-55.96,26.43
						c-18.53,8.74-36.32,18.45-54.44,28.22c-18.27,9.76-35.43,21.01-55.16,32.06c9.01-20.42,22.83-38.76,39.39-53.72
						c16.62-14.86,35.21-27.75,55.29-37.18c19.99-9.64,41.05-16.83,62.65-21.21C521.91,2477.48,544.13,2475.46,566.41,2478.86z"/>
				</g>
			</g>
			<g>
				<g>
					<path class="st4" d="M1759.99,2296.31c19.64-11.06,41.14-17.03,62.83-20.75c21.76-3.54,43.99-4.26,66.1-2.32
						c22.12,1.71,44.07,7.2,64.87,15.22c20.79,8.13,40.2,20.4,55.85,36.31c-22.36-3.36-42.39-7.81-62.93-10.48
						c-20.41-2.72-40.48-5.51-60.91-7.13c-20.36-1.82-40.85-3.42-61.69-4.93C1803.22,2300.65,1782.19,2299.14,1759.99,2296.31z"/>
				</g>
				<g>
					<path class="st4" d="M1706.08,2442.62c21.93-5.23,44.24-5.04,66.12-2.65c21.89,2.59,43.47,8.02,64.18,15.97
						c20.79,7.74,40.38,19.05,58.17,32.49c17.74,13.53,33.03,30.68,43.69,50.28c-20.57-9.38-38.6-19.18-57.61-27.4
						c-18.87-8.24-37.4-16.44-56.59-23.63c-19.08-7.36-38.33-14.53-57.95-21.73C1746.45,2458.7,1726.65,2451.45,1706.08,2442.62z"/>
				</g>
				<g>
					<path class="st4" d="M1608.17,2557.51c22.17,4.05,42.52,13.21,61.58,24.22c18.99,11.19,36.55,24.85,52.3,40.48
						c15.91,15.46,29.28,33.71,40.15,53.18c10.78,19.54,17.86,41.39,19.72,63.63c-15.05-16.88-27.6-33.11-41.69-48.29
						c-13.95-15.14-27.6-30.12-42.27-44.43c-14.49-14.42-29.22-28.75-44.28-43.24C1638.64,2588.49,1623.44,2573.88,1608.17,2557.51z
						"/>
				</g>
			</g>
			<g>
				<path class="st4" d="M1261.59,3787.71c-1.31-2.16-1.81-2.99-2.52-4.36c-0.64-1.27-1.21-2.42-1.76-3.66
					c-0.97-2.4-1.93-4.79-2.61-7.18c-1.47-4.79-2.32-9.56-2.9-14.33c-1.15-9.53-0.4-18.97,0.78-28.14
					c1.13-9.2,3.37-18.13,6.01-26.83c2.86-8.68,6.29-17.1,10.82-25.14c0.73-1.3,2.38-1.75,3.67-1.02c0.67,0.38,1.11,1,1.29,1.69
					l0.02,0.09c1.11,4.46,1.99,8.82,2.72,13.12c0.98,4.32,1.59,8.55,2.43,12.75c1.61,8.37,3.06,16.56,4.82,24.47l5.27,22.96
					c0.87,3.65,1.6,7.3,2.31,10.79l0.93,5.16c0.17,0.77,0.24,1.66,0.37,2.39c0.05,0.63,0.32,1.79-0.07,1.57
					c4.33,8.72,0.78,19.3-7.93,23.63C1276.5,3799.98,1265.92,3796.43,1261.59,3787.71z"/>
			</g>
			<g>
				<path class="st4" d="M1355.47,3789.5c-4.45-9.99-5.9-18.76-6.69-28.3c-0.75-9.36-0.03-18.77,1.14-28.02
					c2.49-18.49,7.32-36.64,16.1-53.29c0.69-1.31,2.31-1.81,3.62-1.12c0.7,0.37,1.17,1,1.35,1.71l0.02,0.08
					c2.26,9.07,3.73,17.79,5.57,26.38c1.58,8.57,3.45,16.97,5.1,25.23c1.7,8.27,3.79,16.35,5.12,24.39
					c1.37,7.84,2.7,16.42,2.6,23.42l-0.04,2.57c-0.14,9.79-8.19,17.6-17.98,17.46C1364.27,3799.9,1358.19,3795.6,1355.47,3789.5z"/>
			</g>
			<g>
				<path class="st4" d="M816.22,3621.45c-1.16,0.61-0.29-0.42-0.22-0.77l1-1.86c0.78-1.27,1.53-2.78,2.44-4.18
					c1.65-3.04,3.53-6.1,5.38-9.42c3.59-6.62,7.86-13.5,11.55-20.99c3.85-7.39,7.51-15.19,11.29-23.16
					c1.85-4.01,3.71-8.06,5.74-12.14c1.85-4.12,3.89-8.25,6.15-12.41l0.04-0.07c0.71-1.3,2.34-1.78,3.64-1.07
					c0.69,0.38,1.15,1.02,1.33,1.73c2.2,9.25,3.25,18.57,3.72,27.99c0.22,9.39-0.07,18.91-1.52,28.44
					c-1.33,9.52-3.48,19.23-7.62,28.56c-1.98,4.68-4.55,9.31-7.68,13.73c-1.6,2.26-3.38,4.39-5.4,6.55
					c-0.97,1.07-2.21,2.13-3.33,3.18c-1.47,1.24-2.14,1.81-5.01,3.83c-7.72,5.93-18.79,4.48-24.72-3.24
					S808.5,3627.38,816.22,3621.45z"/>
			</g>
			<g>
				<path class="st4" d="M894.11,3673.39c-1.12,0.31,0-0.6,0.26-1.03l1.58-1.85l3.62-4.23c2.44-3.04,5.05-6.21,7.61-9.64
					c5.03-6.88,10.53-14.22,15.35-22.36c5.02-8.02,9.61-16.65,14.32-25.49l6.95-13.56c2.2-4.62,4.59-9.26,7.21-13.93l0.06-0.1
					c0.71-1.27,2.32-1.72,3.58-1c0.75,0.42,1.22,1.17,1.32,1.96c0.68,5.31,1.11,10.65,1.37,16.01c0.18,5.35-0.08,10.69-0.22,16.09
					c-0.86,10.71-2.29,21.54-5.25,32.24c-2.8,10.7-6.7,21.53-13,31.54c-3.08,5.03-6.75,9.89-11.17,14.36
					c-2.18,2.27-4.64,4.37-7.3,6.42c-1.37,1.03-2.84,1.96-4.35,2.93c-1.8,1.05-2.75,1.62-6.11,3.15c-8.7,4.37-19.29,0.87-23.67-7.83
					C881.91,3688.36,885.41,3677.76,894.11,3673.39z"/>
			</g>
			<g>
				<g>
					
						<ellipse transform="matrix(0.2816 -0.9595 0.9595 0.2816 -1316.5002 2304.5762)" class="st4" cx="880.78" cy="2031.47" rx="136.3" ry="92.84"/>
				</g>
				<g>
					
						<ellipse transform="matrix(0.2816 -0.9595 0.9595 0.2816 -1278.7917 2319.5576)" class="st0" cx="909.65" cy="2013.78" rx="39.81" ry="27.12"/>
				</g>
			</g>
			<g>
				<path class="st4" d="M1522.59,2047.21c-17.46,2.38-35.31,5.49-52.05,9.86c-16.86,4.33-33.02,9.86-48.31,16.6
					c-7.75,3.18-14.96,7.26-22.31,10.99l-10.48,6.47c-3.57,2.04-6.89,4.4-10.14,6.87c-13.61,9.11-25.08,20.82-36.44,32.72
					l-24.3-37.38c5.39-1.31,8.98-1.87,13.27-2.41c4.13-0.57,8.19-0.87,12.26-1.18c8.12-0.54,16.21-0.38,24.24,0.09
					c16.06,1.01,31.96,4.15,47.09,9.34c15.02,5.41,29.63,12.01,42.37,21.32c13.15,8.58,24.21,19.8,33.98,31.41
					c2.86,3.4,2.42,8.46-0.97,11.32c-2.52,2.12-5.97,2.43-8.75,1.05l-0.86-0.43c-6.4-3.19-12.2-6.92-18.42-9.84
					c-6.3-2.8-12.26-5.91-18.64-8.08c-12.49-4.81-25.21-8.33-38.1-10.21c-12.79-2.24-25.76-2.95-38.59-2.46
					c-6.41,0.21-12.78,0.86-19.05,1.64c-3.11,0.48-6.24,0.91-9.24,1.55c-1.54,0.27-2.97,0.63-4.41,0.97l-2.06,0.49l-1.5,0.4
					l-0.59,0.16c-12.4,3.33-25.15-4.02-28.48-16.42c-2.05-7.63,0.04-15.5,4.77-21.12c13.28-15.56,27.7-30.69,45.06-41.99
					c8.2-6.33,17.61-10.69,26.56-15.69c9.44-3.99,18.73-8.35,28.56-10.99c19.4-5.99,39.41-9.18,59.25-9.39
					c19.93-0.01,39.31,2.08,58.6,8.55c4.23,1.42,6.51,6.01,5.09,10.24c-1.01,3.01-3.62,5.03-6.57,5.44L1522.59,2047.21z"/>
			</g>
		</g>
	</g>
</g>
</svg>
