<svg width="27" height="27" viewBox="0 0 27 27" fill="none" xmlns="http://www.w3.org/2000/svg">
<g clip-path="url(#clip0)">
<path d="M25.3864 10.4336L25.3855 10.4328L25.3835 10.4312L25.3826 10.4303L21.4998 7.14846V5.6119C21.4998 5.41768 21.326 5.2603 21.1115 5.2603C20.8971 5.2603 20.7233 5.41768 20.7233 5.6119V13.9255L14.2991 19.3554C13.7914 19.7846 12.9961 19.7846 12.4885 19.3554L6.06413 13.9255V3.67935C6.06413 3.44495 6.27465 3.2543 6.53341 3.2543H20.254C20.5127 3.2543 20.7233 3.44495 20.7233 3.67935L20.7233 6.34172C20.7233 6.95401 20.8971 7.54993 21.1115 7.54993C21.326 7.54993 21.4998 6.5744 21.4998 6.38018L21.4997 3.67935C21.4997 3.05722 20.9409 2.55111 20.254 2.55111H16.0604L14.8288 1.51011C14.0242 0.829987 12.7635 0.82994 11.9587 1.51011L10.727 2.55111H6.53346C5.84652 2.55111 5.28774 3.05726 5.28774 3.67935V7.14855L1.40504 10.4303L1.4039 10.4312L1.40209 10.4328L1.40121 10.4336C1.14623 10.6466 1 10.9486 1 11.2628V23.0951C1 24.1454 1.94358 25 3.10332 25H4.89953C5.11398 25 3.5 24.6942 3.5 24.5C3.5 24.3058 5.11398 24.2968 4.89953 24.2968H3.10326C2.3716 24.2968 1.77639 23.7577 1.77639 23.0951V11.2633L11.9587 19.8695C12.3611 20.2097 12.8774 20.3797 13.3938 20.3797C13.9101 20.3797 14.4266 20.2096 14.8289 19.8695L25.011 11.2634V23.0951C25.011 23.7577 24.4158 24.2968 23.6841 24.2968H6.4524C3.633 24.2968 3.5 24.3058 3.5 24.5C3.5 24.6942 4.41465 25 4.6291 25H23.6841C24.8439 25 25.7874 24.1454 25.7874 23.0951V11.2628C25.7874 10.9487 25.6413 10.6468 25.3864 10.4336ZM12.4884 2.02419C12.9961 1.59505 13.7914 1.59505 14.299 2.02419L14.9224 2.55106H11.865L12.4884 2.02419ZM5.28769 13.2692L2.23593 10.6898L5.28764 8.11042L5.28769 13.2692ZM21.4998 8.11037L24.5516 10.6898L21.4998 13.2693V8.11037Z" fill="#ADB4BD"/>
<path d="M3.5 24.5C3.5 24.6942 5.11398 25 4.89953 25H3.10332C1.94358 25 1 24.1454 1 23.0951V11.2628C1 10.9486 1.14623 10.6466 1.40121 10.4336L1.40209 10.4328L1.4039 10.4312L1.40504 10.4303L5.28774 7.14855V3.67935C5.28774 3.05726 5.84652 2.55111 6.53346 2.55111H10.727L11.9587 1.51011C12.7635 0.82994 14.0242 0.829987 14.8288 1.51011L16.0604 2.55111H20.254C20.9409 2.55111 21.4997 3.05722 21.4997 3.67935L21.4998 6.38018C21.4998 6.5744 21.326 7.54993 21.1115 7.54993C20.8971 7.54993 20.7233 6.95401 20.7233 6.34172L20.7233 3.67935C20.7233 3.44495 20.5127 3.2543 20.254 3.2543H6.53341C6.27465 3.2543 6.06413 3.44495 6.06413 3.67935V13.9255L12.4885 19.3554C12.9961 19.7846 13.7914 19.7846 14.2991 19.3554L20.7233 13.9255V5.6119C20.7233 5.41768 20.8971 5.2603 21.1115 5.2603C21.326 5.2603 21.4998 5.41768 21.4998 5.6119V7.14846L25.3826 10.4303L25.3835 10.4312L25.3855 10.4328L25.3864 10.4336C25.6413 10.6468 25.7874 10.9487 25.7874 11.2628V23.0951C25.7874 24.1454 24.8439 25 23.6841 25H4.6291C4.41465 25 3.5 24.6942 3.5 24.5ZM3.5 24.5C3.5 24.3058 5.11398 24.2968 4.89953 24.2968H3.10326C2.3716 24.2968 1.77639 23.7577 1.77639 23.0951V11.2633L11.9587 19.8695C12.3611 20.2097 12.8774 20.3797 13.3938 20.3797C13.9101 20.3797 14.4266 20.2096 14.8289 19.8695L25.011 11.2634V23.0951C25.011 23.7577 24.4158 24.2968 23.6841 24.2968H6.4524C3.633 24.2968 3.5 24.3058 3.5 24.5ZM12.4884 2.02419C12.9961 1.59505 13.7914 1.59505 14.299 2.02419L14.9224 2.55106H11.865L12.4884 2.02419ZM5.28769 13.2692L2.23593 10.6898L5.28764 8.11042L5.28769 13.2692ZM21.4998 8.11037L24.5516 10.6898L21.4998 13.2693V8.11037Z" stroke="#ADB4BD" stroke-width="0.7"/>
<path d="M22.893 22.8569C23.5799 22.8569 24.1387 22.3507 24.1387 21.7287C24.1387 21.1066 23.5798 20.6005 22.893 20.6005H19.4628C18.7759 20.6005 18.217 21.1066 18.217 21.7287C18.217 22.3507 18.7759 22.8569 19.4628 22.8569H22.893ZM18.9935 21.7286C18.9935 21.4943 19.204 21.3036 19.4628 21.3036H22.893C23.1517 21.3036 23.3622 21.4943 23.3622 21.7286C23.3622 21.963 23.1517 22.1537 22.893 22.1537H19.4628C19.204 22.1537 18.9935 21.963 18.9935 21.7286Z" fill="#ADB4BD"/>
<path d="M13.46 12.1666C12.773 12.1666 12.2142 12.6727 12.2142 13.2948C12.2142 13.9169 12.7731 14.423 13.46 14.423C14.1468 14.423 14.7057 13.9169 14.7057 13.2948C14.7057 12.6727 14.1469 12.1666 13.46 12.1666ZM13.46 13.7199C13.2012 13.7199 12.9907 13.5292 12.9907 13.2949C12.9907 13.0605 13.2012 12.8699 13.46 12.8699C13.7187 12.8699 13.9292 13.0605 13.9292 13.2949C13.9293 13.5292 13.7187 13.7199 13.46 13.7199Z" fill="#ADB4BD"/>
<path d="M14.7058 9.21646C15.8168 8.75024 16.4988 7.7121 16.4137 6.59568C16.3128 5.26918 15.1321 4.19991 13.6676 4.10836C12.8498 4.05703 12.0379 4.31753 11.4401 4.82289C10.8422 5.32825 10.4993 6.04283 10.4993 6.78338C10.4993 7.40547 11.0581 7.91157 11.745 7.91157C12.4319 7.91157 12.9907 7.40547 12.9907 6.78338C12.9907 6.66253 13.0424 6.55503 13.14 6.47248C13.236 6.39142 13.3629 6.35139 13.496 6.35945C13.7189 6.37337 13.9127 6.54898 13.9281 6.75094C13.9422 6.93602 13.8257 7.10736 13.638 7.17712C12.7731 7.49876 12.2143 8.25876 12.2143 9.11332V9.88992C12.2143 10.512 12.7732 11.0182 13.4601 11.0182C14.147 11.0182 14.7058 10.512 14.7058 9.88992L14.7058 9.21646ZM14.2895 8.61401C14.0707 8.69539 13.9294 8.8914 13.9294 9.11332V9.88992C13.9294 10.1243 13.7189 10.315 13.4601 10.315C13.2013 10.315 12.9908 10.1243 12.9908 9.88992V9.11332C12.9908 8.54515 13.3606 8.04049 13.933 7.82757C14.4306 7.64258 14.74 7.19043 14.7028 6.70251C14.661 6.15454 14.1544 5.69569 13.549 5.65795C13.5194 5.65612 13.4899 5.65519 13.4607 5.65519C13.1428 5.65519 12.8436 5.76127 12.6104 5.95835C12.3551 6.17418 12.2144 6.46718 12.2144 6.78343C12.2144 7.01778 12.0038 7.20843 11.7451 7.20843C11.4863 7.20843 11.2758 7.01778 11.2758 6.78343C11.2758 6.2371 11.5288 5.70989 11.9699 5.33697C12.411 4.96419 13.0103 4.77212 13.6142 4.80995C14.6941 4.87737 15.5647 5.66592 15.6392 6.6441C15.7042 7.49787 15.1618 8.28956 14.2895 8.61401Z" fill="#ADB4BD"/>
</g>
<defs>
<clipPath id="clip0">
<rect width="26.5" height="26.5" fill="white" transform="translate(0.209961 0.410004)"/>
</clipPath>
</defs>
</svg>
