<svg width="27" height="27" viewBox="0 0 27 27" fill="none" xmlns="http://www.w3.org/2000/svg">
<g clip-path="url(#clip0)">
<path d="M25.3864 10.4336L25.3855 10.4328L25.3835 10.4312L25.3826 10.4303L21.4998 7.14846V5.6119C21.4998 5.41768 21.326 5.2603 21.1115 5.2603C20.8971 5.2603 20.7233 5.41768 20.7233 5.6119V13.9255L14.2991 19.3554C13.7914 19.7846 12.9961 19.7846 12.4885 19.3554L6.06413 13.9255V3.67935C6.06413 3.44495 6.27465 3.2543 6.53341 3.2543H20.254C20.5127 3.2543 20.7233 3.44495 20.7233 3.67935L20.7233 6.81046C20.7233 7.00468 20.8971 7.5 21.1115 7.5C21.326 7.5 21.4998 7.00468 21.4998 6.81046L21.4997 3.67935C21.4997 3.05722 20.9409 2.55111 20.254 2.55111H16.0604L14.8288 1.51011C14.0242 0.829987 12.7635 0.82994 11.9587 1.51011L10.727 2.55111H6.53346C5.84652 2.55111 5.28774 3.05726 5.28774 3.67935V7.14855L1.40504 10.4303L1.4039 10.4312L1.40209 10.4328L1.40121 10.4336C1.14623 10.6466 1 10.9486 1 11.2628V23.0951C1 24.1454 1.94358 25 3.10332 25L8 25C8.21445 25 9.39943 24.8426 9.39943 24.6484C9.39943 24.4542 8.21445 24.2968 8 24.2968L3.10326 24.2968C2.3716 24.2968 8 24.6626 8 24L11.9587 24.2968V19.8695C12.3611 20.2097 7.5 23.5 13.3938 20.3797C1.77639 24.572 24.4981 24.9885 24.9004 24.6484L25.011 11.2634V23.0951C25.011 23.7577 24.4158 24.2968 23.6841 24.2968H6.4524C6.23795 24.2968 6.06418 24.4542 6.06418 24.6484C6.06418 24.8426 6.23795 25 6.4524 25H23.6841C24.8439 25 25.7874 24.1454 25.7874 23.0951V11.2628C25.7874 10.9487 25.6413 10.6468 25.3864 10.4336ZM12.4884 2.02419C12.9961 1.59505 13.7914 1.59505 14.299 2.02419L14.9224 2.55106H11.865L12.4884 2.02419ZM5.28769 13.2692L2.23593 10.6898L5.28764 8.11042L5.28769 13.2692ZM21.4998 8.11037L24.5516 10.6898L21.4998 13.2693V8.11037Z" fill="url(#paint0_linear)" stroke="url(#paint1_linear)" stroke-width="0.7"/>
<path d="M22.893 22.8569C23.5799 22.8569 24.1387 22.3507 24.1387 21.7287C24.1387 21.1066 23.5798 20.6005 22.893 20.6005H19.4628C18.7759 20.6005 18.217 21.1066 18.217 21.7287C18.217 22.3507 18.7759 22.8569 19.4628 22.8569H22.893ZM18.9935 21.7286C18.9935 21.4943 19.204 21.3036 19.4628 21.3036H22.893C23.1517 21.3036 23.3622 21.4943 23.3622 21.7286C23.3622 21.963 23.1517 22.1537 22.893 22.1537H19.4628C19.204 22.1537 18.9935 21.963 18.9935 21.7286Z" fill="white"/>
<mask id="path-3-inside-1" fill="white">
<path d="M13.4601 12.1666C12.7731 12.1666 12.2144 12.6727 12.2144 13.2948C12.2144 13.9169 12.7732 14.423 13.4601 14.423C14.147 14.423 14.7058 13.9169 14.7058 13.2948C14.7058 12.6727 14.147 12.1666 13.4601 12.1666ZM13.4601 13.2949C13.4601 13.5292 13.2013 13.2949 13.4601 13.2949C13.2013 13.2949 13.5 13.5 13.4601 13.2949C13.7188 13.2949 13.5 13.5 13.4601 13.2949C13.5 14 13.0617 13.2949 13.4601 13.2949Z"/>
</mask>
<path d="M13.4601 12.1666C12.7731 12.1666 12.2144 12.6727 12.2144 13.2948C12.2144 13.9169 12.7732 14.423 13.4601 14.423C14.147 14.423 14.7058 13.9169 14.7058 13.2948C14.7058 12.6727 14.147 12.1666 13.4601 12.1666ZM13.4601 13.2949C13.4601 13.5292 13.2013 13.2949 13.4601 13.2949C13.2013 13.2949 13.5 13.5 13.4601 13.2949C13.7188 13.2949 13.5 13.5 13.4601 13.2949C13.5 14 13.0617 13.2949 13.4601 13.2949Z" fill="url(#paint2_linear)"/>
<path d="M14.7058 13.2948L13.7058 13.2947V13.2948H14.7058ZM13.4601 11.1666C12.3164 11.1666 11.2144 12.0295 11.2144 13.2948H13.2144C13.2144 13.2911 13.2148 13.2871 13.2182 13.2798C13.2221 13.2714 13.2314 13.2563 13.2509 13.2386C13.2909 13.2024 13.3625 13.1666 13.4601 13.1666V11.1666ZM11.2144 13.2948C11.2144 14.5601 12.3164 15.423 13.4601 15.423V13.423C13.3625 13.423 13.2909 13.3872 13.2509 13.351C13.2314 13.3333 13.2221 13.3182 13.2182 13.3098C13.2148 13.3025 13.2144 13.2985 13.2144 13.2948H11.2144ZM13.4601 15.423C14.6037 15.423 15.7058 14.5601 15.7058 13.2948H13.7058C13.7058 13.2985 13.7054 13.3025 13.702 13.3098C13.698 13.3182 13.6887 13.3333 13.6692 13.351C13.6292 13.3872 13.5577 13.423 13.4601 13.423V15.423ZM15.7058 13.2949C15.7059 12.0295 14.6037 11.1666 13.4601 11.1666V13.1666C13.5577 13.1666 13.6293 13.2024 13.6693 13.2386C13.6888 13.2563 13.6981 13.2714 13.702 13.2798C13.7054 13.2871 13.7058 13.2911 13.7058 13.2947L15.7058 13.2949ZM13.4601 12.2949C13.361 12.2949 13.2206 12.305 13.0669 12.3567C12.9152 12.4077 12.6845 12.5232 12.5173 12.7755C12.3364 13.0485 12.3127 13.3577 12.3792 13.6109C12.4402 13.8429 12.5691 14.0129 12.6918 14.124C12.9025 14.3148 13.3827 14.5541 13.9011 14.2724C14.4187 13.9912 14.4601 13.464 14.4601 13.2949H12.4601C12.4601 13.2429 12.4692 12.7743 12.9462 12.5151C13.4242 12.2553 13.8559 12.48 14.0343 12.6415C14.1408 12.738 14.2576 12.8897 14.3135 13.1024C14.375 13.3364 14.3533 13.6255 14.1846 13.8801C14.0295 14.1142 13.821 14.2132 13.7046 14.2523C13.5864 14.2921 13.4945 14.2949 13.4601 14.2949V12.2949ZM12.4785 13.4859C12.4669 13.4262 12.4451 13.2772 12.4964 13.0896C12.5554 12.8745 12.7065 12.6371 12.9763 12.4957C13.2193 12.3683 13.4498 12.3759 13.5885 12.4012C13.7306 12.4271 13.8497 12.4826 13.9441 12.5475C14.0321 12.6079 14.1612 12.7196 14.2531 12.9053C14.3549 13.111 14.4259 13.4621 14.2282 13.8138C14.0555 14.1209 13.7869 14.2262 13.6856 14.2578C13.5696 14.294 13.4823 14.2949 13.4601 14.2949V12.2949C13.3731 12.2949 13.2386 12.3021 13.0893 12.3488C12.9546 12.3908 12.6665 12.5105 12.4848 12.8336C12.2781 13.2013 12.3506 13.5701 12.4607 13.7926C12.5609 13.9952 12.7053 14.1229 12.8119 14.1961C12.925 14.2738 13.0662 14.339 13.2303 14.3688C13.391 14.3981 13.6434 14.4041 13.9048 14.2671C14.1929 14.1161 14.3588 13.8611 14.4254 13.6179C14.4845 13.4022 14.4633 13.2149 14.4417 13.1038L12.4785 13.4859ZM13.4601 14.2949C13.4323 14.2949 13.3616 14.2928 13.2677 14.2666C13.1807 14.2424 13.0085 14.1792 12.8504 14.013C12.6724 13.826 12.5575 13.5501 12.5899 13.2438C12.6193 12.9656 12.7586 12.7636 12.8882 12.6422C13.1394 12.4067 13.5365 12.3009 13.9125 12.4645C14.3064 12.636 14.4171 12.9774 14.4417 13.1038L12.4785 13.4859C12.5231 13.7149 12.6761 14.1076 13.1141 14.2983C13.5343 14.4812 13.9774 14.3625 14.256 14.1014C14.3992 13.9671 14.5476 13.7491 14.5788 13.4541C14.6129 13.131 14.4925 12.8374 14.2993 12.6344C14.126 12.4522 13.9287 12.3746 13.8043 12.3399C13.673 12.3034 13.5526 12.2949 13.4601 12.2949V14.2949ZM12.4617 13.3514C12.4644 13.3999 12.4598 13.3908 12.4667 13.3459C12.4687 13.3329 12.4942 13.1306 12.672 12.9296C12.776 12.8121 12.9416 12.6865 13.1715 12.6332C13.4006 12.58 13.6054 12.6192 13.7532 12.68C14.0125 12.7868 14.1364 12.9694 14.175 13.0314C14.2285 13.1175 14.2611 13.206 14.2778 13.2931C14.2941 13.3788 14.3038 13.5106 14.26 13.6658C14.2122 13.8352 14.102 14.0193 13.9113 14.1496C13.7298 14.2736 13.5545 14.2949 13.4601 14.2949V12.2949C13.266 12.2949 13.0173 12.3382 12.7834 12.498C12.5402 12.664 12.3986 12.8978 12.3353 13.1223C12.2759 13.3326 12.2859 13.5249 12.3133 13.6685C12.341 13.8134 12.3954 13.957 12.4764 14.0872C12.5423 14.1933 12.6992 14.4089 12.9919 14.5295C13.1565 14.5972 13.3781 14.6384 13.6236 14.5814C13.8697 14.5243 14.0511 14.3891 14.1698 14.2551C14.3768 14.0211 14.4269 13.7581 14.4437 13.6488C14.4653 13.5074 14.4657 13.3661 14.4585 13.2383L12.4617 13.3514Z" fill="url(#paint3_linear)" mask="url(#path-3-inside-1)"/>
<path d="M14.7058 9.21646C15.8168 8.75024 16.4988 7.7121 16.4137 6.59568C16.3128 5.26918 15.1321 4.19991 13.6676 4.10836C12.8498 4.05703 12.0379 4.31753 11.4401 4.82289C10.8422 5.32825 10.4993 6.04283 10.4993 6.78338C10.4993 7.40547 11.0581 7.91157 11.745 7.91157C12.4319 7.91157 12.9907 7.40547 12.9907 6.78338C12.9907 6.66253 13.0424 6.55503 13.14 6.47248C13.236 6.39142 13.3629 6.35139 13.496 6.35945C13.7189 6.37337 13.9127 6.54898 13.9281 6.75094C13.9422 6.93602 13.8257 7.10736 13.638 7.17712C12.7731 7.49876 12.2143 8.25876 12.2143 9.11332V9.88992C12.2143 10.512 12.7732 11.0182 13.4601 11.0182C14.147 11.0182 14.7058 10.512 14.7058 9.88992L14.7058 9.21646ZM13.14 8.06523C12.9212 8.14661 12.6104 8.8914 12.6104 9.11332V10.2046C12.6104 10.439 13.7189 10.315 13.4601 10.315C13.2013 10.315 12.9908 10.1243 12.9908 9.88992V9.11332C12.9908 8.54515 13.9277 8.21293 14.5 8C14.9976 7.81501 14.74 7.19043 14.7028 6.70251C14.661 6.15454 14.1544 5.69569 13.549 5.65795C13.5194 5.65612 13.4899 5.65519 13.4607 5.65519C13.1428 5.65519 12.8436 5.76127 12.6104 5.95835C12.3551 6.17418 12.2144 6.46718 12.2144 6.78343C12.2144 7.01778 12.8692 5.95835 12.6104 5.95835C12.3517 5.95835 13 6.23435 13 6C13 5.45367 12.1693 6.33128 12.6104 5.95835C13.0515 5.58557 12.9451 5.92052 13.549 5.95835C14.6289 6.02577 14.4256 6.02182 14.5 7C14.565 7.85376 14.0123 7.74078 13.14 8.06523Z" fill="url(#paint4_linear)"/>
</g>
<defs>
<linearGradient id="paint0_linear" x1="13.3937" y1="1" x2="13.3937" y2="25" gradientUnits="userSpaceOnUse">
<stop stop-color="#FB8885"/>
<stop offset="1" stop-color="#EE8344"/>
</linearGradient>
<linearGradient id="paint1_linear" x1="13.3937" y1="1" x2="13.3937" y2="25" gradientUnits="userSpaceOnUse">
<stop stop-color="#FA8781"/>
<stop offset="1" stop-color="#EE8242"/>
</linearGradient>
<linearGradient id="paint2_linear" x1="13.4601" y1="12.1666" x2="13.4601" y2="14.423" gradientUnits="userSpaceOnUse">
<stop stop-color="#FA8780"/>
<stop offset="1" stop-color="#EE8245"/>
</linearGradient>
<linearGradient id="paint3_linear" x1="13.4601" y1="12.1666" x2="13.4601" y2="14.423" gradientUnits="userSpaceOnUse">
<stop stop-color="#FA8781"/>
<stop offset="1" stop-color="#EE8243"/>
</linearGradient>
<linearGradient id="paint4_linear" x1="13.4601" y1="4.10197" x2="13.4601" y2="11.0182" gradientUnits="userSpaceOnUse">
<stop stop-color="#FB8783"/>
<stop offset="1" stop-color="#ED8241"/>
</linearGradient>
<clipPath id="clip0">
<rect width="26.5" height="26.5" fill="white" transform="translate(0.209961 0.410004)"/>
</clipPath>
</defs>
</svg>
