<svg width="57" height="57" viewBox="0 0 57 57" fill="none" xmlns="http://www.w3.org/2000/svg">
<g clip-path="url(#clip0)">
<path d="M48.7718 30.4283H44.3637C44.813 31.6584 45.0585 32.986 45.0585 34.3697V51.03C45.0585 51.6069 44.9581 52.1607 44.7754 52.6757H52.063C54.7854 52.6757 57 50.4609 57 47.7387V38.6564C57.0001 34.1195 53.3089 30.4283 48.7718 30.4283Z" fill="black"/>
<path d="M11.9416 34.3698C11.9416 32.986 12.1871 31.6586 12.6364 30.4284H8.22828C3.6912 30.4284 0 34.1196 0 38.6567V47.7389C0 50.4611 2.21465 52.6759 4.93697 52.6759H12.2247C12.0421 52.1607 11.9416 51.607 11.9416 51.0301V34.3698Z" fill="black"/>
<path d="M33.5389 26.1416H23.4612C18.9242 26.1416 15.233 29.8328 15.233 34.3699V51.0301C15.233 51.9389 15.9697 52.6758 16.8786 52.6758H40.1215C41.0304 52.6758 41.7672 51.939 41.7672 51.0301V34.3699C41.7672 29.8328 38.076 26.1416 33.5389 26.1416Z" fill="black"/>
<path d="M28.5001 4.32397C23.0436 4.32397 18.6045 8.76308 18.6045 14.2196C18.6045 17.9207 20.6473 21.1531 23.6641 22.8502C25.095 23.6551 26.7446 24.1151 28.5001 24.1151C30.2555 24.1151 31.9051 23.6551 33.336 22.8502C36.3529 21.1531 38.3956 17.9206 38.3956 14.2196C38.3956 8.76319 33.9565 4.32397 28.5001 4.32397Z" fill="black"/>
<path d="M11.1237 13.5474C7.04297 13.5474 3.72316 16.8672 3.72316 20.948C3.72316 25.0287 7.04297 28.3485 11.1237 28.3485C12.1588 28.3485 13.1445 28.1341 14.04 27.7487C15.5881 27.0822 16.8646 25.9023 17.6545 24.4244C18.2089 23.3872 18.5243 22.2039 18.5243 20.948C18.5243 16.8673 15.2045 13.5474 11.1237 13.5474Z" fill="black"/>
<path d="M45.8764 13.5474C41.7957 13.5474 38.4759 16.8672 38.4759 20.948C38.4759 22.204 38.7913 23.3873 39.3457 24.4244C40.1355 25.9024 41.412 27.0823 42.9602 27.7487C43.8556 28.1341 44.8413 28.3485 45.8764 28.3485C49.9572 28.3485 53.277 25.0287 53.277 20.948C53.277 16.8672 49.9572 13.5474 45.8764 13.5474Z" fill="black"/>
</g>
<defs>
<clipPath id="clip0">
<rect width="57" height="57" fill="white"/>
</clipPath>
</defs>
</svg>
