<svg width="58" height="58" viewBox="0 0 58 58" fill="none" xmlns="http://www.w3.org/2000/svg">
<g clip-path="url(#clip0)">
<path d="M9.35205 39.7874L14.9719 34.3548C17.0888 32.3095 19.9177 31.1666 22.8608 31.1666H37.233C37.9848 31.1666 38.6636 31.471 39.1561 31.9617C39.6468 32.4538 39.9513 33.1322 39.9513 33.8835C39.9513 35.3836 38.7353 36.5992 37.233 36.5992H31.4432C30.9706 36.5992 30.5441 36.7903 30.2343 37.0992C29.925 37.4094 29.7338 37.8355 29.7338 38.3081C29.7338 39.2529 30.4994 40.018 31.4437 40.018H39.5477C39.8513 40.018 40.1438 39.9096 40.3743 39.7127L51.1763 29.7691C51.8728 29.1744 52.7295 28.8819 53.5826 28.8819C54.5588 28.8819 55.5328 29.2669 56.2594 30.0227C56.6673 30.4479 56.6837 31.1139 56.2961 31.5573L43.6475 46.0303C42.9223 46.86 41.8731 47.3357 40.7712 47.3357H24.2649C22.5228 47.3357 20.8492 48.0189 19.6053 49.238L19.2018 49.6332" fill="white"/>
<path d="M17.6997 48.1317L19.2016 49.6331L19.6051 49.238C20.849 48.0189 22.523 47.3356 24.2647 47.3356H20.8543C19.7436 47.3356 18.6613 47.6144 17.6997 48.1317Z" fill="#FECBAA"/>
<path d="M19.5361 51.22L13.961 56.792C13.615 57.1376 13.0543 57.1376 12.7083 56.792L1.90894 45.998C1.5629 45.6519 1.5629 45.0908 1.90894 44.7448L7.48406 39.1728C7.82966 38.8272 8.39076 38.8272 8.73635 39.1728L19.5361 49.9668C19.8822 50.3124 19.8822 50.8735 19.5361 51.22Z" fill="white"/>
<path d="M35.4757 2.92361L33.6809 4.71752C33.4229 4.9755 33.0039 4.9755 32.7455 4.71752L30.9507 2.92361C28.0279 0.0021894 23.2887 0.0021894 20.3655 2.92361C17.4423 5.84503 17.4423 10.5816 20.3655 13.503L22.628 15.7647L31.9848 25.1161C32.6631 25.7945 33.7632 25.7945 34.442 25.1161C38.3148 21.2451 42.1881 17.3741 46.0613 13.503C48.9841 10.5816 48.9841 5.84503 46.0613 2.92361C43.1381 0.0021894 38.3989 0.0021894 35.4757 2.92361Z" fill="white"/>
<path d="M31.3839 25.7171C31.8883 26.2215 32.5508 26.4733 33.2132 26.4733C33.8756 26.4733 34.5385 26.2211 35.0425 25.7171L46.6618 14.1044C47.2579 13.5084 47.7575 12.8318 48.1464 12.0932C48.365 11.6777 50 7 48.5 8C48.2504 7.5 46.8614 10.8861 46.6428 11.3011C46.3335 11.8888 45.9357 12.4273 45.4604 12.9021L33.8411 24.5152C33.4946 24.8613 32.9313 24.8613 32.5853 24.5152L20.966 12.9021C19.7128 11.6498 19.023 9.98468 19.023 8.21334C19.023 6.44199 19.7133 4.77684 20.966 3.52455C23.5533 0.938996 27.7629 0.938553 30.3502 3.52455L32.145 5.31803C32.734 5.907 33.6924 5.907 34.2819 5.31803L36.0767 3.52455C38.6635 0.938996 42.8731 0.938553 45.4604 3.52455C46.6689 4.73215 47.3583 6.33711 47.4017 8.04386C47.4132 8.50583 47.7915 8.87223 48.2504 8.87223C48.2579 8.87223 47.3946 12.0932 47.4017 12.0932C47.8707 12.0813 49.1124 8.46999 49.1005 8.00093C49.046 5.85655 48.1801 3.84006 46.6618 2.32271C43.4121 -0.925278 38.1246 -0.925278 34.8753 2.32271L33.2132 3.98343L31.5516 2.32271C28.3018 -0.925278 23.0143 -0.925278 19.765 2.32271C18.1906 3.89626 17.3237 5.98798 17.3237 8.21334C17.3237 10.4387 18.1906 12.5309 19.765 14.1044L31.3839 25.7171Z" fill="white"/>
<path d="M56.8716 29.4173C56.0154 28.5265 54.8166 28.0154 53.5821 28.0154C52.4984 28.0154 51.4479 28.4031 50.6239 29.1062C50.6159 29.1133 50.608 29.1204 50.6005 29.1275L39.8117 39.0586C39.7365 39.1197 39.6423 39.1529 39.5458 39.1529H31.4404C30.9661 39.1529 30.5802 38.767 30.5802 38.2926C30.5802 38.0634 30.67 37.847 30.8307 37.6859C30.9939 37.5231 31.2108 37.4333 31.4404 37.4333H37.2306C39.198 37.4333 40.799 35.8336 40.799 33.8676C40.799 32.9153 40.4282 32.0192 39.7538 31.3435C39.079 30.6709 38.1829 30.3005 37.2306 30.3005H22.8567C19.6751 30.3005 16.6634 31.5179 14.3761 33.7277L13.6827 34.3986C13.3451 34.7247 13.3362 35.2628 13.6623 35.6C13.9885 35.9372 14.5261 35.9465 14.8637 35.6203L15.5572 34.9499C17.5259 33.0476 20.1181 31.9998 22.8567 31.9998H37.2306C37.7298 31.9998 38.2001 32.194 38.5524 32.5458C38.905 32.8989 39.0998 33.3689 39.0998 33.8676C39.0998 34.8968 38.2612 35.7341 37.2306 35.7341H31.4404C30.7581 35.7341 30.1156 35.9996 29.6293 36.4837C29.1465 36.9678 28.881 37.6103 28.881 38.2926C28.881 39.7042 30.0293 40.8525 31.4404 40.8525H39.5458C40.0507 40.8525 40.5401 40.6715 40.9246 40.3432C40.9322 40.3366 40.9401 40.3295 40.9481 40.3224L51.739 30.389C52.2537 29.9541 52.9072 29.7147 53.5821 29.7147C54.3679 29.7147 55.1016 30.0275 55.6463 30.5944C55.7503 30.7028 55.7548 30.8696 55.6565 30.982L43.0062 45.4563C42.442 46.1015 41.6269 46.4714 40.7689 46.4714H24.2608C22.3766 46.4714 20.5933 47.1653 19.2083 48.4278L10.5582 39.7825L12.3601 38.0404C12.6977 37.7143 12.7065 37.1766 12.3804 36.839C12.0543 36.5018 11.5166 36.4925 11.179 36.8186L9.35589 38.5811L9.33155 38.5568C8.65496 37.8802 7.554 37.8802 6.87741 38.5564L1.30141 44.1293C0.973511 44.4572 0.792969 44.893 0.792969 45.3568C0.792969 45.8205 0.973511 46.2564 1.30185 46.5847L12.1025 57.3796C12.4406 57.7177 12.8849 57.8867 13.3291 57.8867C13.7739 57.8867 14.2181 57.7177 14.5562 57.3796L20.1322 51.8067C20.4601 51.4788 20.6406 51.043 20.6406 50.5792C20.6406 50.2491 20.5477 49.934 20.3769 49.661C21.4451 48.6986 22.8142 48.1711 24.2608 48.1711H40.7689C42.1172 48.1711 43.3987 47.5892 44.2855 46.5745L56.9362 32.0998C57.6177 31.3192 57.5903 30.166 56.8716 29.4173ZM18.9308 50.6049L13.3552 56.1773C13.3411 56.1915 13.3181 56.1919 13.3039 56.1773L2.50325 45.3824C2.49971 45.3793 2.49219 45.3718 2.49219 45.3568C2.49219 45.3417 2.49971 45.3342 2.50281 45.3311L8.07882 39.7582C8.0859 39.7511 8.09519 39.7476 8.10448 39.7476C8.11377 39.7476 8.12307 39.7511 8.13015 39.7582L18.5839 50.2066C18.5861 50.2088 18.5879 50.2115 18.5901 50.2137C18.5936 50.2168 18.5972 50.2199 18.6007 50.223L18.9308 50.5531C18.9339 50.5562 18.9419 50.5642 18.9419 50.5792C18.9419 50.5943 18.9339 50.6018 18.9308 50.6049Z" fill="white"/>
</g>
<defs>
<clipPath id="clip0">
<rect width="58" height="58" fill="white"/>
</clipPath>
</defs>
</svg>
